<svg xmlns="http://www.w3.org/2000/svg">
<defs>
<font id="e1afd35687856fbefcd87e5e37e970c5" horiz-adv-x='1024' >
  <font-face 
    font-family="GTWalsheimUltraLight-Oblique"
    font-weight="250"
    font-style="oblique"
    font-stretch="normal"
    units-per-em="1000"
    panose-1="2 0 5 3 2 0 0 9 0 3"
    ascent="710"
    descent="-290"
    x-height="419"
    cap-height="700"
    bbox="-130 -330 1177 976"
    underline-thickness="50"
    underline-position="-50"
    slope="-6"
    unicode-range="U+000D-FB04"
  />
<missing-glyph horiz-adv-x="800" 
d="M473 717q80 0 141 -27.5t102.5 -73t63 -105.5t21.5 -125q0 -77 -29 -150t-81.5 -129t-126 -90t-162.5 -34q-80 0 -141.5 27.5t-103 73t-63 105.5t-21.5 125q0 77 29 149.5t82 129t126.5 90.5t162.5 34zM473 695q-42 0 -79 -8t-67 -21t-59 -32t-55 -44
q-25 -24 -44.5 -52.5t-33.5 -57.5q-17 -35 -25.5 -66.5t-12.5 -63.5q-7 -66 11 -129q8 -32 22 -59.5t33 -50.5q20 -24 43.5 -43t54.5 -33q64 -29 140 -29t145 29q34 14 61 32.5t53 43.5q49 48 79 110q15 31 27 67.5t12 92.5q0 26 -3 51t-9 48q-8 29 -22 57t-34 53
q-40 48 -98 76q-63 29 -139 29zM192 228q12 -8 31 -20t42.5 -23.5t51 -19.5t56.5 -8q42 4 82 8q34 4 70 8t62 7q-18 -23 -41.5 -44.5t-61.5 -39.5q-30 -14 -60 -22t-53 -8q-47 0 -91.5 37.5t-87.5 124.5zM247 259l207 268l-136 -243h178l-2 -25h-247zM248 169q12 -21 29 -36
t36 -24t36.5 -13t31.5 -4q22 0 49 9t51 20t41.5 21t21.5 13q-35 -7 -78.5 -15t-87.5 -8q-15 0 -33.5 1.5t-36 5.5t-33.5 11.5t-27 18.5zM254 496q0 20 14 33.5t32 13.5q17 0 28 -11t11 -28q0 -19 -14 -33t-33 -14q-17 0 -27.5 11.5t-10.5 27.5zM551 496q0 20 14 33.5
t32 13.5q17 0 28 -11t11 -28q0 -19 -14 -33t-33 -14q-17 0 -27.5 11.5t-10.5 27.5zM617 161q4 9 4 18q0 7 -2 13q-2 5 -3 5q-2 2 -1.5 1.5t-1.5 0.5q-3 1 -2.5 1t-1.5 1l-13 5q-7 4 -15 8t-16 11q-11 9 -16 20l-2 11q-2 7 -2.5 8t0.5 6q-1 8 -1.5 15.5t0.5 15.5q2 5 2.5 10
t2.5 9l14 -5q0 -2 -1 -4.5t-1 -5.5l-1 -13q0 -7 -0.5 -14t1.5 -13q1 -2 1.5 -6t2.5 -6q2 -6 7.5 -12t9.5 -8q8 -5 15.5 -8t9.5 -5l14 -6q2 -1 3 -2l3 -3q6 -5 5.5 -5.5t1.5 -3.5q3 -9 3 -19q0 -13 -4 -24zM248 331q-1 -5 -0.5 -10t0.5 -10v-12q0 -8 -2.5 -16t-6.5 -13

<glyph glyph-name="IJ" unicode="IJ" horiz-adv-x="741" 
d="M685 205q-6 -52 -26 -92.5t-51 -68.5t-71 -42.5t-85 -14.5t-84.5 14.5t-68 42.5t-43 68.5t-8.5 92.5h20q-5 -47 8 -83.5t39 -62t62 -39t77 -13.5t77 13.5t64.5 39t46.5 62t23 83.5l52 495h20zM167 700h20l-74 -700h-20z" />
    <glyph glyph-name="ij" unicode="ij" horiz-adv-x="418" 
d="M373 648h20l-11 -103h-20zM308 -161q-6 -58 -35.5 -91.5t-82.5 -33.5q-14 0 -27 2.5t-28 10.5l3 23q26 -16 54 -16q44 0 67.5 28t28.5 77l61 580h20zM161 648h20l-11 -103h-20zM137 419h20l-44 -419h-20z" />
    <glyph glyph-name="uniFB00" unicode="ff" horiz-adv-x="620" 
d="M377 675q-13 6 -24.5 8.5t-28.5 2.5q-20 0 -38.5 -4.5t-34 -18t-26.5 -38t-15 -65.5l-15 -141h155l-2 -20h-155l-42 -399h-20l42 399h-106l2 20h106l15 141q5 47 18 76t31 44.5t39.5 20.5t43.5 5q20 0 32.5 -3t24.5 -8zM687 675q-13 6 -24.5 8.5t-28.5 2.5
q-20 0 -38.5 -4.5t-34 -18t-26.5 -38t-15 -65.5l-15 -141h155l-2 -20h-155l-42 -399h-20l42 399h-106l2 20h106l15 141q5 47 18 76t31 44.5t39.5 20.5t43.5 5q20 0 32.5 -3t24.5 -8z" />
    <glyph glyph-name="fi" unicode="fi" horiz-adv-x="516" 
d="M447 419h20l-44 -419h-20zM471 648h20l-11 -103h-20zM377 675q-13 6 -24.5 8.5t-28.5 2.5q-20 0 -38.5 -4.5t-34 -18t-26.5 -38t-15 -65.5l-15 -141h155l-2 -20h-155l-42 -399h-20l42 399h-106l2 20h106l15 141q5 47 18 76t31 44.5t39.5 20.5t43.5 5q20 0 32.5 -3
t24.5 -8z" />
    <glyph glyph-name="fl" unicode="fl" horiz-adv-x="516" 
d="M377 675q-13 6 -24.5 8.5t-28.5 2.5q-20 0 -38.5 -4.5t-34 -18t-26.5 -38t-15 -65.5l-15 -141h155l-2 -20h-155l-42 -399h-20l42 399h-106l2 20h106l15 141q5 47 18 76t31 44.5t39.5 20.5t43.5 5q20 0 32.5 -3t24.5 -8zM477 700h20l-74 -700h-20z" />
    <glyph glyph-name="uniFB03" unicode="ffi" horiz-adv-x="826" 
d="M757 419h20l-44 -419h-20zM781 648h20l-11 -103h-20zM377 675q-13 6 -24.5 8.5t-28.5 2.5q-20 0 -38.5 -4.5t-34 -18t-26.5 -38t-15 -65.5l-15 -141h155l-2 -20h-155l-42 -399h-20l42 399h-106l2 20h106l15 141q5 47 18 76t31 44.5t39.5 20.5t43.5 5q20 0 32.5 -3
t24.5 -8zM687 675q-13 6 -24.5 8.5t-28.5 2.5q-20 0 -38.5 -4.5t-34 -18t-26.5 -38t-15 -65.5l-15 -141h155l-2 -20h-155l-42 -399h-20l42 399h-106l2 20h106l15 141q5 47 18 76t31 44.5t39.5 20.5t43.5 5q20 0 32.5 -3t24.5 -8z" />
    <glyph glyph-name="uniFB04" unicode="ffl" horiz-adv-x="826" 
d="M377 675q-13 6 -24.5 8.5t-28.5 2.5q-20 0 -38.5 -4.5t-34 -18t-26.5 -38t-15 -65.5l-15 -141h155l-2 -20h-155l-42 -399h-20l42 399h-106l2 20h106l15 141q5 47 18 76t31 44.5t39.5 20.5t43.5 5q20 0 32.5 -3t24.5 -8zM687 675q-13 6 -24.5 8.5t-28.5 2.5
q-20 0 -38.5 -4.5t-34 -18t-26.5 -38t-15 -65.5l-15 -141h155l-2 -20h-155l-42 -399h-20l42 399h-106l2 20h106l15 141q5 47 18 76t31 44.5t39.5 20.5t43.5 5q20 0 32.5 -3t24.5 -8zM787 700h20l-74 -700h-20z" />
    <glyph glyph-name=".notdef" horiz-adv-x="800" 
d="M473 717q80 0 141 -27.5t102.5 -73t63 -105.5t21.5 -125q0 -77 -29 -150t-81.5 -129t-126 -90t-162.5 -34q-80 0 -141.5 27.5t-103 73t-63 105.5t-21.5 125q0 77 29 149.5t82 129t126.5 90.5t162.5 34zM473 695q-42 0 -79 -8t-67 -21t-59 -32t-55 -44
q-25 -24 -44.5 -52.5t-33.5 -57.5q-17 -35 -25.5 -66.5t-12.5 -63.5q-7 -66 11 -129q8 -32 22 -59.5t33 -50.5q20 -24 43.5 -43t54.5 -33q64 -29 140 -29t145 29q34 14 61 32.5t53 43.5q49 48 79 110q15 31 27 67.5t12 92.5q0 26 -3 51t-9 48q-8 29 -22 57t-34 53
q-40 48 -98 76q-63 29 -139 29zM192 228q12 -8 31 -20t42.5 -23.5t51 -19.5t56.5 -8q42 4 82 8q34 4 70 8t62 7q-18 -23 -41.5 -44.5t-61.5 -39.5q-30 -14 -60 -22t-53 -8q-47 0 -91.5 37.5t-87.5 124.5zM247 259l207 268l-136 -243h178l-2 -25h-247zM248 169q12 -21 29 -36
t36 -24t36.5 -13t31.5 -4q22 0 49 9t51 20t41.5 21t21.5 13q-35 -7 -78.5 -15t-87.5 -8q-15 0 -33.5 1.5t-36 5.5t-33.5 11.5t-27 18.5zM254 496q0 20 14 33.5t32 13.5q17 0 28 -11t11 -28q0 -19 -14 -33t-33 -14q-17 0 -27.5 11.5t-10.5 27.5zM551 496q0 20 14 33.5
t32 13.5q17 0 28 -11t11 -28q0 -19 -14 -33t-33 -14q-17 0 -27.5 11.5t-10.5 27.5zM617 161q4 9 4 18q0 7 -2 13q-2 5 -3 5q-2 2 -1.5 1.5t-1.5 0.5q-3 1 -2.5 1t-1.5 1l-13 5q-7 4 -15 8t-16 11q-11 9 -16 20l-2 11q-2 7 -2.5 8t0.5 6q-1 8 -1.5 15.5t0.5 15.5q2 5 2.5 10
t2.5 9l14 -5q0 -2 -1 -4.5t-1 -5.5l-1 -13q0 -7 -0.5 -14t1.5 -13q1 -2 1.5 -6t2.5 -6q2 -6 7.5 -12t9.5 -8q8 -5 15.5 -8t9.5 -5l14 -6q2 -1 3 -2l3 -3q6 -5 5.5 -5.5t1.5 -3.5q3 -9 3 -19q0 -13 -4 -24zM248 331q-1 -5 -0.5 -10t0.5 -10v-12q0 -8 -2.5 -16t-6.5 -13
q-2 -5 -15 -11q-4 -2 -5 -2q-5 -2 -11 -4.5t-11 -5.5q-4 -1 -10 -5q-2 -1 -3 -2t-4 -3q-4 -7 -6 -13l-4 -17h-16q1 5 1.5 10t2.5 10q4 13 11 20q4 4 6 5t5 3l11 7q4 2 11.5 5t13.5 5l1 1q5 2 10 8q5 5 5 16v12l-1 20zM600 196q1 1 -0.5 -7t-2.5 -8q-3 -1 -10 -1q7 7 13 16z
" />
    <glyph glyph-name=".null" horiz-adv-x="0" 
 />
    <glyph glyph-name=".null" horiz-adv-x="0" 
 />
    <glyph glyph-name="nonmarkingreturn" unicode="&#xd;" horiz-adv-x="250" 
 />
    <glyph glyph-name="space" unicode=" " horiz-adv-x="260" 
 />
    <glyph glyph-name="exclam" unicode="!" horiz-adv-x="257" 
d="M193 717h20l-56 -534h-20zM129 103h20l-11 -103h-20z" />
    <glyph glyph-name="quotedbl" unicode="&#x22;" horiz-adv-x="249" 
d="M135 717h20l-26 -251h-20zM244 717h20l-26 -251h-20z" />
    <glyph glyph-name="numbersign" unicode="#" horiz-adv-x="552" 
d="M387 224h-199l-55 -224h-20l55 224h-114l2 20h117l51 212h-116l2 20h119l55 224h20l-55 -224h199l55 224h20l-55 -224h104l-2 -20h-107l-51 -212h106l-2 -20h-109l-55 -224h-20zM193 244h199l51 212h-199z" />
    <glyph glyph-name="dollar" unicode="$" horiz-adv-x="575" 
d="M382 713q97 -2 145 -54.5t41 -146.5h-20q5 89 -40 135t-139 46q-52 0 -91.5 -13.5t-66.5 -37.5t-40.5 -56t-13.5 -69q0 -41 16 -67t43 -42.5t62.5 -26t73.5 -17.5q37 -8 72 -18.5t62.5 -29.5t44 -49t16.5 -78q0 -46 -16.5 -83t-48 -63t-76 -40.5t-100.5 -15.5l-10 -97
h-20l10 97q-56 1 -98 18.5t-69 46.5t-38.5 68t-6.5 85h20q-4 -41 6 -77t35.5 -63t67 -42.5t99.5 -15.5q50 0 91 12t70.5 35.5t46 57t16.5 75.5t-15 68.5t-40.5 43.5t-58.5 27t-69 18q-41 9 -78 19.5t-65.5 28.5t-45.5 47.5t-17 76.5q0 40 14 75.5t41.5 61.5t70 42t99.5 18
l10 97h20z" />
    <glyph glyph-name="percent" unicode="%" horiz-adv-x="813" 
d="M774 107q-3 -24 -14.5 -44.5t-29.5 -36.5t-41.5 -25t-50.5 -9q-28 0 -50 10t-36 26.5t-20.5 39t-3.5 47.5l17 161q3 24 14 44.5t29 36.5t41.5 25t50.5 9q28 0 50 -10t36.5 -26.5t21 -39t3.5 -47.5zM549 115q-2 -21 3 -40t17 -33t30 -22.5t41 -8.5q48 0 78.5 31t35.5 73
l16 153q2 21 -3 40t-17 33t-30 22.5t-42 8.5q-47 0 -77.5 -31t-35.5 -73zM95 429l17 161q3 24 14 44.5t29 36.5t41.5 25t50.5 9q28 0 50 -10t36.5 -26.5t21 -39t3.5 -47.5l-17 -161q-3 -24 -14.5 -44.5t-29.5 -36.5t-41.5 -25t-50.5 -9q-28 0 -50 10t-36 26.5t-20.5 39
t-3.5 47.5zM337 582q2 21 -3 40t-17 33t-30 22.5t-42 8.5q-47 0 -77.5 -31t-35.5 -73l-16 -153q-2 -21 3 -40t17 -33t30 -22.5t41 -8.5q48 0 78.5 31t35.5 73zM708 751l16 -10l-516 -753l-16 10z" />
    <glyph glyph-name="ampersand" unicode="&#x26;" horiz-adv-x="598" 
d="M392 255h213l-2 -20h-80q-6 -50 -21.5 -94t-44 -77.5t-72 -53t-105.5 -19.5q-98 0 -152 47.5t-54 125.5q0 37 12 70t35.5 59t56.5 43.5t75 23.5q-66 10 -99.5 51.5t-33.5 100.5q0 42 16.5 78.5t47 62.5t73 41t94.5 15q48 0 85.5 -13.5t62.5 -37.5t35.5 -57.5t6.5 -73.5
h-20q8 72 -38.5 117t-134.5 45q-46 0 -84.5 -13t-66 -36.5t-42.5 -55.5t-15 -70q0 -66 44.5 -105t123.5 -39h58l-2 -20h-59q-47 0 -86 -14t-66.5 -38.5t-43 -58t-15.5 -72.5q0 -71 49 -113.5t139 -42.5q58 0 98 18t65.5 49t39 71.5t18.5 85.5h-113z" />
    <glyph glyph-name="quotesingle" unicode="'" horiz-adv-x="140" 
d="M135 717h20l-26 -251h-20z" />
    <glyph glyph-name="parenleft" unicode="(" horiz-adv-x="301" 
d="M393 775q-45 0 -83.5 -16t-67 -43t-46.5 -63.5t-22 -76.5l-63 -592q-4 -40 6.5 -76t33.5 -63t58 -43t80 -16l-3 -20q-50 0 -88 17.5t-63.5 47.5t-37 69.5t-6.5 83.5l63 592q5 46 25 86t51.5 69.5t73.5 46.5t91 17z" />
    <glyph glyph-name="parenright" unicode=")" horiz-adv-x="301" 
d="M73 795q49 0 87.5 -17.5t64 -47.5t37 -69.5t6.5 -84.5l-62 -592q-5 -44 -24.5 -83.5t-51 -69.5t-74 -47.5t-91.5 -17.5l2 20q45 0 83.5 16t67 43t46.5 63t22 76l62 592q4 40 -6 76.5t-33 63.5t-58 43t-80 16z" />
    <glyph glyph-name="asterisk" unicode="*" horiz-adv-x="446" 
d="M144 380l120 142l-163 54l8 20l164 -59l17 180h20l-21 -180l174 59l4 -20l-174 -54l89 -142l-17 -12l-87 145l-119 -145z" />
    <glyph glyph-name="plus" unicode="+" 
d="M280 93l19 181h-182l2 20h182l19 183h20l-19 -183h182l-2 -20h-182l-19 -181h-20z" />
    <glyph glyph-name="comma" unicode="," horiz-adv-x="208" 
d="M149 103h20l-13 -124q-5 -52 -35.5 -73.5t-72.5 -21.5l2 20q34 0 57.5 17t28.5 58z" />
    <glyph glyph-name="hyphen" unicode="-" horiz-adv-x="294" 
d="M293 275h-234l2 20h234z" />
    <glyph glyph-name="period" unicode="." horiz-adv-x="177" 
d="M89 103h20l-11 -103h-20z" />
    <glyph glyph-name="slash" unicode="/" horiz-adv-x="385" 
d="M467 777l17 -8l-453 -845l-17 8z" />
    <glyph glyph-name="zero" unicode="0" horiz-adv-x="575" 
d="M120 494q5 45 24.5 84.5t51 69.5t74 47.5t92.5 17.5q51 0 89.5 -18t64 -48t37 -69.5t6.5 -83.5l-31 -289q-5 -44 -24.5 -83.5t-51.5 -69.5t-74.5 -47.5t-92.5 -17.5t-88.5 17.5t-64 47.5t-37 69.5t-6.5 83.5zM539 494q4 40 -6 76.5t-33.5 63.5t-58.5 43t-80 16
q-46 0 -84.5 -16t-67.5 -43t-47 -63.5t-22 -76.5l-31 -289q-4 -40 6 -76t33.5 -63t58.5 -43t81 -16q45 0 83.5 16t67.5 43t47 63t22 76z" />
    <glyph glyph-name="one" unicode="1" horiz-adv-x="282" 
d="M262 700l-73 -700h-20l64 609q-19 -23 -52 -34t-87 -11l2 20q44 0 71 6.5t43 20.5t22.5 36t9.5 53h20z" />
    <glyph glyph-name="two" unicode="2" horiz-adv-x="525" 
d="M48 0q10 87 28 142.5t49 91.5t76 58.5t109 43.5q37 12 73 25.5t64.5 34.5t46 53t17.5 80q0 72 -42 116t-127 44q-49 0 -88 -15t-67.5 -42t-46 -63.5t-21.5 -78.5h-20q4 44 22.5 83.5t49.5 69.5t74.5 48t99.5 18q93 0 139.5 -48t46.5 -129q0 -55 -19.5 -91t-51 -59.5
t-70 -38t-76.5 -26.5q-62 -20 -104.5 -42t-70.5 -55t-44 -81t-25 -119h417l-2 -20h-437v0z" />
    <glyph glyph-name="three" unicode="3" horiz-adv-x="528" 
d="M72 182q-8 -76 40.5 -123.5t141.5 -47.5q49 0 89 14t68.5 39t44.5 59t16 74q0 69 -46.5 111t-128.5 42h-59l2 20h58q45 0 82 13t63 35.5t40.5 54t14.5 68.5q0 67 -46.5 107.5t-128.5 40.5q-43 0 -79 -12t-63 -33t-43.5 -51t-20.5 -66h-20q4 40 22.5 73.5t48 57.5
t69.5 37.5t88 13.5q91 0 142 -45.5t51 -120.5q0 -35 -11.5 -66t-33.5 -55.5t-52.5 -40.5t-69.5 -21q69 -10 105 -54.5t36 -107.5q0 -45 -17.5 -82.5t-49.5 -65.5t-76.5 -43.5t-97.5 -15.5q-50 0 -89 14t-65 39t-38 60.5t-7 77.5h20z" />
    <glyph glyph-name="four" unicode="4" horiz-adv-x="532" 
d="M380 270h-277l45 430h20l-43 -410h257l25 233h20l-25 -233h132l-2 -20h-132l-28 -270h-20z" />
    <glyph glyph-name="five" unicode="5" horiz-adv-x="574" 
d="M169 700h374l-2 -20h-354l-37 -355q26 43 76 70.5t114 27.5q46 0 82.5 -15t62 -41t39.5 -61.5t14 -76.5q0 -48 -18 -91t-50.5 -75.5t-77.5 -52t-98 -19.5q-51 0 -89.5 17.5t-64 47.5t-37 69.5t-6.5 83.5h20q-4 -40 6 -76t33.5 -63t58.5 -43t81 -16q48 0 89 17.5
t70.5 47.5t46 69t16.5 83q0 37 -12.5 69t-35.5 55.5t-57.5 37t-77.5 13.5q-62 0 -108.5 -27.5t-73.5 -77.5h-26z" />
    <glyph glyph-name="six" unicode="6" horiz-adv-x="516" 
d="M257 -9q-48 0 -85 15.5t-62.5 42.5t-38.5 63t-13 76q0 76 47 141l270 371h24l-231 -317q22 23 58.5 34t74.5 11q46 0 83 -15.5t62.5 -42.5t39.5 -63t14 -77q0 -48 -18.5 -91.5t-50.5 -76t-77 -52t-97 -19.5zM259 11q48 0 88.5 17.5t70 47.5t46 69t16.5 83q0 37 -12.5 70
t-36 57.5t-57 38.5t-76.5 14q-48 0 -88.5 -18t-70 -48t-45.5 -69.5t-16 -82.5q0 -37 12 -69.5t35.5 -57t57 -38.5t76.5 -14z" />
    <glyph glyph-name="seven" unicode="7" horiz-adv-x="429" 
d="M508 700l-424 -700h-22l410 680h-363l3 20h396z" />
    <glyph glyph-name="eight" unicode="8" horiz-adv-x="552" 
d="M276 -9q-97 0 -150 47.5t-53 125.5q0 35 11 67.5t33.5 59t56 45t78.5 24.5q-66 11 -99.5 52t-33.5 100q0 42 17 78.5t47.5 62.5t73 41t93.5 15q92 0 143 -45.5t51 -119.5q0 -33 -10.5 -63.5t-31.5 -55t-52.5 -42t-73.5 -23.5q70 -11 105.5 -55t35.5 -107
q0 -45 -17.5 -82.5t-49 -65.5t-76 -43.5t-98.5 -15.5zM316 370q48 0 86 13t65 35.5t41.5 54t14.5 68.5q0 67 -46.5 107.5t-128.5 40.5q-46 0 -84 -13t-65.5 -36.5t-42.5 -55.5t-15 -70q0 -66 45 -105t130 -39zM278 11q49 0 89.5 14t69 38.5t44.5 58.5t16 74q0 70 -48 112
t-137 42q-50 0 -90.5 -14t-69 -38.5t-44 -58t-15.5 -72.5q0 -71 48.5 -113.5t136.5 -42.5z" />
    <glyph glyph-name="nine" unicode="9" horiz-adv-x="516" 
d="M332 709q48 0 85 -16t62.5 -43t39 -63t13.5 -76q0 -75 -47 -140l-270 -371h-24l231 317q-22 -23 -59 -34t-75 -11q-46 0 -83 15.5t-62.5 42.5t-39 63t-13.5 77q0 48 18 91.5t50.5 76t76.5 52t97 19.5zM331 689q-48 0 -89 -17.5t-70 -47.5t-45.5 -69.5t-16.5 -82.5
q0 -37 12 -70t35.5 -57.5t57 -38.5t76.5 -14q48 0 89 17.5t70 47.5t45.5 69.5t16.5 83.5q0 37 -12 69.5t-35.5 57t-57 38.5t-76.5 14z" />
    <glyph glyph-name="colon" unicode=":" horiz-adv-x="177" 
d="M89 103h20l-11 -103h-20zM122 419h20l-11 -103h-20z" />
    <glyph glyph-name="semicolon" unicode=";" horiz-adv-x="178" 
d="M122 419h20l-11 -103h-20zM89 103h20l-13 -124q-5 -52 -35.5 -73.5t-72.5 -21.5l2 20q34 0 57.5 17t28.5 58z" />
    <glyph glyph-name="less" unicode="&#x3c;" 
d="M54 274l2 20l527 194l-2 -22l-497 -182l459 -183l-2 -22z" />
    <glyph glyph-name="equal" unicode="=" 
d="M116 363l2 20h404l-2 -20h-404zM97 184l2 20h404l-2 -20h-404z" />
    <glyph glyph-name="greater" unicode="&#x3e;" 
d="M36 79l2 22l498 183l-459 182l2 22l487 -194l-3 -20z" />
    <glyph glyph-name="question" unicode="?" horiz-adv-x="482" 
d="M227 188q4 44 16 73.5t29.5 50t40 34.5t48.5 27q12 6 32.5 17.5t41 31.5t35 50.5t14.5 74.5q0 69 -41.5 107.5t-121.5 38.5q-53 0 -93.5 -16t-69 -43.5t-45.5 -63.5t-21 -76h-20q5 45 24 85t51 70t76 47t100 17q89 0 135 -43t46 -121q0 -49 -16 -83t-38.5 -56.5
t-45.5 -35t-36 -19.5q-24 -12 -44.5 -24.5t-36 -31t-26 -45.5t-14.5 -66h-20zM218 103h20l-11 -103h-20z" />
    <glyph glyph-name="at" unicode="@" horiz-adv-x="927" 
d="M638 127q-26 -55 -78.5 -90.5t-122.5 -35.5q-44 0 -78.5 15t-58.5 40.5t-36.5 59t-12.5 71.5q0 45 17 85.5t47 71.5t72 49.5t92 18.5q72 0 116.5 -35.5t59.5 -91.5l12 119h19l-36 -347q-5 -53 17.5 -78.5t55.5 -25.5q30 0 56 20.5t45.5 58.5t31 92.5t11.5 122.5
q0 181 -84.5 264t-245.5 83q-115 0 -200 -36.5t-141.5 -96t-84 -134.5t-27.5 -153q0 -69 22 -132.5t69 -112t119 -78t173 -29.5q27 0 62 3t75 10.5t82.5 21.5t83.5 36l9 -17q-42 -22 -84.5 -36.5t-83.5 -22.5t-78.5 -11.5t-67.5 -3.5q-105 0 -180.5 31t-124.5 82.5
t-72.5 118.5t-23.5 139q0 81 29 160t88 141.5t148 101t210 38.5q171 0 260 -88t89 -280q0 -73 -12.5 -131t-35 -98.5t-53 -62t-67.5 -21.5q-46 0 -70.5 32t-18.5 92zM440 19q45 0 83 17t66 45t43.5 65t15.5 78q0 34 -11.5 65t-33.5 54t-54 36.5t-72 13.5q-45 0 -83 -16.5
t-65.5 -45t-43 -65.5t-15.5 -77q0 -35 11.5 -65.5t33.5 -54t53.5 -37t71.5 -13.5z" />
    <glyph glyph-name="A" unicode="A" horiz-adv-x="521" 
d="M490 0l-39 162h-348l-72 -162h-21l314 700h21l166 -700h-21zM331 676l-219 -494h334z" />
    <glyph glyph-name="B" unicode="B" horiz-adv-x="568" 
d="M167 700h239q34 0 63.5 -13t50.5 -35t33 -51.5t12 -63.5q0 -32 -10.5 -62.5t-30 -56t-47 -44t-61.5 -24.5q27 -6 48.5 -20.5t36.5 -35.5t23 -46.5t8 -52.5q0 -40 -16.5 -75.5t-44 -62t-64 -42t-75.5 -15.5h-239zM149 340l-34 -320h219q35 0 67.5 14t57 37.5t39 55
t14.5 67.5q0 30 -10.5 56.5t-29 46.5t-43.5 31.5t-55 11.5h-225zM376 360q33 0 64 14.5t54 38.5t37 55.5t14 66.5q0 30 -10.5 56.5t-29.5 46t-45 31t-57 11.5h-219l-33 -320h225z" />
    <glyph glyph-name="C" unicode="C" horiz-adv-x="774" 
d="M748 187q-21 -43 -55 -79.5t-77.5 -63.5t-96 -42t-110.5 -15q-78 0 -138.5 26.5t-102 71.5t-63.5 105t-22 127q0 76 27.5 147t79 126.5t125 89t165.5 33.5q64 0 115.5 -17t90 -47t62 -72t31.5 -93h-20q-7 44 -29 82t-57.5 66.5t-84.5 44.5t-110 16q-87 0 -156.5 -31.5
t-118 -84t-74.5 -119.5t-26 -139q0 -63 20.5 -120t60 -99.5t97 -67.5t131.5 -25q54 0 102.5 13.5t88.5 37.5t71.5 57t51.5 72h22z" />
    <glyph glyph-name="D" unicode="D" horiz-adv-x="686" 
d="M349 700q81 0 142 -27t102.5 -71t62.5 -101.5t21 -118.5q0 -71 -28 -139.5t-80 -122.5t-126.5 -87t-167.5 -33h-182l74 700h182zM184 680l-69 -660h162q88 0 158 31t119.5 82t76 115.5t26.5 131.5q0 58 -20 112t-59 96t-97.5 67t-134.5 25h-162z" />
    <glyph glyph-name="E" unicode="E" horiz-adv-x="540" 
d="M184 680l-33 -322h339l-2 -20h-339l-34 -318h339l-2 -20h-359l74 700h359l-3 -20h-339z" />
    <glyph glyph-name="F" unicode="F" horiz-adv-x="538" 
d="M184 680l-35 -333h339l-2 -20h-339l-34 -327h-20l74 700h359l-3 -20h-339z" />
    <glyph glyph-name="G" unicode="G" horiz-adv-x="828" 
d="M474 296h350l-2 -20h-70q-12 -65 -41 -118t-72.5 -91t-101.5 -59t-130 -21q-83 0 -144 27t-101 72t-60 103.5t-20 121.5q0 78 28 150.5t80 128.5t124 89.5t161 33.5q54 0 98.5 -12.5t78.5 -35t56.5 -52.5t31.5 -65h-21q-9 29 -29.5 55.5t-52 46.5t-72.5 31.5t-92 11.5
q-84 0 -152 -32t-117 -84.5t-75.5 -121.5t-26.5 -142q0 -60 19 -115.5t57 -98t95.5 -67.5t135.5 -25q67 0 121 19.5t95 54.5t67.5 85t38.5 110h-259z" />
    <glyph glyph-name="H" unicode="H" horiz-adv-x="660" 
d="M583 338h-434l-36 -338h-20l74 700h20l-36 -342h434l36 342h20l-74 -700h-20z" />
    <glyph glyph-name="I" unicode="I" horiz-adv-x="206" 
d="M167 700h20l-74 -700h-20z" />
    <glyph glyph-name="J" unicode="J" horiz-adv-x="535" 
d="M479 205q-6 -52 -26 -92.5t-51 -68.5t-71 -42.5t-85 -14.5t-84.5 14.5t-68 42.5t-43 68.5t-8.5 92.5h20q-5 -47 8 -83.5t39 -62t62 -39t77 -13.5t77 13.5t64.5 39t46.5 62t23 83.5l52 495h20z" />
    <glyph glyph-name="K" unicode="K" horiz-adv-x="539" 
d="M150 350l-37 -350h-20l74 700h20l-37 -350l431 350h30l-431 -350l357 -350h-30z" />
    <glyph glyph-name="L" unicode="L" horiz-adv-x="414" 
d="M381 20l-2 -20h-286l74 700h20l-72 -680h266z" />
    <glyph glyph-name="M" unicode="M" horiz-adv-x="807" 
d="M714 0h-20l69 653l-349 -653h-21l-211 653l-69 -653h-20l74 700h21l218 -676l361 676h21z" />
    <glyph glyph-name="N" unicode="N" horiz-adv-x="659" 
d="M549 31l71 669h20l-74 -700h-24l-359 669l-70 -669h-20l74 700h24z" />
    <glyph glyph-name="O" unicode="O" horiz-adv-x="812" 
d="M408 -13q-79 0 -139.5 27t-102 72.5t-62.5 104.5t-21 124q0 76 28.5 148t80.5 127.5t125 89t161 33.5q79 0 139.5 -27t102 -72.5t62.5 -105t21 -123.5q0 -76 -28.5 -148t-80.5 -127.5t-125 -89t-161 -33.5zM409 7q84 0 152.5 32t118 84.5t76.5 120.5t27 140
q0 61 -20 116.5t-58.5 98.5t-95.5 68.5t-132 25.5q-84 0 -152.5 -32t-118 -84.5t-76.5 -120.5t-27 -140q0 -61 20 -117t58.5 -98.5t95.5 -68t132 -25.5z" />
    <glyph glyph-name="P" unicode="P" horiz-adv-x="595" 
d="M167 700h230q47 0 84 -15.5t62.5 -42.5t39 -63t13.5 -77q0 -48 -18 -91.5t-50.5 -76t-77.5 -52t-99 -19.5h-210l-28 -263h-20zM353 283q49 0 90.5 17.5t70.5 47.5t45.5 69t16.5 83q0 37 -12.5 70t-35.5 57.5t-57 38.5t-77 14h-210l-41 -397h210z" />
    <glyph glyph-name="Q" unicode="Q" horiz-adv-x="812" 
d="M803 380q0 -82 -30 -152t-81.5 -122t-120 -83t-145.5 -35l57 -95l-19 -9l-60 103q-77 0 -137 27.5t-101 72.5t-62 104t-21 124q0 76 28.5 148t81 127.5t125 89t161.5 33.5q78 0 138.5 -26.5t102 -72.5t62.5 -106.5t21 -127.5zM409 7q84 0 152.5 32t118 84.5t76.5 120.5
t27 140q0 61 -20 116.5t-58.5 98.5t-95.5 68.5t-132 25.5q-84 0 -152.5 -32t-118 -84.5t-76.5 -120.5t-27 -140q0 -61 20 -117t58.5 -98.5t95.5 -68t132 -25.5z" />
    <glyph glyph-name="R" unicode="R" horiz-adv-x="595" 
d="M167 700h230q47 0 84 -15.5t62.5 -42.5t39 -63t13.5 -77q0 -44 -14.5 -83t-41.5 -70.5t-64.5 -53t-82.5 -29.5l146 -266h-25l-143 263h-230l-28 -263h-20zM353 283q49 0 90.5 17.5t70.5 47.5t45.5 69t16.5 83q0 37 -12.5 70t-35.5 57.5t-57 38.5t-77 14h-210l-41 -397
h210z" />
    <glyph glyph-name="S" unicode="S" horiz-adv-x="575" 
d="M94 205q-4 -41 6 -77t35.5 -63t67 -42.5t99.5 -15.5q50 0 91.5 12t71 35.5t46 57t16.5 75.5q0 43 -16 70t-42 44t-58.5 26t-66.5 17q-41 9 -78 19.5t-66 28.5t-46 47t-17 76q0 42 15 78t44.5 62.5t73 42t101.5 15.5q104 0 154 -51t43 -150h-20q5 89 -40 135t-139 46
q-52 0 -91.5 -13.5t-66.5 -37.5t-40.5 -56t-13.5 -69q0 -41 16 -67t43 -42.5t62.5 -26t73.5 -17.5q37 -8 72 -18.5t62.5 -29t44 -49t16.5 -77.5q0 -48 -18 -85.5t-50.5 -64t-78 -40t-100.5 -13.5q-61 0 -105.5 16.5t-73 45.5t-40.5 69t-7 87h20z" />
    <glyph glyph-name="T" unicode="T" horiz-adv-x="465" 
d="M293 680h-204l2 20h429l-2 -20h-205l-71 -680h-20z" />
    <glyph glyph-name="U" unicode="U" horiz-adv-x="595" 
d="M151 700h20l-52 -495q-4 -41 6.5 -77t34 -63t58.5 -42.5t80 -15.5t83.5 16t67.5 43t47 63t22 76l52 495h20l-52 -495q-5 -44 -24.5 -83.5t-51.5 -69.5t-74.5 -47.5t-92.5 -17.5t-88.5 17t-64 47t-37 69.5t-6.5 84.5z" />
    <glyph glyph-name="V" unicode="V" horiz-adv-x="544" 
d="M283 0h-21l-180 700h21l172 -674l314 674h21z" />
    <glyph glyph-name="W" unicode="W" horiz-adv-x="907" 
d="M524 671l-264 -671h-21l-158 700h21l150 -673l265 673h21l123 -673l292 673h21l-306 -700h-21z" />
    <glyph glyph-name="X" unicode="X" horiz-adv-x="506" 
d="M543 700h23l-265 -350l191 -350h-23l-181 332l-251 -332h-23l264 350l-190 350h23l181 -333z" />
    <glyph glyph-name="Y" unicode="Y" horiz-adv-x="527" 
d="M157 0h-23l173 273l-227 427h24l216 -406l256 406h22z" />
    <glyph glyph-name="Z" unicode="Z" horiz-adv-x="527" 
d="M113 700h483l-538 -680h486l-2 -20h-524l537 680h-445z" />
    <glyph glyph-name="bracketleft" unicode="[" horiz-adv-x="275" 
d="M68 -234l108 1029h182l-2 -21h-162l-104 -988h162l-2 -20h-182z" />
    <glyph glyph-name="backslash" unicode="\" horiz-adv-x="385" 
d="M357 -68l-19 -8l-275 845l19 8z" />
    <glyph glyph-name="bracketright" unicode="]" horiz-adv-x="275" 
d="M-25 -234l2 20h162l104 988h-162l2 21h182l-108 -1029h-182z" />
    <glyph glyph-name="asciicircum" unicode="^" horiz-adv-x="608" 
d="M559 323l-180 404l-262 -404h-23l278 427h20l190 -427h-23z" />
    <glyph glyph-name="underscore" unicode="_" 
d="M23 -70l2 20h500l-2 -20h-500z" />
    <glyph glyph-name="grave" unicode="`" horiz-adv-x="260" 
d="M74 700l12 18l234 -137l-11 -18z" />
    <glyph glyph-name="a" unicode="a" horiz-adv-x="580" 
d="M531 419l-44 -419h-20l13 125q-28 -59 -83.5 -96.5t-129.5 -37.5q-47 0 -83.5 16t-62 43t-39 63t-13.5 77q0 48 18 91t50 75.5t76.5 52t97.5 19.5q76 0 123.5 -37.5t63.5 -97.5l13 126h20zM270 11q48 0 88.5 17.5t70 47.5t46 69t16.5 83q0 37 -12.5 70t-36 57.5t-57 38.5
t-76.5 14q-48 0 -88.5 -18t-70 -48t-45.5 -69.5t-16 -82.5q0 -37 12 -69.5t35.5 -57t57 -38.5t76.5 -14z" />
    <glyph glyph-name="b" unicode="b" horiz-adv-x="580" 
d="M113 0h-20l74 700h20l-43 -407q28 60 83.5 97.5t130.5 37.5q46 0 83 -15.5t62 -42.5t38.5 -63t13.5 -77q0 -48 -18 -91.5t-50 -76t-76.5 -52t-97.5 -19.5q-76 0 -123.5 37.5t-63.5 96.5zM315 11q48 0 88.5 17.5t70 47.5t45.5 69t16 83q0 37 -12 70t-35 57.5t-56.5 38.5
t-76.5 14q-48 0 -88.5 -17.5t-70 -47.5t-46 -69.5t-16.5 -83.5q0 -37 12 -69.5t35.5 -57t57 -38.5t76.5 -14z" />
    <glyph glyph-name="c" unicode="c" horiz-adv-x="514" 
d="M463 266q0 27 -8.5 52.5t-27 46t-48 32.5t-71.5 12q-52 0 -92 -18.5t-67 -49.5t-41 -70.5t-14 -81.5q0 -35 10 -67t31.5 -57t54.5 -39.5t78 -14.5q39 0 70 11t54 29t38.5 42t22.5 51h21q-17 -67 -71 -110t-138 -43q-50 0 -86 16t-59 43t-34.5 62.5t-11.5 74.5
q0 46 15.5 89.5t45.5 77.5t74 54.5t101 20.5q48 0 81.5 -14.5t54 -38t29.5 -52.5t8 -58h-20z" />
    <glyph glyph-name="d" unicode="d" horiz-adv-x="580" 
d="M480 125q-28 -59 -83.5 -96.5t-129.5 -37.5q-47 0 -83.5 16t-62 43t-39 63t-13.5 77q0 48 18 91t50 75.5t76.5 52t97.5 19.5q76 0 123.5 -37.5t63.5 -97.5l43 407h20l-74 -700h-20zM270 11q48 0 88.5 17.5t70 47.5t46 69t16.5 83q0 37 -12.5 70t-36 57.5t-57 38.5
t-76.5 14q-48 0 -88.5 -18t-70 -48t-45.5 -69.5t-16 -82.5q0 -37 12 -69.5t35.5 -57t57 -38.5t76.5 -14z" />
    <glyph glyph-name="e" unicode="e" horiz-adv-x="507" 
d="M297 409q-39 0 -72 -13t-58.5 -36.5t-43 -55.5t-24.5 -69h357q4 38 -6 70t-31 55t-52 36t-70 13zM96 215q-4 -40 4 -77t28 -65t53 -45t80 -17q33 0 61 8.5t50.5 22.5t38 32.5t24.5 39.5h21q-9 -25 -26.5 -47t-43 -39t-57.5 -27t-69 -10q-48 0 -83 16t-58 43t-34 63
t-11 76q0 49 16 93t45.5 76t71 51t91.5 19q41 0 74.5 -13t57 -36t36 -54.5t12.5 -68.5q0 -16 -1.5 -24.5t-3.5 -16.5h-377z" />
    <glyph glyph-name="f" unicode="f" horiz-adv-x="310" 
d="M377 675q-13 6 -24.5 8.5t-28.5 2.5q-20 0 -38.5 -4.5t-34 -18t-26.5 -38t-15 -65.5l-15 -141h155l-2 -20h-155l-42 -399h-20l42 399h-106l2 20h106l15 141q5 47 18 76t31 44.5t39.5 20.5t43.5 5q20 0 32.5 -3t24.5 -8z" />
    <glyph glyph-name="g" unicode="g" horiz-adv-x="580" 
d="M309 408q-48 0 -88.5 -17.5t-70 -47.5t-45.5 -69.5t-16 -82.5q0 -37 12 -70t35 -57.5t56.5 -38.5t76.5 -14q48 0 88.5 17.5t70 47.5t46 69.5t16.5 83.5q0 37 -12.5 69.5t-35.5 57t-56.5 38.5t-76.5 14zM482 -46q-7 -68 -27.5 -114.5t-52.5 -75.5t-73.5 -41.5t-90.5 -12.5
q-62 0 -101 17.5t-60.5 47t-28.5 68.5t-5 83h20q-2 -40 4.5 -75.5t26 -62.5t55.5 -42.5t92 -15.5q46 0 84 12t66.5 39t46.5 69.5t24 103.5l18 172q-28 -60 -83.5 -97.5t-130.5 -37.5q-47 0 -83.5 15.5t-61.5 42.5t-38.5 63t-13.5 77q0 48 18 91.5t50 76t76.5 52t97.5 19.5
q76 0 123.5 -37.5t63.5 -96.5l13 125h20z" />
    <glyph glyph-name="h" unicode="h" horiz-adv-x="554" 
d="M167 700h20l-43 -409q10 26 28.5 51t44 44t57.5 30.5t70 11.5t68.5 -12t50.5 -36q42 -47 33 -138l-25 -242h-20l25 240q4 36 -2.5 66.5t-23.5 53t-44.5 35.5t-65.5 13q-48 0 -84.5 -19t-62.5 -48.5t-40.5 -64t-17.5 -64.5l-22 -212h-20z" />
    <glyph glyph-name="i" unicode="i" horiz-adv-x="206" 
d="M161 648h20l-11 -103h-20zM137 419h20l-44 -419h-20z" />
    <glyph glyph-name="j" unicode="j" horiz-adv-x="206" 
d="M161 648h20l-11 -103h-20zM96 -161q-6 -58 -35.5 -91.5t-82.5 -33.5q-14 0 -27 2.5t-28 10.5l2 23q26 -16 55 -16q44 0 67.5 28t28.5 77l61 580h20z" />
    <glyph glyph-name="k" unicode="k" horiz-adv-x="410" 
d="M168 209l224 -209h-33l-224 209l-22 -209h-20l74 700h20l-52 -491l268 210h33z" />
    <glyph glyph-name="l" unicode="l" horiz-adv-x="206" 
d="M167 700h20l-74 -700h-20z" />
    <glyph glyph-name="m" unicode="m" horiz-adv-x="787" 
d="M682 0l27 260q4 43 -3.5 71.5t-22.5 45.5t-36.5 24t-43.5 7q-39 0 -69.5 -17.5t-52.5 -45.5t-34.5 -63t-16.5 -70l-22 -212h-20l25 236q6 55 -2 88.5t-24 52t-36.5 25t-40.5 6.5q-41 0 -72 -18.5t-53 -47t-34.5 -63t-15.5 -67.5l-22 -212h-20l44 419h20l-14 -129
q7 27 22 52t36 44t48.5 30.5t60.5 11.5q57 0 91 -35t32 -103q7 26 22 50.5t37 44t50.5 31.5t63.5 12q24 0 48.5 -7.5t43 -26t28 -50.5t4.5 -81l-28 -263h-20z" />
    <glyph glyph-name="n" unicode="n" horiz-adv-x="554" 
d="M137 419h20l-13 -128q10 26 28.5 51t44 44t57.5 30.5t70 11.5t68.5 -12t50.5 -36q42 -47 33 -138l-25 -242h-20l25 240q4 36 -2.5 66.5t-23.5 53t-44.5 35.5t-65.5 13q-48 0 -84.5 -19t-62.5 -48.5t-40.5 -64t-17.5 -64.5l-22 -212h-20z" />
    <glyph glyph-name="o" unicode="o" horiz-adv-x="535" 
d="M268 -9q-48 0 -85 15.5t-62.5 42.5t-38.5 63t-13 77q0 48 18 91.5t50 76t76 52t97 19.5q47 0 84.5 -15.5t63.5 -42.5t39.5 -63t13.5 -77q0 -48 -18.5 -91.5t-50.5 -76t-77 -52t-97 -19.5zM270 11q48 0 88.5 17.5t70 47.5t46 69t16.5 83q0 37 -12.5 70t-36 57.5t-57 38.5
t-76.5 14q-48 0 -88.5 -18t-70 -48t-45.5 -69.5t-16 -82.5q0 -37 12 -69.5t35.5 -57t57 -38.5t76.5 -14z" />
    <glyph glyph-name="p" unicode="p" horiz-adv-x="580" 
d="M143 294q29 59 84.5 96.5t129.5 37.5q47 0 83.5 -16t62 -43t39 -63t13.5 -76q0 -48 -18 -91.5t-50 -76t-76.5 -52t-97.5 -19.5q-76 0 -124 37.5t-63 97.5l-43 -407h-20l74 700h20zM354 408q-48 0 -89 -17.5t-70 -47.5t-45.5 -69.5t-16.5 -82.5q0 -37 12.5 -70t36 -57.5
t57 -38.5t76.5 -14q48 0 88.5 17.5t69.5 47.5t45.5 69t16.5 83q0 37 -12 70t-35.5 57.5t-57 38.5t-76.5 14z" />
    <glyph glyph-name="q" unicode="q" horiz-adv-x="580" 
d="M511 419h20l-73 -700h-20l43 407q-29 -60 -84.5 -97.5t-130.5 -37.5q-47 0 -83.5 15.5t-61.5 42.5t-38.5 63t-13.5 77q0 48 18 91.5t50 76t76.5 52t97.5 19.5q76 0 123.5 -37.5t63.5 -96.5zM309 408q-48 0 -88.5 -17.5t-70 -47.5t-45.5 -69.5t-16 -82.5q0 -37 12 -70
t35 -57.5t56.5 -38.5t76.5 -14q48 0 88.5 17.5t70.5 47.5t46.5 69.5t16.5 83.5q0 37 -12.5 69.5t-36 57t-57 38.5t-76.5 14z" />
    <glyph glyph-name="r" unicode="r" horiz-adv-x="327" 
d="M369 400q-13 4 -21.5 5t-16.5 1q-48 0 -83.5 -21t-60 -52.5t-38 -69t-16.5 -70.5l-20 -193h-20l44 419h20l-14 -134q32 76 83 108.5t104 32.5q12 0 22.5 -1.5t18.5 -5.5z" />
    <glyph glyph-name="s" unicode="s" horiz-adv-x="446" 
d="M248 221q30 -5 57.5 -10t48.5 -16t33.5 -29.5t12.5 -49.5q0 -56 -42 -90.5t-127 -34.5q-37 0 -69 8t-54.5 26t-34 46.5t-6.5 70.5h20q-4 -36 6 -61t30 -40.5t48 -22.5t61 -7q73 0 110.5 28.5t37.5 73.5q0 25 -11 40.5t-30 24.5t-44 14t-53 9q-29 4 -55 9t-46 15.5
t-32 28.5t-12 48q0 59 44.5 92.5t119.5 33.5q36 0 65.5 -8.5t49.5 -25.5t29.5 -43t5.5 -60h-20q3 30 -5 52t-25.5 36.5t-43 21.5t-56.5 7q-64 0 -104 -28.5t-40 -76.5q0 -22 9 -36t26 -22.5t41.5 -14t54.5 -9.5z" />
    <glyph glyph-name="t" unicode="t" horiz-adv-x="306" 
d="M306 0q-13 -2 -33 -4t-38 -2q-26 0 -46.5 5.5t-34 21t-19 44t-0.5 73.5l27 261h-100l2 20h100l20 188h20l-20 -188h150l-2 -20h-150l-27 -261q-4 -40 1.5 -64.5t17.5 -37.5t28.5 -17.5t35.5 -4.5q16 0 35.5 2t34.5 4z" />
    <glyph glyph-name="u" unicode="u" horiz-adv-x="551" 
d="M502 419l-44 -419h-20l13 128q-11 -26 -29 -51t-43 -44t-57 -30.5t-70 -11.5t-69 12t-51 36q-43 48 -34 138l25 242h21l-25 -240q-4 -36 2.5 -67t23.5 -53.5t44.5 -35t65.5 -12.5q48 0 84.5 19t62 48.5t40 64t17.5 64.5l22 212h21z" />
    <glyph glyph-name="v" unicode="v" horiz-adv-x="446" 
d="M80 419l145 -393l228 393h23l-244 -419h-20l-154 419h22z" />
    <glyph glyph-name="w" unicode="w" horiz-adv-x="675" 
d="M378 393l-181 -393h-20l-117 419h21l107 -395l183 395h21l98 -395l192 395h21l-205 -419h-20z" />
    <glyph glyph-name="x" unicode="x" horiz-adv-x="421" 
d="M383 0h-24l-129 194l-168 -194h-24l182 209l-138 210h24l128 -194l169 194h24l-183 -210z" />
    <glyph glyph-name="y" unicode="y" horiz-adv-x="557" 
d="M247 -290q-54 0 -88.5 13.5t-54 40.5t-25 66.5t-1.5 91.5h20q-4 -47 1.5 -82.5t23 -60t48.5 -37t79 -12.5q43 0 76 11t56.5 35.5t38 64.5t20.5 97l20 190q-11 -27 -28.5 -51.5t-42 -43.5t-57.5 -30.5t-76 -11.5q-38 0 -67.5 10.5t-50.5 33.5q-22 24 -28.5 58.5t-0.5 93.5
l24 232h20l-24 -230q-9 -84 20 -131t109 -47q52 0 90.5 19t64 48t39.5 63.5t17 65.5l22 212h20l-51 -481q-7 -63 -23 -106.5t-42 -70.5t-63 -39t-86 -12z" />
    <glyph glyph-name="z" unicode="z" horiz-adv-x="423" 
d="M427 419l-353 -399h314l-2 -20h-356l352 399h-295l2 20h338z" />
    <glyph glyph-name="braceleft" unicode="{" horiz-adv-x="300" 
d="M393 794l-2 -20h-51q-21 0 -42.5 -7.5t-40 -22t-31 -37t-15.5 -52.5l-30 -282q-2 -22 -11 -39t-21.5 -29.5t-27 -21.5t-29.5 -14q13 -5 26 -14.5t22.5 -23.5t14.5 -32t3 -41l-26 -253q-3 -30 5 -52.5t23 -37t35 -22t41 -7.5h51l-2 -20h-51q-24 0 -47.5 8.5t-41.5 25.5
t-27.5 43.5t-5.5 61.5l26 253q3 26 -5 45t-21 31.5t-28 18.5t-27 6l2 20q12 0 28.5 6t32 17.5t27 29t14.5 41.5l30 282q4 35 19 61t36 43.5t46.5 26t49.5 8.5h51z" />
    <glyph glyph-name="bar" unicode="|" horiz-adv-x="206" 
d="M68 -234l108 1028h20l-108 -1028h-20z" />
    <glyph glyph-name="braceright" unicode="}" horiz-adv-x="300" 
d="M124 794q24 0 47.5 -8.5t41.5 -26t27.5 -43.5t5.5 -61l-29 -282q-3 -24 5 -41.5t21 -29t28.5 -17.5t27.5 -6l-2 -20q-12 0 -28.5 -6t-32.5 -18.5t-27.5 -31.5t-14.5 -45l-26 -253q-4 -35 -19 -61.5t-36.5 -43.5t-47 -25.5t-49.5 -8.5h-51l2 20h51q21 0 43 7.5t40 22
t31 37t16 52.5l26 253q3 24 12 42.5t22 32t27.5 22.5t28.5 14q-14 5 -27 14t-22.5 21.5t-14.5 29.5t-3 39l29 282q3 30 -5 52.5t-23 37t-35 22t-41 7.5h-51l2 20h51z" />
    <glyph glyph-name="asciitilde" unicode="~" horiz-adv-x="492" 
d="M59 304q25 23 51 32t49 9q26 0 55.5 -9.5t58.5 -22.5q30 -13 56 -24.5t51 -11.5q31 0 60.5 17t52.5 36l-3 -25q-26 -20 -55 -34t-58 -14q-20 0 -44 9t-70 29q-24 11 -52 20.5t-53 9.5q-24 0 -51.5 -11.5t-50.5 -36.5z" />
    <glyph glyph-name="exclamdown" unicode="&#xa1;" horiz-adv-x="257" 
d="M144 253h20l-56 -534h-20zM165 453h20l-11 -103h-20z" />
    <glyph glyph-name="cent" unicode="&#xa2;" horiz-adv-x="514" 
d="M463 266q0 27 -8.5 52.5t-27 46t-48 32.5t-71.5 12q-52 0 -92 -18.5t-67 -49.5t-41 -70.5t-14 -81.5q0 -35 10 -67t31.5 -57t54.5 -39.5t78 -14.5q39 0 70 11t54 29t38.5 42t22.5 51h21q-8 -31 -24.5 -58t-41.5 -47.5t-59 -33t-77 -14.5l-11 -111h-20l11 111
q-45 1 -78 17.5t-55.5 43.5t-33.5 62t-11 73q0 45 15 88t44 76.5t71 54.5t95 23l11 110h20l-11 -110q46 -2 77.5 -16.5t51 -37t27.5 -51t8 -58.5h-20z" />
    <glyph glyph-name="sterling" unicode="&#xa3;" horiz-adv-x="613" 
d="M179 539q-10 -29 -13 -60t-6 -60h238l-2 -20h-238l-20 -190q-4 -36 -9 -63.5t-12 -50t-17 -40.5t-23 -35h404l-2 -20h-428l2 20q14 17 24.5 34t18 39t13 50t9.5 66l20 190h-68l2 20h68l7 68q4 45 24 84.5t51.5 69.5t74 47.5t92.5 17.5q49 0 88 -17t64.5 -46.5t37.5 -69.5
t7 -86h-20q4 40 -6 76.5t-33.5 63.5t-58.5 43t-80 16q-37 0 -70 -10.5t-60 -30t-47.5 -46.5t-31.5 -60z" />
    <glyph glyph-name="currency" unicode="&#xa4;" horiz-adv-x="833" 
d="M531 207q-31 -26 -70 -40.5t-86 -14.5t-83 15.5t-61 41.5l-85 -77l-13 14l85 77q-20 25 -30 58t-10 68q0 48 18.5 91t52.5 78l-69 77l16 14l69 -77q30 26 69.5 41.5t86.5 15.5t83 -14.5t62 -40.5l83 75l12 -14l-83 -75q20 -26 31 -59.5t11 -69.5q0 -50 -19 -93t-54 -77
l67 -75l-15 -14zM379 172q48 0 89 17.5t70 47.5t45.5 69t16.5 83q0 37 -12.5 70t-36 57.5t-57 38.5t-76.5 14q-48 0 -88.5 -18t-70 -48t-45.5 -69.5t-16 -82.5q0 -37 12 -69.5t35.5 -57t57 -38.5t76.5 -14z" />
    <glyph glyph-name="yen" unicode="&#xa5;" horiz-adv-x="630" 
d="M100 700l248 -418l330 418h23l-345 -433h193l-1 -18h-193l-13 -122h193l-2 -20h-193l-12 -107h-20l12 107h-191l2 20h191l13 122h-191l1 18h191l-259 433h23z" />
    <glyph glyph-name="brokenbar" unicode="&#xa6;" horiz-adv-x="206" 
d="M125 310l51 484h20l-51 -484h-20zM139 250l-51 -484h-20l51 484h20z" />
    <glyph glyph-name="section" unicode="&#xa7;" horiz-adv-x="578" 
d="M276 133q-43 12 -77 23t-58 26t-37 36.5t-13 54.5q0 30 11 55.5t29 44.5t41 30.5t47 14.5q-30 18 -50.5 49.5t-20.5 80.5q0 45 18.5 80t50 58.5t74 35.5t89.5 12q54 0 94.5 -15t66.5 -42t37.5 -64t7.5 -81h-20q3 40 -7 73.5t-34 57.5t-60.5 37.5t-85.5 13.5
q-42 0 -80.5 -10.5t-67.5 -31t-46 -51t-17 -71.5q0 -42 17.5 -68.5t46 -43.5t64.5 -28t74 -21q48 -13 83 -25t58 -27.5t34 -36t11 -50.5t-10 -55t-27 -44t-38.5 -31.5t-44.5 -17.5q46 -21 66.5 -51t20.5 -79q0 -48 -18 -81.5t-48.5 -55t-72 -31.5t-89.5 -10q-66 0 -113.5 17
t-76.5 47t-41 69.5t-8 84.5h20q-4 -44 8 -80.5t39.5 -62.5t71 -40.5t103.5 -14.5q42 0 79.5 8t65 26.5t44 48t16.5 72.5q0 36 -13 60t-40.5 41.5t-70.5 31.5t-103 31zM536 250q0 26 -11 44t-32.5 30.5t-53.5 23t-73 21.5l-119 33q-35 0 -60 -11.5t-41.5 -30t-24.5 -41.5
t-8 -45q0 -24 9.5 -41.5t28.5 -31t48.5 -24t69.5 -21.5l146 -39q19 0 40.5 10t39.5 28t29.5 42.5t11.5 52.5z" />
    <glyph glyph-name="dieresis" unicode="&#xa8;" horiz-adv-x="438" 
d="M400 715h20l-11 -103h-20zM169 715h20l-11 -103h-20z" />
    <glyph glyph-name="copyright" unicode="&#xa9;" horiz-adv-x="810" 
d="M407 -17q-78 0 -138.5 27.5t-102 73t-62.5 105.5t-21 125q0 77 29 149.5t81 129t125 90.5t160 34q78 0 138.5 -27.5t101.5 -73t62 -105.5t21 -125q0 -77 -29 -150t-81 -129t-124.5 -90t-159.5 -34zM623 252q-12 -24 -31.5 -46t-45.5 -38.5t-58 -26t-68 -9.5
q-47 0 -83.5 15.5t-61.5 42.5t-38 63t-13 77q0 46 16.5 89t47.5 76t75 53t99 20q77 0 123.5 -38t56.5 -100h-20q-9 50 -50.5 84t-112.5 34q-50 0 -90 -18.5t-67.5 -48.5t-42.5 -69t-15 -80q0 -37 12 -69.5t34.5 -57t55.5 -39t75 -14.5q61 0 108.5 28t71.5 72h22zM408 3
q83 0 151.5 32t118 85.5t76.5 122t27 141.5q0 61 -20 118t-58.5 100t-95 69t-130.5 26q-83 0 -151.5 -32t-118 -85.5t-77 -122t-27.5 -141.5q0 -62 20 -118.5t58.5 -99.5t95.5 -69t131 -26z" />
    <glyph glyph-name="ordfeminine" unicode="&#xaa;" horiz-adv-x="580" 
d="M531 419l-44 -419h-20l13 125q-28 -59 -83.5 -96.5t-129.5 -37.5q-47 0 -83.5 16t-62 43t-39 63t-13.5 77q0 48 18 91t50 75.5t76.5 52t97.5 19.5q76 0 123.5 -37.5t63.5 -97.5l13 126h20zM270 11q48 0 88.5 17.5t70 47.5t46 69t16.5 83q0 37 -12.5 70t-36 57.5t-57 38.5
t-76.5 14q-48 0 -88.5 -18t-70 -48t-45.5 -69.5t-16 -82.5q0 -37 12 -69.5t35.5 -57t57 -38.5t76.5 -14z" />
    <glyph glyph-name="guillemotleft" unicode="&#xab;" horiz-adv-x="472" 
d="M444 105l-178 176l2 20l215 176l-3 -27l-193 -159l159 -159zM248 105l-178 176l2 20l215 176l-3 -27l-193 -159l159 -159z" />
    <glyph glyph-name="logicalnot" unicode="&#xac;" 
d="M491 278h-384l2 19h404l-17 -157h-20z" />
    <glyph glyph-name="uni00AD" unicode="&#xad;" horiz-adv-x="294" 
d="M293 275h-234l2 20h234z" />
    <glyph glyph-name="registered" unicode="&#xae;" horiz-adv-x="820" 
d="M412 -17q-80 0 -141.5 27.5t-103 73t-63 105.5t-21.5 125q0 77 29 149.5t82 129t126.5 90.5t162.5 34q80 0 141 -27.5t102.5 -73t63 -105.5t21.5 -125q0 -77 -29 -150t-81.5 -129t-126 -90t-162.5 -34zM413 3q84 0 154 32t119.5 85.5t77 122t27.5 141.5q0 61 -20 118
t-59.5 100t-97.5 69t-133 26q-84 0 -154 -32t-119.5 -85.5t-77 -122t-27.5 -141.5q0 -62 20 -118.5t59.5 -99.5t97.5 -69t133 -26zM314 161l43 407h134q27 0 48 -9.5t35.5 -25t22 -36.5t7.5 -45q0 -25 -8.5 -47.5t-23.5 -40.5t-36.5 -30.5t-47.5 -16.5l85 -156h-24l-85 154
h-114l-16 -154h-20zM467 335q26 0 47.5 9t37 25t24 37t8.5 44q0 40 -25 69t-70 29h-114l-22 -213h114z" />
    <glyph glyph-name="macron" unicode="&#xaf;" horiz-adv-x="503" 
d="M507 723h-358l2 20h358z" />
    <glyph glyph-name="degree" unicode="&#xb0;" horiz-adv-x="336" 
d="M372 587q0 -32 -13 -60.5t-34.5 -49.5t-50.5 -33.5t-60 -12.5q-29 0 -52.5 10t-41 27.5t-27 41.5t-9.5 51q0 32 13 60.5t34.5 49.5t50 33.5t60.5 12.5q28 0 52 -10t41.5 -27.5t27 -41.5t9.5 -51zM352 585q0 48 -31 80t-81 32q-27 0 -51.5 -10.5t-43.5 -28.5t-30 -42.5
t-11 -52.5q0 -48 31 -80t81 -32q27 0 51.5 10.5t43.5 28.5t30 42.5t11 52.5z" />
    <glyph glyph-name="plusminus" unicode="&#xb1;" 
d="M294 227l19 181h-182l2 20h182l19 183h20l-19 -183h182l-2 -20h-182l-19 -181h-20zM98 97l2 19h384l-2 -19h-384z" />
    <glyph glyph-name="twosuperior" unicode="&#xb2;" horiz-adv-x="349" 
d="M89 315q6 49 16.5 79.5t27.5 50t41 32t56 24.5q18 6 37 14t34 20t25 29t10 42q0 38 -22.5 59t-63.5 21q-48 0 -77.5 -28.5t-34.5 -72.5h-21q3 25 13.5 46.5t27.5 38t41 26t54 9.5q51 0 77.5 -26t26.5 -71q0 -30 -11 -50.5t-28.5 -34.5t-38.5 -23t-41 -16
q-31 -11 -52.5 -22.5t-36 -28t-23 -40t-12.5 -59.5h218l-2 -19h-241v0z" />
    <glyph glyph-name="threesuperior" unicode="&#xb3;" horiz-adv-x="355" 
d="M113 420q-5 -41 20.5 -66t72.5 -25q49 0 80 27t31 69q0 35 -23.5 57t-66.5 22h-31l2 19h31q47 0 74.5 25t27.5 63q0 35 -23 55t-65 20q-45 0 -73 -23.5t-32 -61.5h-21q5 47 39.5 75.5t87.5 28.5q49 0 78 -25.5t29 -67.5q0 -34 -21 -62t-65 -36q38 -7 55.5 -31.5
t17.5 -56.5q0 -51 -38 -83.5t-97 -32.5q-55 0 -85.5 30t-25.5 80h21z" />
    <glyph glyph-name="acute" unicode="&#xb4;" horiz-adv-x="260" 
d="M70 563l-8 18l263 137l9 -18z" />
    <glyph glyph-name="uni00B5" unicode="&#xb5;" 
d="M135 419h19l-25 -240q-4 -36 3 -67t24 -53.5t44.5 -35t65.5 -12.5q48 0 84.5 19t62 48.5t40 64t17.5 64.5l22 212h21l-44 -419h-20l13 128q-11 -26 -29 -51t-43.5 -44t-57.5 -30.5t-70 -11.5q-52 0 -89 22t-54 65l-38 -359h-20z" />
    <glyph glyph-name="paragraph" unicode="&#xb6;" horiz-adv-x="608" 
d="M266 329q-43 0 -79.5 10t-62.5 31.5t-41 55t-15 80.5q0 46 13.5 79.5t36 57t51.5 38t59 22.5t59 11t52 3h281l-2 -20h-53l-89 -845h-20l89 844h-221l-89 -844h-20zM89 509q0 -41 13.5 -70.5t37.5 -48.5t56.5 -28.5t71.5 -12.5l36 347q-34 -2 -71.5 -11.5t-69.5 -31
t-53 -57t-21 -87.5z" />
    <glyph glyph-name="periodcentered" unicode="&#xb7;" horiz-adv-x="177" 
d="M116 364h20l-11 -103h-20z" />
    <glyph glyph-name="cedilla" unicode="&#xb8;" horiz-adv-x="248" 
d="M58 0h20l-9 -90q11 19 29.5 29t41.5 10q35 0 57.5 -24t22.5 -59q0 -20 -7.5 -38t-21 -32t-32.5 -22t-41 -8q-42 0 -64 27t-18 65h20q-3 -29 14 -50.5t50 -21.5q35 0 57.5 23.5t22.5 55.5q0 26 -17 45t-50 19q-15 0 -32.5 -8t-34.5 -39h-20z" />
    <glyph glyph-name="onesuperior" unicode="&#xb9;" horiz-adv-x="224" 
d="M191 629q-11 -13 -30 -17t-48 -4l2 20q27 0 43 4t24 12.5t11.5 22t5.5 33.5h20l-41 -385h-20z" />
    <glyph glyph-name="ordmasculine" unicode="&#xba;" horiz-adv-x="535" 
d="M268 -9q-48 0 -85 15.5t-62.5 42.5t-38.5 63t-13 77q0 48 18 91.5t50 76t76 52t97 19.5q47 0 84.5 -15.5t63.5 -42.5t39.5 -63t13.5 -77q0 -48 -18.5 -91.5t-50.5 -76t-77 -52t-97 -19.5zM270 11q48 0 88.5 17.5t70 47.5t46 69t16.5 83q0 37 -12.5 70t-36 57.5t-57 38.5
t-76.5 14q-48 0 -88.5 -18t-70 -48t-45.5 -69.5t-16 -82.5q0 -37 12 -69.5t35.5 -57t57 -38.5t76.5 -14z" />
    <glyph glyph-name="guillemotright" unicode="&#xbb;" horiz-adv-x="472" 
d="M54 132l193 159l-160 159l3 27l178 -176l-3 -20l-214 -176zM250 132l193 159l-160 159l3 27l178 -176l-3 -20l-214 -176z" />
    <glyph glyph-name="onequarter" unicode="&#xbc;" horiz-adv-x="813" 
d="M688 142h-150l26 243h21l-24 -223h129l13 126h21l-13 -126h69l-2 -20h-69l-15 -142h-21zM617 777l17 -8l-453 -845l-17 8zM192 629q-11 -13 -30 -17t-48 -4l2 20q27 0 43 4t24 12.5t11.5 22t5.5 33.5h20l-41 -385h-20z" />
    <glyph glyph-name="onehalf" unicode="&#xbd;" horiz-adv-x="813" 
d="M192 629q-11 -13 -30 -17t-48 -4l2 20q27 0 43 4t24 12.5t11.5 22t5.5 33.5h20l-41 -385h-20zM617 777l17 -8l-453 -845l-17 8zM522 0q6 49 16.5 79.5t27.5 50t41 32t56 24.5q18 6 37 14t34 20t25 29t10 42q0 38 -22.5 59t-63.5 21q-48 0 -77.5 -28.5t-34.5 -72.5h-21
q3 25 13.5 46.5t27.5 38t41 26t54 9.5q51 0 77.5 -26t26.5 -71q0 -30 -11 -50.5t-28.5 -34.5t-38.5 -23t-41 -16q-31 -11 -52.5 -22.5t-36 -28t-23 -40t-12.5 -59.5h218l-2 -19h-241z" />
    <glyph glyph-name="threequarters" unicode="&#xbe;" horiz-adv-x="813" 
d="M115 420q-5 -41 20.5 -66t72.5 -25q49 0 80 27t31 69q0 35 -23.5 57t-66.5 22h-31l2 19h31q47 0 74.5 25t27.5 63q0 35 -23 55t-65 20q-45 0 -73 -23.5t-32 -61.5h-21q5 47 39.5 75.5t87.5 28.5q49 0 78 -25.5t29 -67.5q0 -34 -21 -62t-65 -36q38 -7 55.5 -31.5
t17.5 -56.5q0 -51 -38 -83.5t-97 -32.5q-55 0 -85.5 30t-25.5 80h21zM688 142h-150l25 243h21l-23 -223h129l13 126h21l-13 -126h69l-2 -20h-69l-15 -142h-21zM650 777l18 -8l-453 -845l-17 8z" />
    <glyph glyph-name="questiondown" unicode="&#xbf;" horiz-adv-x="482" 
d="M300 232q-5 -44 -17 -73.5t-29.5 -50t-40 -34.5t-48.5 -27q-12 -6 -32.5 -17.5t-41 -31.5t-35 -50.5t-14.5 -74.5q0 -69 41.5 -107.5t121.5 -38.5q52 0 93 16t70 43.5t45.5 63.5t20.5 76h20q-5 -45 -24 -85t-50.5 -70t-76 -47t-100.5 -17q-89 0 -135 43t-46 121
q0 49 16 82.5t38.5 56t45 35.5t36.5 20q24 12 44.5 24.5t36 31t26.5 45.5t15 66h20zM301 437h20l-11 -103h-20z" />
    <glyph glyph-name="Agrave" unicode="&#xc0;" horiz-adv-x="521" 
d="M511 0h-21l-39 162h-348l-72 -162h-21l314 700h21zM112 182h334l-115 494zM224 887l12 18l235 -137l-12 -18z" />
    <glyph glyph-name="Aacute" unicode="&#xc1;" horiz-adv-x="521" 
d="M511 0h-21l-39 162h-348l-72 -162h-21l314 700h21zM112 182h334l-115 494zM220 749l-8 18l263 137l8 -18z" />
    <glyph glyph-name="Acircumflex" unicode="&#xc2;" horiz-adv-x="521" 
d="M511 0h-21l-39 162h-348l-72 -162h-21l314 700h21zM112 182h334l-115 494zM356 913l155 -145l-14 -16l-144 135l-171 -135l-11 16z" />
    <glyph glyph-name="Atilde" unicode="&#xc3;" horiz-adv-x="521" 
d="M511 0h-21l-39 162h-348l-72 -162h-21l314 700h21zM112 182h334l-115 494zM423 809q26 0 50 18.5t35 45.5l19 -7q-17 -37 -46.5 -56t-59.5 -19q-24 0 -40.5 10t-31 22t-29 22t-33.5 10q-26 0 -50 -18.5t-35 -45.5l-19 7q17 37 46.5 56t59.5 19q24 0 40.5 -10t31 -22
t29 -22t33.5 -10z" />
    <glyph glyph-name="Adieresis" unicode="&#xc4;" horiz-adv-x="521" 
d="M455 858h20l-11 -103h-20zM224 858h20l-11 -103h-20zM511 0h-21l-39 162h-348l-72 -162h-21l314 700h21zM112 182h334l-115 494z" />
    <glyph glyph-name="Aring" unicode="&#xc5;" horiz-adv-x="521" 
d="M511 0h-21l-39 162h-348l-72 -162h-21l314 700h21zM112 182h334l-115 494zM363 976q24 0 44.5 -9t35.5 -24t23 -35.5t8 -43.5q0 -27 -11 -51.5t-30 -42.5t-43 -29t-51 -11q-24 0 -44.5 9t-35.5 24.5t-23.5 36t-8.5 43.5q0 27 11.5 51t30 42.5t43 29t51.5 10.5zM360 956
q-22 0 -42.5 -9t-36 -24t-25 -35.5t-9.5 -43.5q0 -19 7 -36t19.5 -30t29.5 -20.5t37 -7.5q22 0 43 9t36.5 24.5t25 35.5t9.5 43q0 19 -7 36t-19.5 30t-29.5 20.5t-38 7.5z" />
    <glyph glyph-name="AE" unicode="&#xc6;" horiz-adv-x="810" 
d="M454 680l-33 -322h339l-2 -20h-339l-34 -318h339l-2 -20h-359l17 162h-255l-100 -162h-22l434 700h359l-3 -20h-339zM382 182l50 475l-294 -475h244z" />
    <glyph glyph-name="Ccedilla" unicode="&#xc7;" horiz-adv-x="774" 
d="M759 484q-7 44 -29 82t-57.5 66.5t-84.5 44.5t-110 16q-87 0 -156.5 -31.5t-118 -84t-74.5 -119.5t-26 -139q0 -63 20.5 -120t60 -99.5t97 -67.5t131.5 -25q54 0 102.5 13.5t88.5 37.5t71.5 57t51.5 72h22q-21 -43 -55 -79.5t-77.5 -63.5t-95 -42t-107.5 -15
q-12 0 -18.5 0.5t-14.5 0.5l-8 -74q10 15 29 24.5t42 9.5q36 0 56 -22t20 -53q0 -38 -27.5 -65t-70.5 -27q-38 0 -58.5 21.5t-21.5 50.5h21q1 -22 16 -37.5t44 -15.5q35 0 56 21t21 50q0 23 -15 40t-46 17q-16 0 -35 -7.5t-33 -33.5h-20l10 103q-67 8 -118.5 37t-87 72.5
t-53.5 99t-18 117.5q0 76 27.5 147.5t79 127t125 89t165.5 33.5q64 0 115.5 -17t90 -47t62 -72t31.5 -93h-20z" />
    <glyph glyph-name="Egrave" unicode="&#xc8;" horiz-adv-x="540" 
d="M184 680l-33 -322h339l-2 -20h-339l-34 -318h339l-2 -20h-359l74 700h359l-3 -20h-339zM243 886l12 18l235 -137l-12 -18z" />
    <glyph glyph-name="Eacute" unicode="&#xc9;" horiz-adv-x="540" 
d="M184 680l-33 -322h339l-2 -20h-339l-34 -318h339l-2 -20h-359l74 700h359l-3 -20h-339zM249 750l-8 18l263 137l8 -18z" />
    <glyph glyph-name="Ecircumflex" unicode="&#xca;" horiz-adv-x="540" 
d="M184 680l-33 -322h339l-2 -20h-339l-34 -318h339l-2 -20h-359l74 700h359l-3 -20h-339zM375 913l155 -145l-14 -16l-144 135l-171 -135l-11 16z" />
    <glyph glyph-name="Edieresis" unicode="&#xcb;" horiz-adv-x="540" 
d="M239 858h20l-11 -103h-20zM470 858h20l-11 -103h-20zM184 680l-33 -322h339l-2 -20h-339l-34 -318h339l-2 -20h-359l74 700h359l-3 -20h-339z" />
    <glyph glyph-name="Igrave" unicode="&#xcc;" horiz-adv-x="206" 
d="M166 700h20l-73 -700h-20zM67 886l12 18l234 -137l-11 -18z" />
    <glyph glyph-name="Iacute" unicode="&#xcd;" horiz-adv-x="206" 
d="M167 700h20l-74 -700h-20zM63 750l-8 18l263 137l9 -18z" />
    <glyph glyph-name="Icircumflex" unicode="&#xce;" horiz-adv-x="206" 
d="M167 700h20l-74 -700h-20zM199 913l155 -145l-14 -16l-143 135l-172 -135l-11 16z" />
    <glyph glyph-name="Idieresis" unicode="&#xcf;" horiz-adv-x="206" 
d="M298 858h20l-11 -103h-20zM67 858h20l-11 -103h-20zM166 700h20l-73 -700h-20z" />
    <glyph glyph-name="Eth" unicode="&#xd0;" horiz-adv-x="686" 
d="M349 700q81 0 142 -27t102.5 -71t62.5 -101.5t21 -118.5q0 -71 -28 -139.5t-80 -122.5t-126.5 -87t-167.5 -33h-182l36 340h-104l2 20h104l36 340h182zM259 340h-110l-34 -320h162q88 0 158.5 31t119.5 82t75.5 115.5t26.5 131.5q0 58 -20 112t-59 96t-97 67t-134 25
h-162l-34 -320h110z" />
    <glyph glyph-name="Ntilde" unicode="&#xd1;" horiz-adv-x="659" 
d="M549 31l71 669h20l-74 -700h-24l-359 669l-70 -669h-20l74 700h24zM495 809q26 0 50 18.5t35 45.5l19 -7q-17 -37 -46.5 -56t-59.5 -19q-24 0 -40.5 10t-31 22t-29 22t-33.5 10q-26 0 -50 -18.5t-35 -45.5l-19 7q17 37 46.5 56t59.5 19q24 0 40.5 -10t31 -22t29 -22
t33.5 -10z" />
    <glyph glyph-name="Ograve" unicode="&#xd2;" horiz-adv-x="812" 
d="M408 -13q-79 0 -139.5 27t-102 72.5t-62.5 104.5t-21 124q0 76 28.5 148t80.5 127.5t125 89t161 33.5q79 0 139.5 -27t102 -72.5t62.5 -105t21 -123.5q0 -76 -28.5 -148t-80.5 -127.5t-125 -89t-161 -33.5zM409 7q84 0 152.5 32t118 84.5t76.5 120.5t27 140
q0 61 -20 116.5t-58.5 98.5t-95.5 68.5t-132 25.5q-84 0 -152.5 -32t-118 -84.5t-76.5 -120.5t-27 -140q0 -61 20 -117t58.5 -98.5t95.5 -68t132 -25.5zM370 887l11 18l235 -137l-12 -18z" />
    <glyph glyph-name="Oacute" unicode="&#xd3;" horiz-adv-x="812" 
d="M408 -13q-79 0 -139.5 27t-102 72.5t-62.5 104.5t-21 124q0 76 28.5 148t80.5 127.5t125 89t161 33.5q79 0 139.5 -27t102 -72.5t62.5 -105t21 -123.5q0 -76 -28.5 -148t-80.5 -127.5t-125 -89t-161 -33.5zM409 7q84 0 152.5 32t118 84.5t76.5 120.5t27 140
q0 61 -20 116.5t-58.5 98.5t-95.5 68.5t-132 25.5q-84 0 -152.5 -32t-118 -84.5t-76.5 -120.5t-27 -140q0 -61 20 -117t58.5 -98.5t95.5 -68t132 -25.5zM365 750l-8 18l263 137l9 -18z" />
    <glyph glyph-name="Ocircumflex" unicode="&#xd4;" horiz-adv-x="812" 
d="M408 -13q-79 0 -139.5 27t-102 72.5t-62.5 104.5t-21 124q0 76 28.5 148t80.5 127.5t125 89t161 33.5q79 0 139.5 -27t102 -72.5t62.5 -105t21 -123.5q0 -76 -28.5 -148t-80.5 -127.5t-125 -89t-161 -33.5zM409 7q84 0 152.5 32t118 84.5t76.5 120.5t27 140
q0 61 -20 116.5t-58.5 98.5t-95.5 68.5t-132 25.5q-84 0 -152.5 -32t-118 -84.5t-76.5 -120.5t-27 -140q0 -61 20 -117t58.5 -98.5t95.5 -68t132 -25.5zM502 913l155 -145l-14 -16l-143 135l-172 -135l-11 16z" />
    <glyph glyph-name="Otilde" unicode="&#xd5;" horiz-adv-x="812" 
d="M408 -13q-79 0 -139.5 27t-102 72.5t-62.5 104.5t-21 124q0 76 28.5 148t80.5 127.5t125 89t161 33.5q79 0 139.5 -27t102 -72.5t62.5 -105t21 -123.5q0 -76 -28.5 -148t-80.5 -127.5t-125 -89t-161 -33.5zM409 7q84 0 152.5 32t118 84.5t76.5 120.5t27 140
q0 61 -20 116.5t-58.5 98.5t-95.5 68.5t-132 25.5q-84 0 -152.5 -32t-118 -84.5t-76.5 -120.5t-27 -140q0 -61 20 -117t58.5 -98.5t95.5 -68t132 -25.5zM562 809q26 0 50 18.5t35 45.5l19 -7q-17 -37 -46 -56t-59 -19q-24 0 -40.5 10t-31.5 22t-29.5 22t-33.5 10
q-26 0 -49.5 -18.5t-34.5 -45.5l-20 7q17 37 46.5 56t59.5 19q24 0 40.5 -10t31 -22t29 -22t33.5 -10z" />
    <glyph glyph-name="Odieresis" unicode="&#xd6;" horiz-adv-x="812" 
d="M370 858h20l-11 -103h-20zM601 858h20l-11 -103h-20zM408 -13q-79 0 -139.5 27t-102 72.5t-62.5 104.5t-21 124q0 76 28.5 148t80.5 127.5t125 89t161 33.5q79 0 139.5 -27t102 -72.5t62.5 -105t21 -123.5q0 -76 -28.5 -148t-80.5 -127.5t-125 -89t-161 -33.5zM103 317
q0 -61 20 -117t58.5 -99t95.5 -68.5t132 -25.5q84 0 152.5 31.5t118 84t76.5 120.5t27 140q0 61 -20 117t-59 99t-96 68.5t-132 25.5q-84 0 -152.5 -32t-117.5 -84.5t-76 -120t-27 -139.5z" />
    <glyph glyph-name="multiply" unicode="&#xd7;" 
d="M461 435l13 -14l-151 -136l122 -136l-15 -14l-122 136l-149 -136l-13 14l149 136l-120 136l15 14l121 -136z" />
    <glyph glyph-name="Oslash" unicode="&#xd8;" horiz-adv-x="812" 
d="M406 -13q-41 0 -76 7t-67 20l-37 -71l-18 7l38 73q-40 20 -70.5 51.5t-51 69.5t-31 82t-10.5 90q0 76 28.5 147.5t81 127t125.5 89t163 33.5q67 0 123 -21l35 65l18 -7l-35 -65q44 -20 78 -51t57 -71t34.5 -85.5t11.5 -93.5q0 -76 -28.5 -147.5t-80.5 -127t-125.5 -89
t-162.5 -33.5zM407 7q85 0 154 31.5t118.5 84t76.5 120t27 139.5q0 45 -11 88.5t-33 81t-53.5 67t-73.5 47.5l-339 -633q60 -26 134 -26zM103 318q0 -43 10 -84.5t29.5 -77.5t48 -66t65.5 -49l338 633q-26 9 -54.5 14t-61.5 5q-85 0 -154 -31.5t-118 -84t-76 -120
t-27 -139.5z" />
    <glyph glyph-name="Ugrave" unicode="&#xd9;" horiz-adv-x="595" 
d="M151 700h20l-52 -495q-4 -41 6.5 -77t34 -63t58.5 -42.5t80 -15.5t83.5 16t67.5 43t47 63t22 76l52 495h20l-52 -495q-5 -44 -24.5 -83.5t-51.5 -69.5t-74.5 -47.5t-92.5 -17.5t-88.5 17t-64 47t-37 69.5t-6.5 84.5zM261 887l12 18l235 -137l-12 -18z" />
    <glyph glyph-name="Uacute" unicode="&#xda;" horiz-adv-x="595" 
d="M151 700h20l-52 -495q-4 -41 6.5 -77t34 -63t58.5 -42.5t80 -15.5t83.5 16t67.5 43t47 63t22 76l52 495h20l-52 -495q-5 -44 -24.5 -83.5t-51.5 -69.5t-74.5 -47.5t-92.5 -17.5t-88.5 17t-64 47t-37 69.5t-6.5 84.5zM257 750l-8 18l263 137l8 -18z" />
    <glyph glyph-name="Ucircumflex" unicode="&#xdb;" horiz-adv-x="595" 
d="M151 700h20l-52 -495q-4 -41 6.5 -77t34 -63t58.5 -42.5t80 -15.5t83.5 16t67.5 43t47 63t22 76l52 495h20l-52 -495q-5 -44 -24.5 -83.5t-51.5 -69.5t-74.5 -47.5t-92.5 -17.5t-88.5 17t-64 47t-37 69.5t-6.5 84.5zM397 914l155 -145l-14 -16l-144 135l-171 -135l-11 16
z" />
    <glyph glyph-name="Udieresis" unicode="&#xdc;" horiz-adv-x="595" 
d="M261 858h20l-11 -103h-20zM492 858h20l-11 -103h-20zM151 700h20l-52 -495q-4 -41 6.5 -77t34 -63t58.5 -42.5t80 -15.5t83.5 16t67.5 43t47 63t22 76l52 495h20l-52 -495q-5 -44 -24.5 -83.5t-51.5 -69.5t-74.5 -47.5t-92.5 -17.5t-88.5 17t-64 47t-37 69.5t-6.5 84.5z
" />
    <glyph glyph-name="Yacute" unicode="&#xdd;" horiz-adv-x="527" 
d="M157 0h-23l173 273l-227 427h24l216 -406l256 406h22zM255 758l-8 18l263 137l8 -18z" />
    <glyph glyph-name="Thorn" unicode="&#xde;" horiz-adv-x="496" 
d="M167 700h20l-15 -136h130q47 0 84.5 -15.5t63 -42.5t39 -63t13.5 -77q0 -48 -18 -91.5t-50.5 -76t-78 -52t-99.5 -19.5h-130l-13 -127h-20zM170 544l-42 -397h130q49 0 90.5 17.5t70.5 47.5t45.5 69t16.5 83q0 37 -12.5 70t-35.5 57.5t-56.5 38.5t-76.5 14h-130z" />
    <glyph glyph-name="germandbls" unicode="&#xdf;" horiz-adv-x="551" 
d="M188 22q37 -15 87 -15q49 0 90 14t69.5 38.5t44.5 58t16 72.5q0 36 -13 65.5t-37 50.5t-57.5 32.5t-74.5 11.5h-56l2 20h55q45 0 82 13.5t63.5 37.5t41 56.5t14.5 70.5q0 65 -42 105t-123 40q-87 0 -137.5 -45t-58.5 -117l-56 -531h-20l56 531q4 40 20.5 73.5t44.5 57.5
t66 37.5t86 13.5q90 0 137 -45t47 -116q0 -35 -11 -67.5t-33.5 -59t-55.5 -44t-76 -21.5q39 -5 68.5 -20t49 -37.5t29 -51.5t9.5 -60q0 -44 -17.5 -81t-49.5 -64.5t-76.5 -43t-99.5 -15.5q-23 0 -45 3t-41 10z" />
    <glyph glyph-name="agrave" unicode="&#xe0;" horiz-adv-x="580" 
d="M531 419l-44 -419h-20l13 125q-28 -59 -83.5 -96.5t-129.5 -37.5q-47 0 -83.5 16t-62 43t-39 63t-13.5 77q0 48 18 91t50 75.5t76.5 52t97.5 19.5q76 0 123.5 -37.5t63.5 -97.5l13 126h20zM270 11q48 0 88.5 17.5t70 47.5t46 69t16.5 83q0 37 -12.5 70t-36 57.5t-57 38.5
t-76.5 14q-48 0 -88.5 -18t-70 -48t-45.5 -69.5t-16 -82.5q0 -37 12 -69.5t35.5 -57t57 -38.5t76.5 -14zM208 662l12 18l234 -137l-11 -18z" />
    <glyph glyph-name="aacute" unicode="&#xe1;" horiz-adv-x="580" 
d="M531 419l-44 -419h-20l13 125q-28 -59 -83.5 -96.5t-129.5 -37.5q-47 0 -83.5 16t-62 43t-39 63t-13.5 77q0 48 18 91t50 75.5t76.5 52t97.5 19.5q76 0 123.5 -37.5t63.5 -97.5l13 126h20zM270 11q48 0 88.5 17.5t70 47.5t46 69t16.5 83q0 37 -12.5 70t-36 57.5t-57 38.5
t-76.5 14q-48 0 -88.5 -18t-70 -48t-45.5 -69.5t-16 -82.5q0 -37 12 -69.5t35.5 -57t57 -38.5t76.5 -14zM203 525l-9 18l264 137l8 -18z" />
    <glyph glyph-name="acircumflex" unicode="&#xe2;" horiz-adv-x="580" 
d="M531 419l-44 -419h-20l13 125q-28 -59 -83.5 -96.5t-129.5 -37.5q-47 0 -83.5 16t-62 43t-39 63t-13.5 77q0 48 18 91t50 75.5t76.5 52t97.5 19.5q76 0 123.5 -37.5t63.5 -97.5l13 126h20zM270 11q48 0 88.5 17.5t70 47.5t46 69t16.5 83q0 37 -12.5 70t-36 57.5t-57 38.5
t-76.5 14q-48 0 -88.5 -18t-70 -48t-45.5 -69.5t-16 -82.5q0 -37 12 -69.5t35.5 -57t57 -38.5t76.5 -14zM353 707l154 -145l-13 -16l-144 135l-171 -135l-12 16z" />
    <glyph glyph-name="atilde" unicode="&#xe3;" horiz-adv-x="580" 
d="M531 419l-44 -419h-20l13 125q-28 -59 -83.5 -96.5t-129.5 -37.5q-47 0 -83.5 16t-62 43t-39 63t-13.5 77q0 48 18 91t50 75.5t76.5 52t97.5 19.5q76 0 123.5 -37.5t63.5 -97.5l13 126h20zM270 11q48 0 88.5 17.5t70 47.5t46 69t16.5 83q0 37 -12.5 70t-36 57.5t-57 38.5
t-76.5 14q-48 0 -88.5 -18t-70 -48t-45.5 -69.5t-16 -82.5q0 -37 12 -69.5t35.5 -57t57 -38.5t76.5 -14zM412 585q26 0 50 18.5t35 45.5l19 -7q-17 -37 -46.5 -56t-59.5 -19q-24 0 -40.5 10t-31 22t-29 22t-33.5 10q-26 0 -50 -18.5t-35 -45.5l-19 7q17 37 46.5 56t59.5 19
q24 0 40.5 -10t31 -22t29 -22t33.5 -10z" />
    <glyph glyph-name="adieresis" unicode="&#xe4;" horiz-adv-x="580" 
d="M467 0l13 125q-28 -59 -83.5 -96.5t-130.5 -37.5q-47 0 -83.5 15.5t-62 42.5t-38.5 63t-13 77q0 48 18 91.5t50 76t76.5 52t97.5 19.5q76 0 123.5 -37.5t63.5 -97.5l13 126h20l-44 -419h-20zM439 648h20l-11 -103h-20zM89 190q0 -37 12 -69.5t35 -57t56.5 -38.5t76.5 -14
q48 0 89 17.5t70 47.5t45.5 69t16.5 83q0 37 -12.5 70t-35.5 57.5t-57 38.5t-77 14q-48 0 -88 -17.5t-69.5 -47.5t-45.5 -69.5t-16 -83.5zM208 648h20l-11 -103h-20z" />
    <glyph glyph-name="aring" unicode="&#xe5;" horiz-adv-x="580" 
d="M531 419l-44 -419h-20l13 125q-28 -59 -83.5 -96.5t-129.5 -37.5q-47 0 -83.5 16t-62 43t-39 63t-13.5 77q0 48 18 91t50 75.5t76.5 52t97.5 19.5q76 0 123.5 -37.5t63.5 -97.5l13 126h20zM270 11q48 0 88.5 17.5t70 47.5t46 69t16.5 83q0 37 -12.5 70t-36 57.5t-57 38.5
t-76.5 14q-48 0 -88.5 -18t-70 -48t-45.5 -69.5t-16 -82.5q0 -37 12 -69.5t35.5 -57t57 -38.5t76.5 -14zM349 735q24 0 44.5 -9t35 -24t23 -35.5t8.5 -43.5q0 -27 -11 -51.5t-30 -42.5t-43 -29t-51 -11q-24 0 -44.5 9t-35.5 24.5t-23.5 36t-8.5 43.5q0 27 11.5 51t30 42.5
t43 29t51.5 10.5zM347 715q-22 0 -42.5 -9t-36.5 -24t-25.5 -35.5t-9.5 -43.5q0 -19 7 -36t19.5 -30t30 -20.5t37.5 -7.5q22 0 42.5 9t36 24.5t25 35.5t9.5 43q0 19 -7 36t-19.5 30t-29.5 20.5t-37 7.5z" />
    <glyph glyph-name="ae" unicode="&#xe6;" horiz-adv-x="921" 
d="M531 419l-11 -106q27 51 77 83t116 32q40 0 73.5 -13t56.5 -36t36 -55t13 -69q0 -15 -1.5 -23.5t-3.5 -16.5h-377q-5 -44 4 -81.5t30 -64.5t54 -42.5t77 -15.5q33 0 61 8.5t50.5 22.5t38 32.5t24.5 39.5h21q-9 -25 -27 -47t-43 -39t-57 -27t-70 -10q-72 0 -115 33.5
t-59 83.5l-12 -108h-20l13 125q-28 -59 -83.5 -96.5t-129.5 -37.5q-47 0 -83.5 16t-62 43t-39 63t-13.5 77q0 48 18 91t50 75.5t76.5 52t97.5 19.5q76 0 123.5 -37.5t63.5 -97.5l13 126h20zM712 408q-39 0 -72.5 -13t-59 -36t-43 -55t-24.5 -69h357q4 38 -6 69.5t-31 54.5
t-51.5 36t-69.5 13zM270 11q48 0 88.5 17.5t70 47.5t46 69t16.5 83q0 37 -12.5 70t-36 57.5t-57 38.5t-76.5 14q-48 0 -88.5 -18t-70 -48t-45.5 -69.5t-16 -82.5q0 -37 12 -69.5t35.5 -57t57 -38.5t76.5 -14z" />
    <glyph glyph-name="ccedilla" unicode="&#xe7;" horiz-adv-x="514" 
d="M215 -5q-35 7 -61.5 25t-44 44t-26.5 57.5t-9 65.5q0 46 15.5 89.5t45.5 77.5t74 54.5t101 20.5q49 0 82.5 -14.5t53.5 -38t29 -52.5t8 -58h-20q0 27 -8.5 52.5t-27 46t-48 32.5t-71.5 12q-52 0 -92 -18.5t-67 -49.5t-41 -70.5t-14 -81.5q0 -35 10 -67t31.5 -57
t54.5 -39.5t78 -14.5q39 0 70 11t54 29t38.5 42t22.5 51h21q-8 -32 -25.5 -60t-44 -48.5t-62.5 -32.5t-82 -12h-13.5t-11.5 1l-9 -78q10 15 29 24.5t42 9.5q36 0 56 -22t20 -53q0 -38 -27.5 -65t-70.5 -27q-38 0 -58.5 21.5t-21.5 50.5h21q1 -22 16 -37.5t44 -15.5
q35 0 56 21t21 50q0 23 -15 40t-46 17q-16 0 -35 -7.5t-33 -33.5h-20z" />
    <glyph glyph-name="egrave" unicode="&#xe8;" horiz-adv-x="507" 
d="M96 215q-4 -40 4 -77t28 -65t53 -45t80 -17q33 0 61 8.5t50.5 22.5t38 32.5t24.5 39.5h21q-9 -25 -26.5 -47t-43 -39t-57.5 -27t-69 -10q-48 0 -83 16t-58 43t-34 63t-11 76q0 49 16 93t45.5 76t71 51t91.5 19q41 0 74.5 -13t57 -36t36 -54.5t12.5 -68.5
q0 -16 -1.5 -24.5t-3.5 -16.5h-377zM298 408q-39 0 -72.5 -13t-59 -36t-43 -55t-24.5 -69h357q4 38 -6 69.5t-31 54.5t-51.5 36t-69.5 13zM194 662l12 18l235 -137l-12 -18z" />
    <glyph glyph-name="eacute" unicode="&#xe9;" horiz-adv-x="507" 
d="M96 215q-4 -40 4 -77t28 -65t53 -45t80 -17q33 0 61 8.5t50.5 22.5t38 32.5t24.5 39.5h21q-9 -25 -26.5 -47t-43 -39t-57.5 -27t-69 -10q-48 0 -83 16t-58 43t-34 63t-11 76q0 49 16 93t45.5 76t71 51t91.5 19q41 0 74.5 -13t57 -36t36 -54.5t12.5 -68.5
q0 -16 -1.5 -24.5t-3.5 -16.5h-377zM298 408q-39 0 -72.5 -13t-59 -36t-43 -55t-24.5 -69h357q4 38 -6 69.5t-31 54.5t-51.5 36t-69.5 13zM180 525l-8 18l263 137l8 -18z" />
    <glyph glyph-name="ecircumflex" unicode="&#xea;" horiz-adv-x="507" 
d="M96 215q-4 -40 4 -77t28 -65t53 -45t80 -17q33 0 61 8.5t50.5 22.5t38 32.5t24.5 39.5h21q-9 -25 -26.5 -47t-43 -39t-57.5 -27t-69 -10q-48 0 -83 16t-58 43t-34 63t-11 76q0 49 16 93t45.5 76t71 51t91.5 19q41 0 74.5 -13t57 -36t36 -54.5t12.5 -68.5
q0 -16 -1.5 -24.5t-3.5 -16.5h-377zM298 408q-39 0 -72.5 -13t-59 -36t-43 -55t-24.5 -69h357q4 38 -6 69.5t-31 54.5t-51.5 36t-69.5 13zM331 707l155 -145l-14 -16l-144 135l-171 -135l-11 16z" />
    <glyph glyph-name="edieresis" unicode="&#xeb;" horiz-adv-x="507" 
d="M419 648h20l-11 -103h-20zM188 648h20l-11 -103h-20zM96 215q-4 -40 4 -77t28 -65t53 -45t80 -17q33 0 61 8.5t50.5 22.5t38 32.5t24.5 39.5h21q-9 -25 -26.5 -47t-43 -39t-57.5 -27t-69 -10q-48 0 -83 16t-58 43t-34 63t-11 76q0 49 16 93t45.5 76t71 51t91.5 19
q41 0 74.5 -13t57 -36t36 -54.5t12.5 -68.5q0 -16 -1.5 -24.5t-3.5 -16.5h-377zM298 408q-39 0 -72.5 -13t-59 -36t-43 -55t-24.5 -69h357q4 38 -6 69.5t-31 54.5t-51.5 36t-69.5 13z" />
    <glyph glyph-name="igrave" unicode="&#xec;" horiz-adv-x="206" 
d="M137 419h20l-44 -419h-20zM44 663l12 18l234 -137l-11 -18z" />
    <glyph glyph-name="iacute" unicode="&#xed;" horiz-adv-x="206" 
d="M137 419h20l-44 -419h-20zM40 525l-8 18l263 137l9 -18z" />
    <glyph glyph-name="icircumflex" unicode="&#xee;" horiz-adv-x="206" 
d="M137 419h20l-44 -419h-20zM177 707l155 -145l-14 -16l-143 135l-172 -135l-11 16z" />
    <glyph glyph-name="idieresis" unicode="&#xef;" horiz-adv-x="206" 
d="M45 648h20l-11 -103h-20zM276 648h20l-11 -103h-20zM137 419h20l-44 -419h-20z" />
    <glyph glyph-name="eth" unicode="&#xf0;" 
d="M281 -9q-48 0 -85 16t-62.5 43t-39 63t-13.5 76q0 48 18 91t50 76t76.5 52.5t97.5 19.5q39 0 74.5 -11t52.5 -34l-85 164l-154 -80l-7 19l152 78l-71 136h24l65 -126l93 48l7 -18l-91 -48l98 -189q19 -36 30.5 -67.5t11.5 -70.5q0 -48 -18 -91t-50.5 -75.5t-77 -52
t-96.5 -19.5zM283 11q48 0 88.5 17.5t70 47.5t45.5 69t16 83q0 37 -12.5 70t-35.5 57.5t-56.5 38.5t-76.5 14q-48 0 -88.5 -17.5t-70 -47.5t-46 -69.5t-16.5 -82.5q0 -38 12.5 -70.5t36 -57t57 -38.5t76.5 -14z" />
    <glyph glyph-name="ntilde" unicode="&#xf1;" horiz-adv-x="554" 
d="M137 419h20l-13 -128q10 26 28.5 51t44 44t57.5 30.5t70 11.5t68.5 -12t50.5 -36q42 -47 33 -138l-25 -242h-20l25 240q4 36 -2.5 66.5t-23.5 53t-44.5 35.5t-65.5 13q-48 0 -84.5 -19t-62.5 -48.5t-40.5 -64t-17.5 -64.5l-22 -212h-20zM411 585q26 0 50 18.5t35 45.5
l19 -7q-17 -37 -46 -56t-59 -19q-24 0 -40.5 10t-31.5 22t-29.5 22t-33.5 10q-26 0 -49.5 -18.5t-34.5 -45.5l-20 7q17 37 46.5 56t59.5 19q24 0 40.5 -10t31 -22t29 -22t33.5 -10z" />
    <glyph glyph-name="ograve" unicode="&#xf2;" horiz-adv-x="535" 
d="M268 -9q-48 0 -85 15.5t-62.5 42.5t-38.5 63t-13 77q0 48 18 91.5t50 76t76 52t97 19.5q47 0 84.5 -15.5t63.5 -42.5t39.5 -63t13.5 -77q0 -48 -18.5 -91.5t-50.5 -76t-77 -52t-97 -19.5zM270 11q48 0 88.5 17.5t70 47.5t46 69t16.5 83q0 37 -12.5 70t-36 57.5t-57 38.5
t-76.5 14q-48 0 -88.5 -18t-70 -48t-45.5 -69.5t-16 -82.5q0 -37 12 -69.5t35.5 -57t57 -38.5t76.5 -14zM208 662l12 18l234 -137l-11 -18z" />
    <glyph glyph-name="oacute" unicode="&#xf3;" horiz-adv-x="535" 
d="M268 -9q-48 0 -85 15.5t-62.5 42.5t-38.5 63t-13 77q0 48 18 91.5t50 76t76 52t97 19.5q47 0 84.5 -15.5t63.5 -42.5t39.5 -63t13.5 -77q0 -48 -18.5 -91.5t-50.5 -76t-77 -52t-97 -19.5zM270 11q48 0 88.5 17.5t70 47.5t46 69t16.5 83q0 37 -12.5 70t-36 57.5t-57 38.5
t-76.5 14q-48 0 -88.5 -18t-70 -48t-45.5 -69.5t-16 -82.5q0 -37 12 -69.5t35.5 -57t57 -38.5t76.5 -14zM204 525l-9 18l264 137l8 -18z" />
    <glyph glyph-name="ocircumflex" unicode="&#xf4;" horiz-adv-x="535" 
d="M268 -9q-48 0 -85 15.5t-62.5 42.5t-38.5 63t-13 77q0 48 18 91.5t50 76t76 52t97 19.5q47 0 84.5 -15.5t63.5 -42.5t39.5 -63t13.5 -77q0 -48 -18.5 -91.5t-50.5 -76t-77 -52t-97 -19.5zM270 11q48 0 88.5 17.5t70 47.5t46 69t16.5 83q0 37 -12.5 70t-36 57.5t-57 38.5
t-76.5 14q-48 0 -88.5 -18t-70 -48t-45.5 -69.5t-16 -82.5q0 -37 12 -69.5t35.5 -57t57 -38.5t76.5 -14zM342 708l155 -145l-14 -16l-144 135l-171 -135l-11 16z" />
    <glyph glyph-name="otilde" unicode="&#xf5;" horiz-adv-x="535" 
d="M268 -9q-48 0 -85 15.5t-62.5 42.5t-38.5 63t-13 77q0 48 18 91.5t50 76t76 52t97 19.5q47 0 84.5 -15.5t63.5 -42.5t39.5 -63t13.5 -77q0 -48 -18.5 -91.5t-50.5 -76t-77 -52t-97 -19.5zM270 11q48 0 88.5 17.5t70 47.5t46 69t16.5 83q0 37 -12.5 70t-36 57.5t-57 38.5
t-76.5 14q-48 0 -88.5 -18t-70 -48t-45.5 -69.5t-16 -82.5q0 -37 12 -69.5t35.5 -57t57 -38.5t76.5 -14zM400 585q26 0 50 18.5t35 45.5l19 -7q-17 -37 -46.5 -56t-59.5 -19q-24 0 -40.5 10t-31 22t-29 22t-33.5 10q-26 0 -50 -18.5t-35 -45.5l-19 7q17 37 46.5 56t59.5 19
q24 0 40.5 -10t31 -22t29 -22t33.5 -10z" />
    <glyph glyph-name="odieresis" unicode="&#xf6;" horiz-adv-x="535" 
d="M440 648h20l-10 -103h-20zM209 648h20l-10 -103h-20zM268 -9q-48 0 -85 15.5t-62.5 42.5t-38.5 63t-13 77q0 48 18 91.5t50 76t76 52t97 19.5q47 0 84.5 -15.5t63.5 -42.5t39.5 -63t13.5 -77q0 -48 -18.5 -91.5t-50.5 -76t-77 -52t-97 -19.5zM270 11q48 0 88.5 17.5
t70 47.5t46 69t16.5 83q0 37 -12.5 70t-36 57.5t-57 38.5t-76.5 14q-48 0 -88.5 -18t-70 -48t-45.5 -69.5t-16 -82.5q0 -37 12 -69.5t35.5 -57t57 -38.5t76.5 -14z" />
    <glyph glyph-name="divide" unicode="&#xf7;" 
d="M288 168h20l-11 -103h-20zM314 413h20l-11 -103h-20zM102 225l2 19h404l-2 -19h-404z" />
    <glyph glyph-name="oslash" unicode="&#xf8;" horiz-adv-x="535" 
d="M395 412q55 -22 85 -71.5t30 -111.5q0 -47 -18 -90t-50 -76t-77.5 -52.5t-99.5 -19.5q-47 0 -86 17l-32 -60l-18 7l33 61q-45 25 -69 71t-24 101q0 48 18 91.5t50 76.5t76 52.5t97 19.5q20 0 36.5 -2.5t31.5 -7.5l26 49l17 -7zM267 11q49 0 90.5 17.5t70.5 47.5t45.5 69
t16.5 83q0 56 -27 101t-78 65l-196 -368q34 -15 78 -15zM89 191q0 -50 21 -92t62 -65l196 366q-29 8 -60 8q-48 0 -88 -17.5t-69 -47t-45.5 -69t-16.5 -83.5z" />
    <glyph glyph-name="ugrave" unicode="&#xf9;" horiz-adv-x="551" 
d="M458 0h-20l13 128q-11 -26 -29 -51t-43 -44t-57 -30.5t-70 -11.5t-69 12t-51 36q-43 48 -34 138l25 242h21l-25 -240q-4 -36 2.5 -67t23.5 -53.5t44.5 -35t65.5 -12.5q48 0 84.5 19t62 48.5t40 64t17.5 64.5l22 212h21zM219 662l12 18l235 -137l-12 -18z" />
    <glyph glyph-name="uacute" unicode="&#xfa;" horiz-adv-x="551" 
d="M458 0h-20l13 128q-11 -26 -29 -51t-43 -44t-57 -30.5t-70 -11.5t-69 12t-51 36q-43 48 -34 138l25 242h21l-25 -240q-4 -36 2.5 -67t23.5 -53.5t44.5 -35t65.5 -12.5q48 0 84.5 19t62 48.5t40 64t17.5 64.5l22 212h21zM215 525l-8 18l263 137l8 -18z" />
    <glyph glyph-name="ucircumflex" unicode="&#xfb;" horiz-adv-x="553" 
d="M458 0h-20l13 128q-11 -26 -29 -51t-43 -44t-57 -30.5t-70 -11.5t-69 12t-51 36q-43 48 -34 138l25 242h21l-25 -240q-4 -36 2.5 -67t23.5 -53.5t44.5 -35t65.5 -12.5q48 0 84.5 19t62 48.5t40 64t17.5 64.5l22 212h21zM354 707l155 -145l-14 -16l-144 135l-171 -135
l-11 16z" />
    <glyph glyph-name="udieresis" unicode="&#xfc;" horiz-adv-x="551" 
d="M442 648h20l-11 -103h-20zM211 648h20l-11 -103h-20zM458 0h-20l13 128q-11 -26 -29 -51t-43 -44t-57 -30.5t-70 -11.5t-69 12t-51 36q-43 48 -34 138l25 242h21l-25 -240q-4 -36 2.5 -67t23.5 -53.5t44.5 -35t65.5 -12.5q48 0 84.5 19t62 48.5t40 64t17.5 64.5l22 212
h21z" />
    <glyph glyph-name="yacute" unicode="&#xfd;" horiz-adv-x="557" 
d="M247 -290q-54 0 -88.5 13.5t-54 40.5t-25 66.5t-1.5 91.5h20q-4 -47 1.5 -82.5t23 -60t48.5 -37t79 -12.5q43 0 76 11t56.5 35.5t38 64.5t20.5 97l20 190q-11 -27 -28.5 -51.5t-42 -43.5t-57.5 -30.5t-76 -11.5q-38 0 -67.5 10.5t-50.5 33.5q-22 24 -28.5 58.5t-0.5 93.5
l24 232h20l-24 -230q-9 -84 20 -131t109 -47q52 0 90.5 19t64 48t39.5 63.5t17 65.5l22 212h20l-51 -481q-7 -63 -23 -106.5t-42 -70.5t-63 -39t-86 -12zM222 525l-8 18l263 137l8 -18z" />
    <glyph glyph-name="thorn" unicode="&#xfe;" horiz-adv-x="580" 
d="M64 -280l103 980h20l-43 -407q29 60 84 97.5t130 37.5q47 0 83.5 -15.5t62 -42.5t39 -63t13.5 -77q0 -48 -18 -91.5t-50.5 -76t-77 -52t-97.5 -19.5q-76 0 -123.5 37.5t-62.5 96.5l-43 -405h-20zM316 11q48 0 88.5 17.5t69.5 47.5t45.5 69t16.5 83q0 37 -12.5 70
t-35.5 57.5t-56.5 38.5t-76.5 14q-48 0 -88.5 -17.5t-70 -47.5t-46 -69.5t-16.5 -82.5q0 -37 12.5 -70t35.5 -57.5t57 -38.5t77 -14z" />
    <glyph glyph-name="ydieresis" unicode="&#xff;" horiz-adv-x="557" 
d="M459 648h20l-11 -103h-20zM228 648h20l-11 -103h-20zM247 -290q-54 0 -88.5 13.5t-54 40.5t-25 66.5t-1.5 91.5h20q-4 -47 1.5 -82.5t23 -60t48.5 -37t79 -12.5q43 0 76 11t56.5 35.5t38 64.5t20.5 97l20 190q-11 -27 -28.5 -51.5t-42 -43.5t-57.5 -30.5t-76 -11.5
q-38 0 -67.5 10.5t-50.5 33.5q-22 24 -28.5 58.5t-0.5 93.5l24 232h20l-24 -230q-9 -84 20 -131t109 -47q52 0 90.5 19t64 48t39.5 63.5t17 65.5l22 212h20l-51 -481q-7 -63 -23 -106.5t-42 -70.5t-63 -39t-86 -12z" />
    <glyph glyph-name="Amacron" unicode="&#x100;" horiz-adv-x="521" 
d="M511 0h-21l-39 162h-348l-72 -162h-21l314 700h21zM112 182h334l-115 494zM523 797h-358l2 20h358z" />
    <glyph glyph-name="amacron" unicode="&#x101;" horiz-adv-x="580" 
d="M531 419l-44 -419h-20l13 125q-28 -59 -83.5 -96.5t-129.5 -37.5q-47 0 -83.5 16t-62 43t-39 63t-13.5 77q0 48 18 91t50 75.5t76.5 52t97.5 19.5q76 0 123.5 -37.5t63.5 -97.5l13 126h20zM270 11q48 0 88.5 17.5t70 47.5t46 69t16.5 83q0 37 -12.5 70t-36 57.5t-57 38.5
t-76.5 14q-48 0 -88.5 -18t-70 -48t-45.5 -69.5t-16 -82.5q0 -37 12 -69.5t35.5 -57t57 -38.5t76.5 -14zM507 586h-358l2 20h358z" />
    <glyph glyph-name="Abreve" unicode="&#x102;" horiz-adv-x="521" 
d="M511 0h-21l-39 162h-348l-72 -162h-21l314 700h21zM112 182h334l-115 494zM344 785q59 0 105 30t63 86h21q-9 -33 -27.5 -58t-43.5 -42t-56 -26t-64 -9q-67 0 -112.5 34.5t-50.5 100.5h21q5 -56 45 -86t99 -30z" />
    <glyph glyph-name="abreve" unicode="&#x103;" horiz-adv-x="580" 
d="M531 419l-44 -419h-20l13 125q-28 -59 -83.5 -96.5t-129.5 -37.5q-47 0 -83.5 16t-62 43t-39 63t-13.5 77q0 48 18 91t50 75.5t76.5 52t97.5 19.5q76 0 123.5 -37.5t63.5 -97.5l13 126h20zM270 11q48 0 88.5 17.5t70 47.5t46 69t16.5 83q0 37 -12.5 70t-36 57.5t-57 38.5
t-76.5 14q-48 0 -88.5 -18t-70 -48t-45.5 -69.5t-16 -82.5q0 -37 12 -69.5t35.5 -57t57 -38.5t76.5 -14zM329 583q55 0 98.5 30.5t60.5 86.5h20q-18 -66 -68 -100.5t-113 -34.5t-105.5 34.5t-47.5 100.5h20q5 -56 42.5 -86.5t92.5 -30.5z" />
    <glyph glyph-name="Aogonek" unicode="&#x104;" horiz-adv-x="521" 
d="M528 -202q-14 -4 -31.5 -7t-36.5 -3q-50 0 -74.5 23t-24.5 59q0 43 33 73.5t96 56.5l-39 162h-348l-72 -162h-21l314 700h21l166 -700q-63 -24 -96.5 -55.5t-33.5 -69.5q0 -29 21 -48t59 -19q17 0 37 3.5t34 7.5zM112 182h334l-115 494z" />
    <glyph glyph-name="aogonek" unicode="&#x105;" horiz-adv-x="580" 
d="M487 0q-128 -50 -128 -125q0 -29 20.5 -48t58.5 -19q17 0 37.5 3.5t33.5 7.5l-4 -21q-14 -4 -31.5 -7t-36.5 -3q-50 0 -74.5 23t-24.5 59q0 43 33 73.5t96 56.5l13 125q-28 -59 -83.5 -96.5t-129.5 -37.5q-47 0 -83.5 16t-62 43t-39 63t-13.5 77q0 48 18 91t50 75.5
t76.5 52t97.5 19.5q76 0 123.5 -37.5t63.5 -97.5l13 126h20zM270 11q48 0 88.5 17.5t70 47.5t46 69t16.5 83q0 37 -12.5 70t-36 57.5t-57 38.5t-76.5 14q-48 0 -88.5 -18t-70 -48t-45.5 -69.5t-16 -82.5q0 -37 12 -69.5t35.5 -57t57 -38.5t76.5 -14z" />
    <glyph glyph-name="Cacute" unicode="&#x106;" horiz-adv-x="774" 
d="M748 187q-21 -43 -55 -79.5t-77.5 -63.5t-96 -42t-110.5 -15q-78 0 -138.5 26.5t-102 71.5t-63.5 105t-22 127q0 76 27.5 147t79 126.5t125 89t165.5 33.5q64 0 115.5 -17t90 -47t62 -72t31.5 -93h-20q-7 44 -29 82t-57.5 66.5t-84.5 44.5t-110 16q-87 0 -156.5 -31.5
t-118 -84t-74.5 -119.5t-26 -139q0 -63 20.5 -120t60 -99.5t97 -67.5t131.5 -25q54 0 102.5 13.5t88.5 37.5t71.5 57t51.5 72h22zM366 750l-8 18l263 137l9 -18z" />
    <glyph glyph-name="cacute" unicode="&#x107;" horiz-adv-x="514" 
d="M463 266q0 27 -8.5 52.5t-27 46t-48 32.5t-71.5 12q-52 0 -92 -18.5t-67 -49.5t-41 -70.5t-14 -81.5q0 -35 10 -67t31.5 -57t54.5 -39.5t78 -14.5q39 0 70 11t54 29t38.5 42t22.5 51h21q-17 -67 -71 -110t-138 -43q-50 0 -86 16t-59 43t-34.5 62.5t-11.5 74.5
q0 46 15.5 89.5t45.5 77.5t74 54.5t101 20.5q48 0 81.5 -14.5t54 -38t29.5 -52.5t8 -58h-20zM203 525l-9 18l264 137l8 -18z" />
    <glyph glyph-name="Ccircumflex" unicode="&#x108;" horiz-adv-x="774" 
d="M748 187q-21 -43 -55 -79.5t-77.5 -63.5t-96 -42t-110.5 -15q-78 0 -138.5 26.5t-102 71.5t-63.5 105t-22 127q0 76 27.5 147t79 126.5t125 89t165.5 33.5q64 0 115.5 -17t90 -47t62 -72t31.5 -93h-20q-7 44 -29 82t-57.5 66.5t-84.5 44.5t-110 16q-87 0 -156.5 -31.5
t-118 -84t-74.5 -119.5t-26 -139q0 -63 20.5 -120t60 -99.5t97 -67.5t131.5 -25q54 0 102.5 13.5t88.5 37.5t71.5 57t51.5 72h22zM494 913l155 -145l-14 -16l-143 135l-172 -135l-11 16z" />
    <glyph glyph-name="ccircumflex" unicode="&#x109;" horiz-adv-x="514" 
d="M463 266q0 27 -8.5 52.5t-27 46t-48 32.5t-71.5 12q-52 0 -92 -18.5t-67 -49.5t-41 -70.5t-14 -81.5q0 -35 10 -67t31.5 -57t54.5 -39.5t78 -14.5q39 0 70 11t54 29t38.5 42t22.5 51h21q-17 -67 -71 -110t-138 -43q-50 0 -86 16t-59 43t-34.5 62.5t-11.5 74.5
q0 46 15.5 89.5t45.5 77.5t74 54.5t101 20.5q48 0 81.5 -14.5t54 -38t29.5 -52.5t8 -58h-20zM337 707l154 -145l-13 -16l-144 135l-171 -135l-12 16z" />
    <glyph glyph-name="Cdotaccent" unicode="&#x10a;" horiz-adv-x="774" 
d="M479 858h20l-11 -103h-20zM748 187q-21 -43 -55 -79.5t-77.5 -63.5t-96 -42t-110.5 -15q-78 0 -138.5 26.5t-102 71.5t-63.5 105t-22 127q0 76 27.5 147t79 126.5t125 89t165.5 33.5q64 0 115.5 -17t90 -47t62 -72t31.5 -93h-20q-7 44 -29 82t-57.5 66.5t-84.5 44.5
t-110 16q-87 0 -156.5 -31.5t-118 -84t-74.5 -119.5t-26 -139q0 -63 20.5 -120t60 -99.5t97 -67.5t131.5 -25q54 0 102.5 13.5t88.5 37.5t71.5 57t51.5 72h22z" />
    <glyph glyph-name="cdotaccent" unicode="&#x10b;" horiz-adv-x="514" 
d="M322 648h20l-11 -103h-20zM463 266q0 27 -8.5 52.5t-27 46t-48 32.5t-71.5 12q-52 0 -92 -18.5t-67 -49.5t-41 -70.5t-14 -81.5q0 -35 10 -67t31.5 -57t54.5 -39.5t78 -14.5q39 0 70 11t54 29t38.5 42t22.5 51h21q-17 -67 -71 -110t-138 -43q-50 0 -86 16t-59 43
t-34.5 62.5t-11.5 74.5q0 46 15.5 89.5t45.5 77.5t74 54.5t101 20.5q48 0 81.5 -14.5t54 -38t29.5 -52.5t8 -58h-20z" />
    <glyph glyph-name="Ccaron" unicode="&#x10c;" horiz-adv-x="774" 
d="M748 187q-21 -43 -55 -79.5t-77.5 -63.5t-96 -42t-110.5 -15q-78 0 -138.5 26.5t-102 71.5t-63.5 105t-22 127q0 76 27.5 147t79 126.5t125 89t165.5 33.5q64 0 115.5 -17t90 -47t62 -72t31.5 -93h-20q-7 44 -29 82t-57.5 66.5t-84.5 44.5t-110 16q-87 0 -156.5 -31.5
t-118 -84t-74.5 -119.5t-26 -139q0 -63 20.5 -120t60 -99.5t97 -67.5t131.5 -25q54 0 102.5 13.5t88.5 37.5t71.5 57t51.5 72h22zM334 898l14 15l132 -133l162 133l12 -15l-176 -145z" />
    <glyph glyph-name="ccaron" unicode="&#x10d;" horiz-adv-x="514" 
d="M463 266q0 27 -8.5 52.5t-27 46t-48 32.5t-71.5 12q-52 0 -92 -18.5t-67 -49.5t-41 -70.5t-14 -81.5q0 -35 10 -67t31.5 -57t54.5 -39.5t78 -14.5q39 0 70 11t54 29t38.5 42t22.5 51h21q-17 -67 -71 -110t-138 -43q-50 0 -86 16t-59 43t-34.5 62.5t-11.5 74.5
q0 46 15.5 89.5t45.5 77.5t74 54.5t101 20.5q48 0 81.5 -14.5t54 -38t29.5 -52.5t8 -58h-20zM175 692l15 15l132 -133l162 133l11 -15l-176 -145z" />
    <glyph glyph-name="Dcaron" unicode="&#x10e;" horiz-adv-x="686" 
d="M349 700q81 0 142 -27t102.5 -71t62.5 -101.5t21 -118.5q0 -71 -28 -139.5t-80 -122.5t-126.5 -87t-167.5 -33h-182l74 700h182zM184 680l-69 -660h162q88 0 158 31t119.5 82t76 115.5t26.5 131.5q0 58 -20 112t-59 96t-97.5 67t-134.5 25h-162zM247 898l15 15l132 -133
l162 133l11 -15l-176 -145z" />
    <glyph glyph-name="dcaron" unicode="&#x10f;" horiz-adv-x="635" 
d="M541 700h20l-74 -700h-20l13 125q-28 -59 -83.5 -96.5t-129.5 -37.5q-47 0 -83.5 16t-62 43t-39 63t-13.5 77q0 48 18 91t50 75.5t76.5 52t97.5 19.5q76 0 123.5 -37.5t63.5 -97.5zM270 11q48 0 88.5 17.5t70 47.5t46 69t16.5 83q0 37 -12.5 70t-36 57.5t-57 38.5
t-76.5 14q-48 0 -88.5 -18t-70 -48t-45.5 -69.5t-16 -82.5q0 -37 12 -69.5t35.5 -57t57 -38.5t76.5 -14zM594 534q25 0 43 12.5t21 43.5l10 99h20l-10 -99q-5 -42 -28.5 -59t-57.5 -17z" />
    <glyph glyph-name="Dcroat" unicode="&#x110;" horiz-adv-x="686" 
d="M348 700q81 0 142.5 -27t103 -71t62.5 -101.5t21 -118.5q0 -71 -28 -139.5t-80 -122.5t-126.5 -87t-167.5 -33h-182l36 345h-169l2 20h169l35 335h182zM318 345h-169l-34 -325h162q88 0 158 31t119 81.5t75.5 115t26.5 132.5q0 57 -20 111t-59 96t-97 67.5t-134 25.5
h-162l-33 -315h169z" />
    <glyph glyph-name="dcroat" unicode="&#x111;" horiz-adv-x="580" 
d="M630 554h-84l-59 -554h-20l13 125q-28 -59 -83.5 -96.5t-129.5 -37.5q-47 0 -83.5 16t-62 43t-39 63t-13.5 77q0 48 18 91t50 75.5t76.5 52t97.5 19.5q76 0 123.5 -37.5t63.5 -97.5l28 261h-130l2 20h130l13 126h20l-13 -126h84zM270 11q48 0 88.5 17.5t70 47.5t46 69
t16.5 83q0 37 -12.5 70t-36 57.5t-57 38.5t-76.5 14q-48 0 -88.5 -18t-70 -48t-45.5 -69.5t-16 -82.5q0 -37 12 -69.5t35.5 -57t57 -38.5t76.5 -14z" />
    <glyph glyph-name="Emacron" unicode="&#x112;" horiz-adv-x="540" 
d="M184 680l-33 -322h339l-2 -20h-339l-34 -318h339l-2 -20h-359l74 700h359l-3 -20h-339zM533 797h-358l2 20h358z" />
    <glyph glyph-name="emacron" unicode="&#x113;" horiz-adv-x="507" 
d="M96 215q-4 -40 4 -77t28 -65t53 -45t80 -17q33 0 61 8.5t50.5 22.5t38 32.5t24.5 39.5h21q-9 -25 -26.5 -47t-43 -39t-57.5 -27t-69 -10q-48 0 -83 16t-58 43t-34 63t-11 76q0 49 16 93t45.5 76t71 51t91.5 19q41 0 74.5 -13t57 -36t36 -54.5t12.5 -68.5
q0 -16 -1.5 -24.5t-3.5 -16.5h-377zM298 408q-39 0 -72.5 -13t-59 -36t-43 -55t-24.5 -69h357q4 38 -6 69.5t-31 54.5t-51.5 36t-69.5 13zM494 586h-358l2 20h358z" />
    <glyph glyph-name="Ebreve" unicode="&#x114;" horiz-adv-x="540" 
d="M184 680l-33 -322h339l-2 -20h-339l-34 -318h339l-2 -20h-359l74 700h359l-3 -20h-339zM355 785q59 0 105 30t63 86h21q-9 -33 -27.5 -58t-43.5 -42t-56 -26t-64 -9q-67 0 -112.5 34.5t-50.5 100.5h21q5 -56 45 -86t99 -30z" />
    <glyph glyph-name="ebreve" unicode="&#x115;" horiz-adv-x="507" 
d="M96 215q-4 -40 4 -77t28 -65t53 -45t80 -17q33 0 61 8.5t50.5 22.5t38 32.5t24.5 39.5h21q-9 -25 -26.5 -47t-43 -39t-57.5 -27t-69 -10q-48 0 -83 16t-58 43t-34 63t-11 76q0 49 16 93t45.5 76t71 51t91.5 19q41 0 74.5 -13t57 -36t36 -54.5t12.5 -68.5
q0 -16 -1.5 -24.5t-3.5 -16.5h-377zM298 408q-39 0 -72.5 -13t-59 -36t-43 -55t-24.5 -69h357q4 38 -6 69.5t-31 54.5t-51.5 36t-69.5 13zM322 583q55 0 98.5 30.5t60.5 86.5h20q-18 -66 -68 -100.5t-113 -34.5t-105.5 34.5t-47.5 100.5h20q5 -56 42.5 -86.5t92.5 -30.5z
" />
    <glyph glyph-name="Edotaccent" unicode="&#x116;" horiz-adv-x="540" 
d="M349 858h20l-11 -103h-20zM184 680l-33 -322h339l-2 -20h-339l-34 -318h339l-2 -20h-359l74 700h359l-3 -20h-339z" />
    <glyph glyph-name="edotaccent" unicode="&#x117;" horiz-adv-x="507" 
d="M317 648h20l-11 -103h-20zM96 215q-4 -40 4 -77t28 -65t53 -45t80 -17q33 0 61 8.5t50.5 22.5t38 32.5t24.5 39.5h21q-9 -25 -26.5 -47t-43 -39t-57.5 -27t-69 -10q-48 0 -83 16t-58 43t-34 63t-11 76q0 49 16 93t45.5 76t71 51t91.5 19q41 0 74.5 -13t57 -36t36 -54.5
t12.5 -68.5q0 -16 -1.5 -24.5t-3.5 -16.5h-377zM298 408q-39 0 -72.5 -13t-59 -36t-43 -55t-24.5 -69h357q4 38 -6 69.5t-31 54.5t-51.5 36t-69.5 13z" />
    <glyph glyph-name="Eogonek" unicode="&#x118;" horiz-adv-x="540" 
d="M93 0l74 700h359l-3 -20h-339l-33 -322h339l-2 -20h-339l-34 -318h339l-2 -20h-112q-42 -29 -64 -61t-22 -61t21.5 -49.5t66.5 -20.5q24 0 48.5 5.5t40.5 10.5l-5 -21q-16 -5 -38 -10t-47 -5q-55 0 -81 26t-26 63q0 35 23 63.5t71 59.5h-235z" />
    <glyph glyph-name="eogonek" unicode="&#x119;" horiz-adv-x="507" 
d="M368 -197q-17 -5 -39 -10t-46 -5q-55 0 -81 26t-26 64q0 32 19 58.5t61 54.5q-47 1 -81 17t-56.5 43t-33.5 62.5t-11 74.5q0 50 16 93.5t45.5 76t71 51.5t91.5 19q41 0 74.5 -13t57 -36t36 -54.5t12.5 -68.5q0 -16 -1.5 -24.5t-3.5 -16.5h-377q-4 -40 4 -77t28 -65
t53 -45t80 -17q33 0 61 8.5t50.5 22.5t38 32.5t24.5 39.5h21q-9 -24 -26 -46t-41 -38.5t-54 -27t-66 -11.5q-35 -28 -54 -57.5t-19 -55.5q0 -29 21.5 -49.5t66.5 -20.5q23 0 47.5 5.5t40.5 10.5zM298 408q-39 0 -72.5 -13t-59 -36t-43 -55t-24.5 -69h357q4 38 -6 69.5
t-31 54.5t-51.5 36t-69.5 13z" />
    <glyph glyph-name="Ecaron" unicode="&#x11a;" horiz-adv-x="540" 
d="M184 680l-33 -322h339l-2 -20h-339l-34 -318h339l-2 -20h-359l74 700h359l-3 -20h-339zM204 898l15 15l132 -133l162 133l11 -15l-176 -145z" />
    <glyph glyph-name="ecaron" unicode="&#x11b;" horiz-adv-x="507" 
d="M96 215q-4 -40 4 -77t28 -65t53 -45t80 -17q33 0 61 8.5t50.5 22.5t38 32.5t24.5 39.5h21q-9 -25 -26.5 -47t-43 -39t-57.5 -27t-69 -10q-48 0 -83 16t-58 43t-34 63t-11 76q0 49 16 93t45.5 76t71 51t91.5 19q41 0 74.5 -13t57 -36t36 -54.5t12.5 -68.5
q0 -16 -1.5 -24.5t-3.5 -16.5h-377zM298 408q-39 0 -72.5 -13t-59 -36t-43 -55t-24.5 -69h357q4 38 -6 69.5t-31 54.5t-51.5 36t-69.5 13zM171 692l15 15l132 -133l162 133l11 -15l-176 -145z" />
    <glyph glyph-name="Gcircumflex" unicode="&#x11c;" horiz-adv-x="828" 
d="M474 296h350l-2 -20h-70q-12 -65 -41 -118t-72.5 -91t-101.5 -59t-130 -21q-83 0 -144 27t-101 72t-60 103.5t-20 121.5q0 78 28 150.5t80 128.5t124 89.5t161 33.5q54 0 98.5 -12.5t78.5 -35t56.5 -52.5t31.5 -65h-21q-9 29 -29.5 55.5t-52 46.5t-72.5 31.5t-92 11.5
q-84 0 -152 -32t-117 -84.5t-75.5 -121.5t-26.5 -142q0 -60 19 -115.5t57 -98t95.5 -67.5t135.5 -25q67 0 121 19.5t95 54.5t67.5 85t38.5 110h-259zM499 913l155 -145l-13 -16l-144 135l-171 -135l-12 16z" />
    <glyph glyph-name="gcircumflex" unicode="&#x11d;" horiz-adv-x="580" 
d="M309 408q-48 0 -88.5 -17.5t-70 -47.5t-45.5 -69.5t-16 -82.5q0 -37 12 -70t35 -57.5t56.5 -38.5t76.5 -14q48 0 88.5 17.5t70 47.5t46 69.5t16.5 83.5q0 37 -12.5 69.5t-35.5 57t-56.5 38.5t-76.5 14zM482 -46q-7 -68 -27.5 -114.5t-52.5 -75.5t-73.5 -41.5t-90.5 -12.5
q-62 0 -101 17.5t-60.5 47t-28.5 68.5t-5 83h20q-2 -40 4.5 -75.5t26 -62.5t55.5 -42.5t92 -15.5q46 0 84 12t66.5 39t46.5 69.5t24 103.5l18 172q-28 -60 -83.5 -97.5t-130.5 -37.5q-47 0 -83.5 15.5t-61.5 42.5t-38.5 63t-13.5 77q0 48 18 91.5t50 76t76.5 52t97.5 19.5
q76 0 123.5 -37.5t63.5 -96.5l13 125h20zM340 707l155 -145l-14 -16l-143 135l-172 -135l-11 16z" />
    <glyph glyph-name="Gbreve" unicode="&#x11e;" horiz-adv-x="828" 
d="M474 296h350l-2 -20h-70q-12 -65 -41 -118t-72.5 -91t-101.5 -59t-130 -21q-83 0 -144 27t-101 72t-60 103.5t-20 121.5q0 78 28 150.5t80 128.5t124 89.5t161 33.5q54 0 98.5 -12.5t78.5 -35t56.5 -52.5t31.5 -65h-21q-9 29 -29.5 55.5t-52 46.5t-72.5 31.5t-92 11.5
q-84 0 -152 -32t-117 -84.5t-75.5 -121.5t-26.5 -142q0 -60 19 -115.5t57 -98t95.5 -67.5t135.5 -25q67 0 121 19.5t95 54.5t67.5 85t38.5 110h-259zM474 785q59 0 105 30t63 86h21q-9 -33 -27.5 -58t-43.5 -42t-56 -26t-64 -9q-67 0 -112.5 34.5t-50.5 100.5h21
q5 -56 45 -86t99 -30z" />
    <glyph glyph-name="gbreve" unicode="&#x11f;" horiz-adv-x="580" 
d="M309 408q-48 0 -88.5 -17.5t-70 -47.5t-45.5 -69.5t-16 -82.5q0 -37 12 -70t35 -57.5t56.5 -38.5t76.5 -14q48 0 88.5 17.5t70 47.5t46 69.5t16.5 83.5q0 37 -12.5 69.5t-35.5 57t-56.5 38.5t-76.5 14zM482 -46q-7 -68 -27.5 -114.5t-52.5 -75.5t-73.5 -41.5t-90.5 -12.5
q-62 0 -101 17.5t-60.5 47t-28.5 68.5t-5 83h20q-2 -40 4.5 -75.5t26 -62.5t55.5 -42.5t92 -15.5q46 0 84 12t66.5 39t46.5 69.5t24 103.5l18 172q-28 -60 -83.5 -97.5t-130.5 -37.5q-47 0 -83.5 15.5t-61.5 42.5t-38.5 63t-13.5 77q0 48 18 91.5t50 76t76.5 52t97.5 19.5
q76 0 123.5 -37.5t63.5 -96.5l13 125h20zM333 583q55 0 99 30.5t61 86.5h20q-19 -66 -69 -100.5t-113 -34.5t-105.5 34.5t-46.5 100.5h20q5 -56 42 -86.5t92 -30.5z" />
    <glyph glyph-name="Gdotaccent" unicode="&#x120;" horiz-adv-x="828" 
d="M483 858h20l-11 -103h-20zM474 296h350l-2 -20h-70q-12 -65 -41 -118t-72.5 -91t-101.5 -59t-130 -21q-83 0 -144 27t-101 72t-60 103.5t-20 121.5q0 78 28 150.5t80 128.5t124 89.5t161 33.5q54 0 98.5 -12.5t78.5 -35t56.5 -52.5t31.5 -65h-21q-9 29 -29.5 55.5
t-52 46.5t-72.5 31.5t-92 11.5q-84 0 -152 -32t-117 -84.5t-75.5 -121.5t-26.5 -142q0 -60 19 -115.5t57 -98t95.5 -67.5t135.5 -25q67 0 121 19.5t95 54.5t67.5 85t38.5 110h-259z" />
    <glyph glyph-name="gdotaccent" unicode="&#x121;" horiz-adv-x="580" 
d="M324 648h20l-11 -103h-20zM309 408q-48 0 -88.5 -17.5t-70 -47.5t-45.5 -69.5t-16 -82.5q0 -37 12 -70t35 -57.5t56.5 -38.5t76.5 -14q48 0 88.5 17.5t70 47.5t46 69.5t16.5 83.5q0 37 -12.5 69.5t-35.5 57t-56.5 38.5t-76.5 14zM482 -46q-7 -68 -27.5 -114.5
t-52.5 -75.5t-73.5 -41.5t-90.5 -12.5q-62 0 -101 17.5t-60.5 47t-28.5 68.5t-5 83h20q-2 -40 4.5 -75.5t26 -62.5t55.5 -42.5t92 -15.5q46 0 84 12t66.5 39t46.5 69.5t24 103.5l18 172q-28 -60 -83.5 -97.5t-130.5 -37.5q-47 0 -83.5 15.5t-61.5 42.5t-38.5 63t-13.5 77
q0 48 18 91.5t50 76t76.5 52t97.5 19.5q76 0 123.5 -37.5t63.5 -96.5l13 125h20z" />
    <glyph glyph-name="Gcommaaccent" unicode="&#x122;" horiz-adv-x="828" 
d="M474 296h350l-2 -20h-70q-12 -65 -41 -118t-72.5 -91t-101.5 -59t-130 -21q-83 0 -144 27t-101 72t-60 103.5t-20 121.5q0 78 28 150.5t80 128.5t124 89.5t161 33.5q54 0 98.5 -12.5t78.5 -35t56.5 -52.5t31.5 -65h-21q-9 29 -29.5 55.5t-52 46.5t-72.5 31.5t-92 11.5
q-84 0 -152 -32t-117 -84.5t-75.5 -121.5t-26.5 -142q0 -60 19 -115.5t57 -98t95.5 -67.5t135.5 -25q67 0 121 19.5t95 54.5t67.5 85t38.5 110h-259zM317 -179q25 0 43 12.5t21 43.5l10 99h20l-10 -99q-5 -42 -28.5 -59t-57.5 -17z" />
    <glyph glyph-name="gcommaaccent" unicode="&#x123;" horiz-adv-x="580" 
d="M482 -46q-7 -68 -27.5 -114.5t-52.5 -75.5t-73.5 -41.5t-90.5 -12.5q-62 0 -101 17.5t-60.5 47t-28.5 68.5t-5 83h20q-2 -40 4.5 -75.5t26 -62.5t55.5 -42.5t92 -15.5q46 0 84 12t66.5 39t46.5 69.5t24 103.5l18 172q-28 -60 -83.5 -97.5t-130.5 -37.5q-47 0 -83.5 15.5
t-61.5 42.5t-38.5 63t-13.5 77q0 48 18 91.5t50 76t76.5 52t97.5 19.5q76 0 123.5 -37.5t63.5 -96.5l13 125h20zM269 11q48 0 88.5 17.5t70 47.5t46 69.5t16.5 83.5q0 37 -12.5 69.5t-35.5 57t-56.5 38.5t-76.5 14q-48 0 -88.5 -17.5t-70 -47.5t-45.5 -69.5t-16 -82.5
q0 -37 12 -70t35 -57.5t56.5 -38.5t76.5 -14zM401 680q-25 0 -42.5 -12.5t-20.5 -43.5l-10 -99h-20l10 99q5 42 28.5 59t57.5 17z" />
    <glyph glyph-name="Hcircumflex" unicode="&#x124;" horiz-adv-x="660" 
d="M583 338h-434l-36 -338h-20l74 700h20l-36 -342h434l36 342h20l-74 -700h-20zM426 913l155 -145l-14 -16l-144 135l-171 -135l-11 16z" />
    <glyph glyph-name="hcircumflex" unicode="&#x125;" horiz-adv-x="554" 
d="M167 700h20l-43 -409q10 26 28.5 51t44 44t57.5 30.5t70 11.5t68.5 -12t50.5 -36q42 -47 33 -138l-25 -242h-20l25 240q4 36 -2.5 66.5t-23.5 53t-44.5 35.5t-65.5 13q-48 0 -84.5 -19t-62.5 -48.5t-40.5 -64t-17.5 -64.5l-22 -212h-20zM393 913l155 -145l-14 -16
l-144 135l-171 -135l-11 16z" />
    <glyph glyph-name="Hbar" unicode="&#x126;" horiz-adv-x="660" 
d="M601 516h-434l-16 -158h434zM187 700l-18 -164h434l18 164h20l-74 -700h-20l36 338h-434l-36 -338h-20l74 700h20z" />
    <glyph glyph-name="hbar" unicode="&#x127;" horiz-adv-x="554" 
d="M416 554h-245l-28 -263q11 26 29.5 51t44 44t57.5 30.5t70 11.5t68.5 -12t50.5 -36q42 -48 33 -138l-25 -242h-20l25 240q4 36 -2.5 66.5t-23.5 53t-44.5 35.5t-65.5 13q-48 0 -84.5 -19t-62.5 -48.5t-40.5 -64t-17.5 -64.5l-22 -212h-20l58 554h-93l2 20h93l13 126h20
l-13 -126h245z" />
    <glyph glyph-name="Itilde" unicode="&#x128;" horiz-adv-x="206" 
d="M167 700h20l-74 -700h-20zM259 809q26 0 50 18.5t35 45.5l19 -7q-17 -37 -46.5 -56t-59.5 -19q-24 0 -40.5 10t-31 22t-29 22t-33.5 10q-26 0 -50 -18.5t-35 -45.5l-19 7q17 37 46.5 56t59.5 19q24 0 40.5 -10t31 -22t29 -22t33.5 -10z" />
    <glyph glyph-name="itilde" unicode="&#x129;" horiz-adv-x="206" 
d="M137 419h20l-44 -419h-20zM243 585q26 0 50 18.5t35 45.5l19 -7q-17 -37 -46.5 -56t-59.5 -19q-24 0 -40.5 10t-31 22t-29 22t-33.5 10q-26 0 -50 -18.5t-35 -45.5l-19 7q17 37 46.5 56t59.5 19q24 0 40.5 -10t31 -22t29 -22t33.5 -10z" />
    <glyph glyph-name="Imacron" unicode="&#x12a;" horiz-adv-x="206" 
d="M167 700h20l-74 -700h-20zM366 797h-358l2 20h358z" />
    <glyph glyph-name="imacron" unicode="&#x12b;" horiz-adv-x="206" 
d="M137 419h20l-44 -419h-20zM336 586h-358l2 20h358z" />
    <glyph glyph-name="Ibreve" unicode="&#x12c;" horiz-adv-x="206" 
d="M167 700h20l-74 -700h-20zM187 785q59 0 105 30t63 86h21q-9 -33 -27.5 -58t-43.5 -42t-56 -26t-64 -9q-67 0 -112.5 34.5t-50.5 100.5h21q5 -56 45 -86t99 -30z" />
    <glyph glyph-name="ibreve" unicode="&#x12d;" horiz-adv-x="206" 
d="M137 419h20l-44 -419h-20zM164 583q55 0 98.5 30.5t60.5 86.5h20q-18 -66 -68 -100.5t-113 -34.5t-105.5 34.5t-47.5 100.5h20q5 -56 42.5 -86.5t92.5 -30.5z" />
    <glyph glyph-name="Iogonek" unicode="&#x12e;" horiz-adv-x="206" 
d="M113 0h-8q-42 -29 -64 -61t-22 -61t21.5 -49.5t66.5 -20.5q23 0 47.5 5.5t40.5 10.5l-4 -21q-17 -5 -39 -10t-46 -5q-55 0 -81 26t-26 63t24.5 65.5t69.5 57.5l73 700h20z" />
    <glyph glyph-name="iogonek" unicode="&#x12f;" horiz-adv-x="206" 
d="M191 -197q-17 -5 -39 -10t-46 -5q-55 0 -81 26t-26 63t24.5 65.5t69.5 57.5l44 419h20l-44 -419h-8q-42 -29 -64 -61.5t-22 -61.5t21.5 -49t65.5 -20q24 0 48.5 5.5t40.5 10.5zM161 648h20l-11 -103h-20z" />
    <glyph glyph-name="Idotaccent" unicode="&#x130;" horiz-adv-x="206" 
d="M183 858h20l-11 -103h-20zM167 700h20l-74 -700h-20z" />
    <glyph glyph-name="dotlessi" unicode="&#x131;" horiz-adv-x="206" 
d="M137 419h20l-44 -419h-20z" />
    <glyph glyph-name="Jcircumflex" unicode="&#x134;" horiz-adv-x="535" 
d="M479 205q-6 -52 -26 -92.5t-51 -68.5t-71 -42.5t-85 -14.5t-84.5 14.5t-68 42.5t-43 68.5t-8.5 92.5h20q-5 -47 8 -83.5t39 -62t62 -39t77 -13.5t77 13.5t64.5 39t46.5 62t23 83.5l52 495h20zM544 913l155 -145l-14 -16l-144 135l-171 -135l-11 16z" />
    <glyph glyph-name="jcircumflex" unicode="&#x135;" horiz-adv-x="206" 
d="M96 -161q-6 -58 -35.5 -91.5t-82.5 -33.5q-14 0 -27 2.5t-28 10.5l2 23q26 -16 55 -16q44 0 67.5 28t28.5 77l61 580h20zM177 707l155 -145l-14 -16l-144 135l-171 -135l-11 16z" />
    <glyph glyph-name="Kcommaaccent" unicode="&#x136;" horiz-adv-x="539" 
d="M507 0l-357 350l-37 -350h-20l74 700h20l-37 -350l431 350h30l-431 -350l357 -350h-30zM192 -179q25 0 43 12.5t21 43.5l10 99h20l-10 -99q-5 -42 -28.5 -59t-57.5 -17z" />
    <glyph glyph-name="kcommaaccent" unicode="&#x137;" horiz-adv-x="410" 
d="M436 419l-268 -210l224 -209h-33l-224 209l-22 -209h-20l74 700h20l-52 -491l268 210h33zM154 -155q25 0 43 12.5t21 43.5l10 99h20l-10 -99q-5 -42 -28.5 -59t-57.5 -17z" />
    <glyph glyph-name="kgreenlandic" unicode="&#x138;" horiz-adv-x="410" 
d="M168 209l224 -209h-33l-224 209l-22 -209h-20l44 419h20l-22 -210l268 210h33z" />
    <glyph glyph-name="Lacute" unicode="&#x139;" horiz-adv-x="414" 
d="M381 20l-2 -20h-286l74 700h20l-72 -680h266zM166 750l-8 18l263 137l8 -18z" />
    <glyph glyph-name="lacute" unicode="&#x13a;" horiz-adv-x="206" 
d="M167 700h20l-74 -700h-20zM63 750l-8 18l263 137l9 -18z" />
    <glyph glyph-name="Lcommaaccent" unicode="&#x13b;" horiz-adv-x="414" 
d="M167 700h20l-72 -680h266l-2 -20h-286zM157 -179q25 0 43 12.5t21 43.5l10 99h20l-10 -99q-5 -42 -28.5 -59t-57.5 -17z" />
    <glyph glyph-name="lcommaaccent" unicode="&#x13c;" horiz-adv-x="206" 
d="M166 700h20l-73 -700h-20zM16 -179q25 0 43 12.5t21 43.5l10 99h20l-10 -99q-5 -42 -28.5 -59t-57.5 -17z" />
    <glyph glyph-name="Lcaron" unicode="&#x13d;" horiz-adv-x="414" 
d="M381 20l-2 -20h-286l74 700h20l-72 -680h266zM332 533q25 0 43 12.5t21 43.5l10 99h20l-10 -99q-5 -42 -28.5 -59t-57.5 -17z" />
    <glyph glyph-name="lcaron" unicode="&#x13e;" horiz-adv-x="261" 
d="M167 700h20l-74 -700h-20zM222 545q25 0 43 12.5t21 43.5l10 99h20l-10 -99q-5 -42 -28.5 -59t-57.5 -17z" />
    <glyph glyph-name="Ldot" unicode="&#x13f;" horiz-adv-x="414" 
d="M316 428h20l-11 -103h-20zM381 20l-2 -20h-286l74 700h20l-72 -680h266z" />
    <glyph glyph-name="ldot" unicode="&#x140;" horiz-adv-x="278" 
d="M268 364h20l-11 -103h-20zM167 700h20l-74 -700h-20z" />
    <glyph glyph-name="Lslash" unicode="&#x141;" horiz-adv-x="414" 
d="M381 20l-2 -20h-286l33 312l-69 -36l3 24l68 35l39 365h20l-38 -354l163 85l-2 -23l-163 -85l-32 -303h266z" />
    <glyph glyph-name="lslash" unicode="&#x142;" horiz-adv-x="206" 
d="M127 328l-111 -58l3 24l111 57l36 349h20l-35 -338l120 63l-2 -23l-121 -63l-35 -339h-20z" />
    <glyph glyph-name="Nacute" unicode="&#x143;" horiz-adv-x="659" 
d="M549 31l71 669h20l-74 -700h-24l-359 669l-70 -669h-20l74 700h24zM299 750l-8 18l263 137l8 -18z" />
    <glyph glyph-name="nacute" unicode="&#x144;" horiz-adv-x="554" 
d="M137 419h20l-13 -128q10 26 28.5 51t44 44t57.5 30.5t70 11.5t68.5 -12t50.5 -36q42 -47 33 -138l-25 -242h-20l25 240q4 36 -2.5 66.5t-23.5 53t-44.5 35.5t-65.5 13q-48 0 -84.5 -19t-62.5 -48.5t-40.5 -64t-17.5 -64.5l-22 -212h-20zM234 525l-8 18l263 137l9 -18z
" />
    <glyph glyph-name="Ncommaaccent" unicode="&#x145;" horiz-adv-x="659" 
d="M542 0l-359 669l-70 -669h-20l74 700h24l358 -669l71 669h20l-74 -700h-24zM257 -179q25 0 43 12.5t21 43.5l10 99h20l-10 -99q-5 -42 -28.5 -59t-57.5 -17z" />
    <glyph glyph-name="ncommaaccent" unicode="&#x146;" horiz-adv-x="554" 
d="M93 0l44 419h20l-13 -128q10 26 28.5 51t44 44t57.5 30.5t70 11.5t68.5 -12t50.5 -36q42 -47 33 -138l-25 -242h-20l25 240q4 36 -2.5 66.5t-23.5 53t-44.5 35.5t-65.5 13q-48 0 -84.5 -19t-62.5 -48.5t-40.5 -64t-17.5 -64.5l-22 -212h-20zM215 -179q25 0 43 12.5
t21 43.5l10 99h20l-10 -99q-5 -42 -28.5 -59t-57.5 -17z" />
    <glyph glyph-name="Ncaron" unicode="&#x147;" horiz-adv-x="659" 
d="M549 31l71 669h20l-74 -700h-24l-359 669l-70 -669h-20l74 700h24zM278 898l15 15l132 -133l162 133l11 -15l-176 -145z" />
    <glyph glyph-name="ncaron" unicode="&#x148;" horiz-adv-x="554" 
d="M93 0l44 419h20l-13 -128q10 26 28.5 51t44 44t57.5 30.5t70 11.5t68.5 -12t50.5 -36q42 -47 33 -138l-25 -242h-20l25 240q4 36 -2.5 66.5t-23.5 53t-44.5 35.5t-65.5 13q-48 0 -84.5 -19t-62.5 -48.5t-40.5 -64t-17.5 -64.5l-22 -212h-20zM210 692l14 15l132 -133
l162 133l12 -15l-177 -145z" />
    <glyph glyph-name="napostrophe" unicode="&#x149;" horiz-adv-x="554" 
d="M93 0l44 419h20l-14 -128q11 26 29.5 51t44 44t57.5 30.5t70 11.5t68.5 -12t50.5 -36q42 -47 33 -138l-25 -242h-20l25 240q4 36 -2.5 66.5t-23.5 53t-44.5 35.5t-65.5 13q-48 0 -84.5 -19t-62.5 -48.5t-40.5 -64t-17.5 -64.5l-22 -212h-20zM62 545q25 0 43 12.5t21 43.5
l10 99h20l-10 -99q-5 -42 -28.5 -59t-57.5 -17z" />
    <glyph glyph-name="Eng" unicode="&#x14a;" horiz-adv-x="659" 
d="M550 40l70 660h20l-81 -769q-5 -52 -25.5 -92.5t-51.5 -68.5t-71.5 -42.5t-85.5 -14.5q-58 0 -106 24t-74 70l14 15q24 -43 69 -66t100 -23q42 0 79 14t64.5 39.5t45 62t22.5 82.5l7 69l-363 669l-70 -669h-20l74 700h24z" />
    <glyph glyph-name="eng" unicode="&#x14b;" horiz-adv-x="554" 
d="M78 -200q26 -35 65.5 -52.5t87.5 -17.5q41 0 77.5 13.5t65 39t46.5 62t23 83.5l33 312q4 36 -3 66.5t-24 53t-44.5 35.5t-65.5 13q-48 0 -84.5 -19t-62 -48.5t-40 -64t-17.5 -64.5l-22 -212h-20l44 419h20l-14 -128q11 26 29.5 51t44 44t57.5 30.5t70 11.5t68.5 -12
t50.5 -36q42 -48 33 -138l-33 -314q-6 -52 -26 -92.5t-51 -68.5t-71.5 -42.5t-85.5 -14.5q-51 0 -95 19t-72 56z" />
    <glyph glyph-name="Omacron" unicode="&#x14c;" horiz-adv-x="812" 
d="M408 -13q-79 0 -139.5 27t-102 72.5t-62.5 104.5t-21 124q0 76 28.5 148t80.5 127.5t125 89t161 33.5q79 0 139.5 -27t102 -72.5t62.5 -105t21 -123.5q0 -76 -28.5 -148t-80.5 -127.5t-125 -89t-161 -33.5zM409 7q84 0 152.5 32t118 84.5t76.5 120.5t27 140
q0 61 -20 116.5t-58.5 98.5t-95.5 68.5t-132 25.5q-84 0 -152.5 -32t-118 -84.5t-76.5 -120.5t-27 -140q0 -61 20 -117t58.5 -98.5t95.5 -68t132 -25.5zM669 797h-358l2 20h358z" />
    <glyph glyph-name="omacron" unicode="&#x14d;" horiz-adv-x="535" 
d="M268 -9q-48 0 -85 15.5t-62.5 42.5t-38.5 63t-13 77q0 48 18 91.5t50 76t76 52t97 19.5q47 0 84.5 -15.5t63.5 -42.5t39.5 -63t13.5 -77q0 -48 -18.5 -91.5t-50.5 -76t-77 -52t-97 -19.5zM270 11q48 0 88.5 17.5t70 47.5t46 69t16.5 83q0 37 -12.5 70t-36 57.5t-57 38.5
t-76.5 14q-48 0 -88.5 -18t-70 -48t-45.5 -69.5t-16 -82.5q0 -37 12 -69.5t35.5 -57t57 -38.5t76.5 -14zM508 586h-358l2 20h358z" />
    <glyph glyph-name="Obreve" unicode="&#x14e;" horiz-adv-x="812" 
d="M408 -13q-79 0 -139.5 27t-102 72.5t-62.5 104.5t-21 124q0 76 28.5 148t80.5 127.5t125 89t161 33.5q79 0 139.5 -27t102 -72.5t62.5 -105t21 -123.5q0 -76 -28.5 -148t-80.5 -127.5t-125 -89t-161 -33.5zM409 7q84 0 152.5 32t118 84.5t76.5 120.5t27 140
q0 61 -20 116.5t-58.5 98.5t-95.5 68.5t-132 25.5q-84 0 -152.5 -32t-118 -84.5t-76.5 -120.5t-27 -140q0 -61 20 -117t58.5 -98.5t95.5 -68t132 -25.5zM489 785q59 0 105 30t63 86h21q-9 -33 -27.5 -58t-43.5 -42t-56 -26t-64 -9q-67 0 -112.5 34.5t-50.5 100.5h21
q5 -56 45 -86t99 -30z" />
    <glyph glyph-name="obreve" unicode="&#x14f;" horiz-adv-x="535" 
d="M268 -9q-48 0 -85 15.5t-62.5 42.5t-38.5 63t-13 77q0 48 18 91.5t50 76t76 52t97 19.5q47 0 84.5 -15.5t63.5 -42.5t39.5 -63t13.5 -77q0 -48 -18.5 -91.5t-50.5 -76t-77 -52t-97 -19.5zM270 11q48 0 88.5 17.5t70 47.5t46 69t16.5 83q0 37 -12.5 70t-36 57.5t-57 38.5
t-76.5 14q-48 0 -88.5 -18t-70 -48t-45.5 -69.5t-16 -82.5q0 -37 12 -69.5t35.5 -57t57 -38.5t76.5 -14zM328 583q55 0 98.5 30.5t60.5 86.5h20q-18 -66 -68 -100.5t-113 -34.5t-105.5 34.5t-47.5 100.5h20q5 -56 42.5 -86.5t92.5 -30.5z" />
    <glyph glyph-name="Ohungarumlaut" unicode="&#x150;" horiz-adv-x="812" 
d="M408 -13q-79 0 -139.5 27t-102 72.5t-62.5 104.5t-21 124q0 76 28.5 148t80.5 127.5t125 89t161 33.5q79 0 139.5 -27t102 -72.5t62.5 -105t21 -123.5q0 -76 -28.5 -148t-80.5 -127.5t-125 -89t-161 -33.5zM409 7q84 0 152.5 32t118 84.5t76.5 120.5t27 140
q0 61 -20 116.5t-58.5 98.5t-95.5 68.5t-132 25.5q-84 0 -152.5 -32t-118 -84.5t-76.5 -120.5t-27 -140q0 -61 20 -117t58.5 -98.5t95.5 -68t132 -25.5zM696 929l17 -9l-142 -167l-17 10zM501 929l17 -9l-142 -166l-17 9z" />
    <glyph glyph-name="ohungarumlaut" unicode="&#x151;" horiz-adv-x="535" 
d="M268 -9q-48 0 -85 15.5t-62.5 42.5t-38.5 63t-13 77q0 48 18 91.5t50 76t76 52t97 19.5q47 0 84.5 -15.5t63.5 -42.5t39.5 -63t13.5 -77q0 -48 -18.5 -91.5t-50.5 -76t-77 -52t-97 -19.5zM270 11q48 0 88.5 17.5t70 47.5t46 69t16.5 83q0 37 -12.5 70t-36 57.5t-57 38.5
t-76.5 14q-48 0 -88.5 -18t-70 -48t-45.5 -69.5t-16 -82.5q0 -37 12 -69.5t35.5 -57t57 -38.5t76.5 -14zM330 680l17 -9l-143 -166l-17 9zM399 504l-17 10l143 166l17 -9z" />
    <glyph glyph-name="OE" unicode="&#x152;" horiz-adv-x="1191" 
d="M836 680l-34 -322h339l-2 -20h-339l-34 -318h339l-2 -20h-359l24 227q-22 -51 -57.5 -94.5t-81.5 -76t-102.5 -51t-120.5 -18.5q-78 0 -138 27t-101.5 72.5t-62.5 104.5t-21 124q0 76 28.5 148t80.5 127.5t125.5 89t162.5 33.5q64 0 117 -18t92.5 -50t66 -76t38.5 -96
l24 227h359l-2 -20h-339zM409 7q84 0 152.5 32t118 84.5t76.5 120.5t27 140q0 61 -20 116.5t-58.5 98.5t-95.5 68.5t-132 25.5q-84 0 -152.5 -32t-118 -84.5t-76.5 -120.5t-27 -140q0 -61 20 -117t58.5 -98.5t95.5 -68t132 -25.5z" />
    <glyph glyph-name="oe" unicode="&#x153;" horiz-adv-x="921" 
d="M510 215q-5 -41 3.5 -78t29 -65t54 -44.5t79.5 -16.5q33 0 60.5 8.5t50 22.5t38 32.5t24.5 39.5h21q-9 -25 -27 -47t-43 -39t-57 -27t-70 -10q-41 0 -72.5 11.5t-54 31.5t-36.5 47t-19 58q-14 -32 -36 -59t-50.5 -47t-63.5 -31t-74 -11q-47 0 -83.5 16t-62 43t-39 63
t-13.5 77q0 48 18 91t50 75.5t76.5 52t97.5 19.5q80 0 130.5 -41.5t64.5 -105.5q23 65 77.5 106t129.5 41q40 0 73.5 -13t56.5 -36t36 -55t13 -69q0 -15 -1.5 -23.5t-3.5 -16.5h-377zM712 408q-39 0 -72.5 -13t-59 -36t-43 -55t-24.5 -69h357q4 38 -6 69.5t-31 54.5
t-51.5 36t-69.5 13zM270 11q48 0 88.5 17.5t70 47.5t46 69t16.5 83q0 37 -12.5 70t-36 57.5t-57 38.5t-76.5 14q-48 0 -88.5 -18t-70 -48t-45.5 -69.5t-16 -82.5q0 -37 12 -69.5t35.5 -57t57 -38.5t76.5 -14z" />
    <glyph glyph-name="Racute" unicode="&#x154;" horiz-adv-x="595" 
d="M167 700h230q47 0 84 -15.5t62.5 -42.5t39 -63t13.5 -77q0 -44 -14.5 -83t-41.5 -70.5t-64.5 -53t-82.5 -29.5l146 -266h-25l-143 263h-230l-28 -263h-20zM353 283q49 0 90.5 17.5t70.5 47.5t45.5 69t16.5 83q0 37 -12.5 70t-35.5 57.5t-57 38.5t-77 14h-210l-41 -397
h210zM257 750l-8 18l263 137l8 -18z" />
    <glyph glyph-name="racute" unicode="&#x155;" horiz-adv-x="327" 
d="M369 400q-13 4 -21.5 5t-16.5 1q-48 0 -83.5 -21t-60 -52.5t-38 -69t-16.5 -70.5l-20 -193h-20l44 419h20l-14 -134q32 76 83 108.5t104 32.5q12 0 22.5 -1.5t18.5 -5.5zM133 525l-8 18l263 137l9 -18z" />
    <glyph glyph-name="Rcommaaccent" unicode="&#x156;" horiz-adv-x="595" 
d="M167 700h230q47 0 84 -15.5t62.5 -42.5t39 -63t13.5 -77q0 -44 -14.5 -83t-41.5 -70.5t-64.5 -53t-82.5 -29.5l146 -266h-25l-143 263h-230l-28 -263h-20zM184 680l-41 -397h210q49 0 90.5 17.5t70.5 47.5t45.5 69t16.5 83q0 37 -12.5 70t-35.5 57.5t-57 38.5t-77 14
h-210zM232 -179q25 0 43 12.5t21 43.5l10 99h20l-10 -99q-5 -42 -28.5 -59t-57.5 -17z" />
    <glyph glyph-name="rcommaaccent" unicode="&#x157;" horiz-adv-x="327" 
d="M369 400q-14 4 -22 5t-16 1q-48 0 -83.5 -21t-60 -52.5t-38 -69t-16.5 -70.5l-20 -193h-20l44 419h20l-14 -134q32 76 82.5 108.5t104.5 32.5q26 0 41 -7zM16 -179q25 0 43 12.5t21 43.5l10 99h20l-10 -99q-5 -42 -28.5 -59t-57.5 -17z" />
    <glyph glyph-name="Rcaron" unicode="&#x158;" horiz-adv-x="595" 
d="M167 700h230q47 0 84 -15.5t62.5 -42.5t39 -63t13.5 -77q0 -44 -14.5 -83t-41.5 -70.5t-64.5 -53t-82.5 -29.5l146 -266h-25l-143 263h-230l-28 -263h-20zM353 283q49 0 90.5 17.5t70.5 47.5t45.5 69t16.5 83q0 37 -12.5 70t-35.5 57.5t-57 38.5t-77 14h-210l-41 -397
h210zM231 898l15 15l132 -133l162 133l11 -15l-176 -145z" />
    <glyph glyph-name="rcaron" unicode="&#x159;" horiz-adv-x="327" 
d="M369 400q-13 4 -21.5 5t-16.5 1q-48 0 -83.5 -21t-60 -52.5t-38 -69t-16.5 -70.5l-20 -193h-20l44 419h20l-14 -134q32 76 83 108.5t104 32.5q12 0 22.5 -1.5t18.5 -5.5zM99 692l14 15l132 -133l162 133l12 -15l-177 -145z" />
    <glyph glyph-name="Sacute" unicode="&#x15a;" horiz-adv-x="575" 
d="M94 205q-4 -41 6 -77t35.5 -63t67 -42.5t99.5 -15.5q50 0 91.5 12t71 35.5t46 57t16.5 75.5q0 43 -16 70t-42 44t-58.5 26t-66.5 17q-41 9 -78 19.5t-66 28.5t-46 47t-17 76q0 42 15 78t44.5 62.5t73 42t101.5 15.5q104 0 154 -51t43 -150h-20q5 89 -40 135t-139 46
q-52 0 -91.5 -13.5t-66.5 -37.5t-40.5 -56t-13.5 -69q0 -41 16 -67t43 -42.5t62.5 -26t73.5 -17.5q37 -8 72 -18.5t62.5 -29t44 -49t16.5 -77.5q0 -48 -18 -85.5t-50.5 -64t-78 -40t-100.5 -13.5q-61 0 -105.5 16.5t-73 45.5t-40.5 69t-7 87h20zM257 750l-8 18l264 137
l8 -18z" />
    <glyph glyph-name="sacute" unicode="&#x15b;" horiz-adv-x="446" 
d="M248 221q30 -5 57.5 -10t48.5 -16t33.5 -29.5t12.5 -49.5q0 -56 -42 -90.5t-127 -34.5q-37 0 -69 8t-54.5 26t-34 46.5t-6.5 70.5h20q-4 -36 6 -61t30 -40.5t48 -22.5t61 -7q73 0 110.5 28.5t37.5 73.5q0 25 -11 40.5t-30 24.5t-44 14t-53 9q-29 4 -55 9t-46 15.5
t-32 28.5t-12 48q0 59 44.5 92.5t119.5 33.5q36 0 65.5 -8.5t49.5 -25.5t29.5 -43t5.5 -60h-20q3 30 -5 52t-25.5 36.5t-43 21.5t-56.5 7q-64 0 -104 -28.5t-40 -76.5q0 -22 9 -36t26 -22.5t41.5 -14t54.5 -9.5zM156 525l-8 18l263 137l8 -18z" />
    <glyph glyph-name="Scircumflex" unicode="&#x15c;" horiz-adv-x="575" 
d="M94 205q-4 -41 6 -77t35.5 -63t67 -42.5t99.5 -15.5q50 0 91.5 12t71 35.5t46 57t16.5 75.5q0 43 -16 70t-42 44t-58.5 26t-66.5 17q-41 9 -78 19.5t-66 28.5t-46 47t-17 76q0 42 15 78t44.5 62.5t73 42t101.5 15.5q104 0 154 -51t43 -150h-20q5 89 -40 135t-139 46
q-52 0 -91.5 -13.5t-66.5 -37.5t-40.5 -56t-13.5 -69q0 -41 16 -67t43 -42.5t62.5 -26t73.5 -17.5q37 -8 72 -18.5t62.5 -29t44 -49t16.5 -77.5q0 -48 -18 -85.5t-50.5 -64t-78 -40t-100.5 -13.5q-61 0 -105.5 16.5t-73 45.5t-40.5 69t-7 87h20zM398 913l155 -145l-13 -16
l-144 135l-171 -135l-12 16z" />
    <glyph glyph-name="scircumflex" unicode="&#x15d;" horiz-adv-x="446" 
d="M248 221q30 -5 57.5 -10t48.5 -16t33.5 -29.5t12.5 -49.5q0 -56 -42 -90.5t-127 -34.5q-37 0 -69 8t-54.5 26t-34 46.5t-6.5 70.5h20q-4 -36 6 -61t30 -40.5t48 -22.5t61 -7q73 0 110.5 28.5t37.5 73.5q0 25 -11 40.5t-30 24.5t-44 14t-53 9q-29 4 -55 9t-46 15.5
t-32 28.5t-12 48q0 59 44.5 92.5t119.5 33.5q36 0 65.5 -8.5t49.5 -25.5t29.5 -43t5.5 -60h-20q3 30 -5 52t-25.5 36.5t-43 21.5t-56.5 7q-64 0 -104 -28.5t-40 -76.5q0 -22 9 -36t26 -22.5t41.5 -14t54.5 -9.5zM294 707l155 -145l-14 -16l-144 135l-171 -135l-11 16z" />
    <glyph glyph-name="Scedilla" unicode="&#x15e;" horiz-adv-x="575" 
d="M264 -12q-51 4 -88.5 22.5t-62 47t-35 66t-5.5 81.5h20q-4 -41 6 -77t35.5 -63t67 -42.5t99.5 -15.5q50 0 91.5 12.5t71 35.5t46 57t16.5 77q0 45 -17 72.5t-45 44t-63 25.5t-71 17q-37 8 -72 18.5t-62 28.5t-43.5 47t-16.5 74q0 41 15 77t44.5 62.5t73.5 42t102 15.5
q105 0 154 -51.5t42 -149.5h-20q5 90 -40 135.5t-139 45.5q-52 0 -91.5 -13.5t-66.5 -37t-40.5 -55t-13.5 -67.5q0 -44 18 -71t46.5 -43.5t63.5 -25.5t68 -16q39 -9 74 -19.5t61.5 -29t42.5 -48.5t16 -78q0 -100 -70.5 -151t-191.5 -51l-8 -77q11 19 29.5 29t40.5 10
q35 0 58 -23.5t23 -59.5q0 -20 -7.5 -38t-21 -32t-32.5 -22t-41 -8q-42 0 -64 27t-17 65h20q-3 -29 13.5 -50.5t50.5 -21.5q35 0 57 23.5t22 55.5q0 26 -16.5 45t-51.5 19q-13 0 -30.5 -7.5t-35.5 -39.5h-20z" />
    <glyph glyph-name="scedilla" unicode="&#x15f;" horiz-adv-x="446" 
d="M205 -8q-32 3 -59.5 12.5t-46 27.5t-27.5 45t-5 65h20q-4 -36 6 -61t30 -40.5t48 -22.5t61 -7q73 0 110.5 29t37.5 74q0 25 -11 40.5t-30 24.5t-45 14t-56 9t-55.5 9.5t-44.5 16.5t-30 28.5t-11 46.5q0 58 44.5 91.5t119.5 33.5q36 0 65.5 -8.5t49.5 -25.5t29.5 -43
t5.5 -60h-20q3 30 -5 52t-25.5 36.5t-43 21.5t-56.5 7q-65 0 -104.5 -28t-39.5 -74q0 -23 10.5 -37.5t29 -23.5t45 -14t58.5 -10q30 -5 55.5 -11.5t44 -18t29.5 -29.5t11 -47q0 -57 -43.5 -90.5t-131.5 -33.5l-9 -81q11 19 29.5 29t40.5 10q35 0 58 -23.5t23 -59.5
q0 -20 -7.5 -38t-21 -32t-32.5 -22t-41 -8q-42 0 -63.5 27t-17.5 65h20q-3 -29 13.5 -50.5t50.5 -21.5q35 0 57 23.5t22 55.5q0 26 -16.5 45t-51.5 19q-13 0 -30.5 -7.5t-35.5 -39.5h-20z" />
    <glyph glyph-name="Scaron" unicode="&#x160;" horiz-adv-x="575" 
d="M94 205q-4 -41 6 -77t35.5 -63t67 -42.5t99.5 -15.5q50 0 91.5 12t71 35.5t46 57t16.5 75.5q0 43 -16 70t-42 44t-58.5 26t-66.5 17q-41 9 -78 19.5t-66 28.5t-46 47t-17 76q0 42 15 78t44.5 62.5t73 42t101.5 15.5q104 0 154 -51t43 -150h-20q5 89 -40 135t-139 46
q-52 0 -91.5 -13.5t-66.5 -37.5t-40.5 -56t-13.5 -69q0 -41 16 -67t43 -42.5t62.5 -26t73.5 -17.5q37 -8 72 -18.5t62.5 -29t44 -49t16.5 -77.5q0 -48 -18 -85.5t-50.5 -64t-78 -40t-100.5 -13.5q-61 0 -105.5 16.5t-73 45.5t-40.5 69t-7 87h20zM239 909l15 15l132 -133
l162 133l11 -15l-176 -145z" />
    <glyph glyph-name="scaron" unicode="&#x161;" horiz-adv-x="446" 
d="M248 221q30 -5 57.5 -10t48.5 -16t33.5 -29.5t12.5 -49.5q0 -56 -42 -90.5t-127 -34.5q-37 0 -69 8t-54.5 26t-34 46.5t-6.5 70.5h20q-4 -36 6 -61t30 -40.5t48 -22.5t61 -7q73 0 110.5 28.5t37.5 73.5q0 25 -11 40.5t-30 24.5t-44 14t-53 9q-29 4 -55 9t-46 15.5
t-32 28.5t-12 48q0 59 44.5 92.5t119.5 33.5q36 0 65.5 -8.5t49.5 -25.5t29.5 -43t5.5 -60h-20q3 30 -5 52t-25.5 36.5t-43 21.5t-56.5 7q-64 0 -104 -28.5t-40 -76.5q0 -22 9 -36t26 -22.5t41.5 -14t54.5 -9.5zM135 685l14 15l132 -133l162 133l12 -15l-177 -145z" />
    <glyph glyph-name="Tcommaaccent" unicode="&#x162;" horiz-adv-x="465" 
d="M293 680h-204l2 20h429l-2 -20h-205l-71 -680h-20zM145 -176q25 0 43 12.5t21 43.5l10 99h20l-10 -99q-5 -42 -28.5 -59t-57.5 -17z" />
    <glyph glyph-name="tcommaaccent" unicode="&#x163;" horiz-adv-x="306" 
d="M64 419h100l20 188h20l-20 -188h150l-2 -20h-150l-27 -261q-4 -40 1.5 -64.5t17.5 -37.5t28.5 -17.5t35.5 -4.5q16 0 35.5 2t34.5 4l-2 -20q-13 -2 -33 -4t-38 -2q-26 0 -46.5 5.5t-34 21t-19 44t-0.5 73.5l27 261h-100zM120 -179q25 0 43 12.5t21 43.5l10 99h20l-10 -99
q-5 -42 -28.5 -59t-57.5 -17z" />
    <glyph glyph-name="Tcaron" unicode="&#x164;" horiz-adv-x="465" 
d="M293 680h-204l2 20h429l-2 -20h-205l-71 -680h-20zM166 898l14 15l133 -133l161 133l12 -15l-176 -145z" />
    <glyph glyph-name="tcaron" unicode="&#x165;" horiz-adv-x="306" 
d="M64 419h100l20 188h20l-20 -188h150l-2 -20h-150l-27 -261q-4 -40 1.5 -64.5t17.5 -37.5t28.5 -17.5t35.5 -4.5q16 0 35.5 2t34.5 4l-2 -20q-13 -2 -33 -4t-38 -2q-26 0 -46.5 5.5t-34 21t-19 44t-0.5 73.5l27 261h-100zM246 533q25 0 43 12.5t21 43.5l10 99h20l-10 -99
q-5 -42 -28.5 -59t-57.5 -17z" />
    <glyph glyph-name="Tbar" unicode="&#x166;" horiz-adv-x="465" 
d="M466 481h-174l-50 -481h-20l50 481h-164l2 20h164l19 179h-204l2 20h429l-2 -20h-205l-19 -179h174z" />
    <glyph glyph-name="tbar" unicode="&#x167;" horiz-adv-x="306" 
d="M306 0q-13 -2 -33 -4t-39 -2q-23 0 -43 4.5t-34.5 19.5t-21 43.5t-1.5 76.5l10 92h-100l2 20h100l16 149h-100l2 20h100l20 188h20l-20 -188h150l-2 -20h-150l-16 -149h150l-2 -20h-150l-10 -92q-5 -41 1 -65.5t18 -37.5t29 -17t35 -4q16 0 36 2t35 4z" />
    <glyph glyph-name="Utilde" unicode="&#x168;" horiz-adv-x="595" 
d="M151 700h20l-52 -495q-4 -41 6.5 -77t34 -63t58.5 -42.5t80 -15.5t83.5 16t67.5 43t47 63t22 76l52 495h20l-52 -495q-5 -44 -24.5 -83.5t-51.5 -69.5t-74.5 -47.5t-92.5 -17.5t-88.5 17t-64 47t-37 69.5t-6.5 84.5zM454 809q26 0 50 18.5t35 45.5l19 -7
q-17 -37 -46.5 -56t-59.5 -19q-24 0 -40.5 10t-31 22t-29 22t-33.5 10q-26 0 -50 -18.5t-35 -45.5l-19 7q17 37 46.5 56t59.5 19q24 0 40.5 -10t31 -22t29 -22t33.5 -10z" />
    <glyph glyph-name="utilde" unicode="&#x169;" horiz-adv-x="551" 
d="M458 0h-20l13 128q-11 -26 -29 -51t-43 -44t-57 -30.5t-70 -11.5t-69 12t-51 36q-43 48 -34 138l25 242h21l-25 -240q-4 -36 2.5 -67t23.5 -53.5t44.5 -35t65.5 -12.5q48 0 84.5 19t62 48.5t40 64t17.5 64.5l22 212h21zM403 585q26 0 50 18.5t35 45.5l19 -7
q-17 -37 -46.5 -56t-59.5 -19q-24 0 -40.5 10t-31 22t-29 22t-33.5 10q-26 0 -50 -18.5t-35 -45.5l-19 7q17 37 46.5 56t59.5 19q24 0 40.5 -10t31 -22t29 -22t33.5 -10z" />
    <glyph glyph-name="Umacron" unicode="&#x16a;" horiz-adv-x="595" 
d="M151 700h20l-52 -495q-4 -41 6.5 -77t34 -63t58.5 -42.5t80 -15.5t83.5 16t67.5 43t47 63t22 76l52 495h20l-52 -495q-5 -44 -24.5 -83.5t-51.5 -69.5t-74.5 -47.5t-92.5 -17.5t-88.5 17t-64 47t-37 69.5t-6.5 84.5zM560 797h-358l2 20h358z" />
    <glyph glyph-name="umacron" unicode="&#x16b;" horiz-adv-x="551" 
d="M458 0h-20l13 128q-11 -26 -29 -51t-43 -44t-57 -30.5t-70 -11.5t-69 12t-51 36q-43 48 -34 138l25 242h21l-25 -240q-4 -36 2.5 -67t23.5 -53.5t44.5 -35t65.5 -12.5q48 0 84.5 19t62 48.5t40 64t17.5 64.5l22 212h21zM515 586h-358l2 20h358z" />
    <glyph glyph-name="Ubreve" unicode="&#x16c;" horiz-adv-x="595" 
d="M151 700h20l-52 -495q-4 -41 6.5 -77t34 -63t58.5 -42.5t80 -15.5t83.5 16t67.5 43t47 63t22 76l52 495h20l-52 -495q-5 -44 -24.5 -83.5t-51.5 -69.5t-74.5 -47.5t-92.5 -17.5t-88.5 17t-64 47t-37 69.5t-6.5 84.5zM374 785q59 0 105.5 30t63.5 86h21
q-19 -66 -72 -100.5t-120 -34.5t-112.5 34.5t-49.5 100.5h21q5 -56 44.5 -86t98.5 -30z" />
    <glyph glyph-name="ubreve" unicode="&#x16d;" horiz-adv-x="551" 
d="M458 0h-20l13 128q-11 -26 -29 -51t-43 -44t-57 -30.5t-70 -11.5t-69 12t-51 36q-43 48 -34 138l25 242h21l-25 -240q-4 -36 2.5 -67t23.5 -53.5t44.5 -35t65.5 -12.5q48 0 84.5 19t62 48.5t40 64t17.5 64.5l22 212h21zM332 583q55 0 98.5 30.5t60.5 86.5h20
q-18 -66 -68 -100.5t-113 -34.5t-105.5 34.5t-47.5 100.5h20q5 -56 42.5 -86.5t92.5 -30.5z" />
    <glyph glyph-name="Uring" unicode="&#x16e;" horiz-adv-x="595" 
d="M151 700h20l-52 -495q-4 -41 6.5 -77t34 -63t58.5 -42.5t80 -15.5t83.5 16t67.5 43t47 63t22 76l52 495h20l-52 -495q-5 -44 -24.5 -83.5t-51.5 -69.5t-74.5 -47.5t-92.5 -17.5t-88.5 17t-64 47t-37 69.5t-6.5 84.5zM398 976q24 0 44.5 -9t35.5 -24t23.5 -35.5t8.5 -43.5
q0 -27 -11 -51.5t-30 -42.5t-43 -29t-51 -11q-24 0 -44.5 9t-35.5 24.5t-23.5 36t-8.5 43.5q0 27 11 51t30 42.5t43 29t51 10.5zM396 956q-22 0 -42.5 -9t-36 -24t-25 -35.5t-9.5 -43.5q0 -19 7 -36t19.5 -30t29.5 -20.5t37 -7.5q22 0 43 9t36.5 24.5t25 35.5t9.5 43
q0 19 -7 36t-19.5 30t-29.5 20.5t-38 7.5z" />
    <glyph glyph-name="uring" unicode="&#x16f;" horiz-adv-x="551" 
d="M458 0h-20l13 128q-11 -26 -29 -51t-43 -44t-57 -30.5t-70 -11.5t-69 12t-51 36q-43 48 -34 138l25 242h21l-25 -240q-4 -36 2.5 -67t23.5 -53.5t44.5 -35t65.5 -12.5q48 0 84.5 19t62 48.5t40 64t17.5 64.5l22 212h21zM348 735q24 0 44.5 -9t35.5 -24t23.5 -35.5
t8.5 -43.5q0 -27 -11.5 -51.5t-30 -42.5t-43 -29t-51.5 -11q-24 0 -44.5 9t-35.5 24.5t-23.5 36t-8.5 43.5q0 27 11.5 51t30 42.5t43 29t51.5 10.5zM346 715q-22 0 -42.5 -9t-36.5 -24t-25.5 -35.5t-9.5 -43.5q0 -19 7 -36t19.5 -30t29.5 -20.5t38 -7.5q22 0 43 9t36.5 24.5
t25 35.5t9.5 43q0 19 -7 36t-19.5 30t-29.5 20.5t-38 7.5z" />
    <glyph glyph-name="Uhungarumlaut" unicode="&#x170;" horiz-adv-x="595" 
d="M151 700h20l-52 -495q-4 -41 6.5 -77t34 -63t58.5 -42.5t80 -15.5t83.5 16t67.5 43t47 63t22 76l52 495h20l-52 -495q-5 -44 -24.5 -83.5t-51.5 -69.5t-74.5 -47.5t-92.5 -17.5t-88.5 17t-64 47t-37 69.5t-6.5 84.5zM575 929l18 -9l-143 -167l-17 10zM380 929l18 -9
l-143 -166l-17 9z" />
    <glyph glyph-name="uhungarumlaut" unicode="&#x171;" horiz-adv-x="551" 
d="M502 419l-44 -419h-20l13 128q-11 -26 -29 -51t-43 -44t-57 -30.5t-70 -11.5t-69 12t-51 36q-43 48 -34 138l25 242h21l-25 -240q-4 -36 2.5 -67t23.5 -53.5t44.5 -35t65.5 -12.5q48 0 84.5 19t62 48.5t40 64t17.5 64.5l22 212h21zM207 505l-17 9l142 166l17 -9zM402 504
l-17 10l142 166l17 -9z" />
    <glyph glyph-name="Uogonek" unicode="&#x172;" horiz-adv-x="595" 
d="M406 -197q-17 -5 -39 -10t-46 -5q-55 0 -81 26t-26 63q0 32 19 58t55 52q-48 1 -85 19t-62 47.5t-36 68.5t-6 83l52 495h20l-52 -495q-4 -41 6.5 -77t33.5 -63t58 -42.5t80 -15.5t84 16t68 43t47 63t22 76l52 495h20l-52 -495q-5 -44 -24 -82.5t-49.5 -68.5t-72 -48
t-90.5 -19q-34 -27 -51 -55t-17 -54q0 -29 21.5 -49.5t66.5 -20.5q23 0 47.5 5.5t40.5 10.5z" />
    <glyph glyph-name="uogonek" unicode="&#x173;" horiz-adv-x="551" 
d="M252 -9q-38 0 -69 12t-51 36q-43 48 -34 138l25 242h21l-25 -240q-4 -36 2.5 -67t23.5 -53.5t44.5 -35t65.5 -12.5q48 0 84.5 19t62 48.5t40 64t17.5 64.5l22 212h21l-44 -419q-60 -23 -94.5 -54t-34.5 -71q0 -29 20.5 -48t58.5 -19q18 0 38 3.5t34 7.5l-5 -21
q-14 -4 -31.5 -7t-36.5 -3q-50 0 -74 23t-24 59q0 43 32.5 73.5t96.5 56.5l13 128q-11 -26 -29 -51t-43 -44t-57 -30.5t-70 -11.5z" />
    <glyph glyph-name="Wcircumflex" unicode="&#x174;" horiz-adv-x="907" 
d="M524 671l-264 -671h-21l-158 700h21l150 -673l265 673h21l123 -673l292 673h21l-306 -700h-21zM551 913l155 -145l-14 -16l-143 135l-172 -135l-11 16z" />
    <glyph glyph-name="wcircumflex" unicode="&#x175;" horiz-adv-x="675" 
d="M378 393l-181 -393h-20l-117 419h21l107 -395l183 395h21l98 -395l192 395h21l-205 -419h-20zM411 707l155 -145l-14 -16l-143 135l-172 -135l-11 16z" />
    <glyph glyph-name="Ycircumflex" unicode="&#x176;" horiz-adv-x="527" 
d="M157 0h-23l173 273l-227 427h24l216 -406l256 406h22zM380 913l155 -145l-14 -16l-143 135l-172 -135l-11 16z" />
    <glyph glyph-name="ycircumflex" unicode="&#x177;" horiz-adv-x="557" 
d="M247 -290q-54 0 -88.5 13.5t-54 40.5t-25 66.5t-1.5 91.5h20q-4 -47 1.5 -82.5t23 -60t48.5 -37t79 -12.5q43 0 76 11t56.5 35.5t38 64.5t20.5 97l20 190q-11 -27 -28.5 -51.5t-42 -43.5t-57.5 -30.5t-76 -11.5q-38 0 -67.5 10.5t-50.5 33.5q-22 24 -28.5 58.5t-0.5 93.5
l24 232h20l-24 -230q-9 -84 20 -131t109 -47q52 0 90.5 19t64 48t39.5 63.5t17 65.5l22 212h20l-51 -481q-7 -63 -23 -106.5t-42 -70.5t-63 -39t-86 -12zM352 707l155 -145l-14 -16l-144 135l-171 -135l-11 16z" />
    <glyph glyph-name="Ydieresis" unicode="&#x178;" horiz-adv-x="527" 
d="M469 858h20l-11 -103h-20zM238 858h20l-11 -103h-20zM157 0h-23l173 273l-227 427h24l216 -406l256 406h22z" />
    <glyph glyph-name="Zacute" unicode="&#x179;" horiz-adv-x="527" 
d="M113 700h483l-538 -680h486l-2 -20h-524l537 680h-445zM249 758l-8 18l263 137l8 -18z" />
    <glyph glyph-name="zacute" unicode="&#x17a;" horiz-adv-x="423" 
d="M427 419l-353 -399h314l-2 -20h-356l352 399h-295l2 20h338zM147 525l-8 18l263 137l9 -18z" />
    <glyph glyph-name="Zdotaccent" unicode="&#x17b;" horiz-adv-x="527" 
d="M349 858h20l-11 -103h-20zM113 700h483l-538 -680h486l-2 -20h-524l537 680h-445z" />
    <glyph glyph-name="zdotaccent" unicode="&#x17c;" horiz-adv-x="423" 
d="M269 648h20l-11 -103h-20zM427 419l-353 -399h314l-2 -20h-356l352 399h-295l2 20h338z" />
    <glyph glyph-name="Zcaron" unicode="&#x17d;" horiz-adv-x="527" 
d="M238 898l15 15l132 -133l162 133l11 -15l-176 -145zM113 700h483l-538 -680h486l-2 -20h-524l537 680h-445z" />
    <glyph glyph-name="zcaron" unicode="&#x17e;" horiz-adv-x="423" 
d="M127 671l14 15l132 -133l162 133l12 -15l-177 -145zM427 419l-353 -399h314l-2 -20h-356l352 399h-295l2 20h338z" />
    <glyph glyph-name="longs" unicode="&#x17f;" horiz-adv-x="310" 
d="M377 675q-13 6 -24.5 8.5t-28.5 2.5q-20 0 -38.5 -4.5t-34 -18t-26.5 -38t-15 -65.5l-59 -560h-20l42 399h-106l2 20h106l15 141q5 47 18 76t31 44.5t39.5 20.5t43.5 5q20 0 32.5 -3t24.5 -8z" />
    <glyph glyph-name="florin" unicode="&#x192;" horiz-adv-x="381" 
d="M-94 -259q12 -6 23 -8.5t28 -2.5q20 0 39.5 4.5t37.5 18t33 38t27 65.5l152 543h-106l6 20h105l40 141q13 47 31.5 76t39.5 44.5t43.5 20.5t44.5 5q20 0 31.5 -3t22.5 -8l-5 -20q-12 6 -23 8.5t-28 2.5q-20 0 -39.5 -4.5t-37.5 -18t-33 -38t-27 -65.5l-40 -141h156
l-6 -20h-155l-152 -543q-13 -47 -31 -76t-39 -44.5t-43.5 -20.5t-44.5 -5q-20 0 -32 3t-23 8z" />
    <glyph glyph-name="Aringacute" unicode="&#x1fa;" horiz-adv-x="521" 
d="M408 755q0 -26 -17 -46.5t-42 -26.5l162 -682h-21l-39 162h-348l-72 -162h-21l306 682q-20 5 -33 21.5t-13 39.5q0 30 22.5 52t52.5 22q28 0 45.5 -18t17.5 -44zM112 182h334l-115 494zM344 797q-22 0 -38 -15.5t-16 -37.5q0 -17 12 -30.5t32 -13.5q23 0 38.5 16t15.5 37
q0 18 -12.5 31t-31.5 13zM224 791l-8 18l263 137l9 -18z" />
    <glyph glyph-name="aringacute" unicode="&#x1fb;" horiz-adv-x="580" 
d="M511 419h20l-44 -419h-20l13 125q-28 -59 -83.5 -96.5t-129.5 -37.5q-47 0 -83.5 16t-62 43t-39 63t-13.5 77q0 48 18 91t50 75.5t76.5 52t97.5 19.5q76 0 123.5 -37.5t63.5 -97.5zM307 408q-47 0 -87 -17.5t-69 -47.5t-45.5 -69.5t-16.5 -82.5q0 -37 12 -70t35 -57.5
t56.5 -38.5t76.5 -14q45 0 83.5 16t67.5 43t47 63t22 76q0 44 -12.5 80.5t-36 63t-57.5 41t-76 14.5zM428 621q0 19 -7 36t-19.5 30t-29.5 20.5t-37 7.5q-22 0 -42.5 -9t-36.5 -24t-25.5 -35.5t-9.5 -43.5q0 -19 7 -36t19.5 -30t30 -20.5t37.5 -7.5q22 0 42.5 9t36 24.5
t25 35.5t9.5 43zM201 602q0 27 11.5 51t30 42.5t43 29t51.5 10.5q24 0 44.5 -9t35 -24t23 -35.5t8.5 -43.5q0 -27 -11 -51.5t-30 -42.5t-43 -29t-51 -11q-24 0 -44.5 9t-35.5 24.5t-23.5 36t-8.5 43.5zM209 763l263 137l8 -18l-263 -137z" />
    <glyph glyph-name="AEacute" unicode="&#x1fc;" horiz-adv-x="810" 
d="M454 680l-33 -322h339l-2 -20h-339l-34 -318h339l-2 -20h-359l17 162h-255l-100 -162h-22l434 700h359l-3 -20h-339zM382 182l50 475l-294 -475h244zM501 750l-8 18l263 137l8 -18z" />
    <glyph glyph-name="aeacute" unicode="&#x1fd;" horiz-adv-x="921" 
d="M531 419l-11 -106q27 51 77 83t116 32q40 0 73.5 -13t56.5 -36t36 -55t13 -69q0 -15 -1.5 -23.5t-3.5 -16.5h-377q-5 -44 4 -81.5t30 -64.5t54 -42.5t77 -15.5q33 0 61 8.5t50.5 22.5t38 32.5t24.5 39.5h21q-9 -25 -27 -47t-43 -39t-57 -27t-70 -10q-72 0 -115 33.5
t-59 83.5l-12 -108h-20l13 125q-28 -59 -83.5 -96.5t-129.5 -37.5q-47 0 -83.5 16t-62 43t-39 63t-13.5 77q0 48 18 91t50 75.5t76.5 52t97.5 19.5q76 0 123.5 -37.5t63.5 -97.5l13 126h20zM712 408q-39 0 -72.5 -13t-59 -36t-43 -55t-24.5 -69h357q4 38 -6 69.5t-31 54.5
t-51.5 36t-69.5 13zM270 11q48 0 88.5 17.5t70 47.5t46 69t16.5 83q0 37 -12.5 70t-36 57.5t-57 38.5t-76.5 14q-48 0 -88.5 -18t-70 -48t-45.5 -69.5t-16 -82.5q0 -37 12 -69.5t35.5 -57t57 -38.5t76.5 -14zM397 525l-9 18l264 137l8 -18z" />
    <glyph glyph-name="Oslashacute" unicode="&#x1fe;" horiz-adv-x="812" 
d="M406 -13q-41 0 -76 7t-67 20l-37 -71l-18 7l38 73q-40 20 -70.5 51.5t-51 69.5t-31 82t-10.5 90q0 76 28.5 147.5t81 127t125.5 89t163 33.5q67 0 123 -21l35 65l18 -7l-35 -65q44 -20 78 -51t57 -71t34.5 -85.5t11.5 -93.5q0 -76 -28.5 -147.5t-80.5 -127t-125.5 -89
t-162.5 -33.5zM103 318q0 -43 10 -84.5t29.5 -77.5t48 -66t65.5 -49l338 633q-26 9 -54.5 14t-61.5 5q-85 0 -154 -31.5t-118 -84t-76 -120t-27 -139.5zM783 382q0 45 -11 88.5t-33 81t-53.5 67t-73.5 47.5l-339 -633q60 -26 134 -26q85 0 154 31.5t118.5 84t76.5 120
t27 139.5zM365 749l-8 18l263 137l8 -18z" />
    <glyph glyph-name="oslashacute" unicode="&#x1ff;" horiz-adv-x="535" 
d="M395 412q55 -22 85 -71.5t30 -111.5q0 -47 -18 -90t-50 -76t-77.5 -52.5t-99.5 -19.5q-47 0 -86 17l-32 -60l-18 7l33 61q-45 25 -69 71t-24 101q0 48 18 91.5t50 76.5t76 52.5t97 19.5q20 0 36.5 -2.5t31.5 -7.5l26 49l17 -7zM267 11q49 0 90.5 17.5t70.5 47.5t45.5 69
t16.5 83q0 56 -27 101t-78 65l-196 -368q34 -15 78 -15zM89 191q0 -50 21 -92t62 -65l196 366q-29 8 -60 8q-48 0 -88 -17.5t-69 -47t-45.5 -69t-16.5 -83.5zM202 525l-8 18l263 137l9 -18z" />
    <glyph glyph-name="Scommaaccent" unicode="&#x218;" horiz-adv-x="575" 
d="M94 205q-4 -41 6 -77t35.5 -63t67 -42.5t99.5 -15.5q50 0 91.5 12t71 35.5t46 57t16.5 75.5q0 43 -16 70t-42 44t-58.5 26t-66.5 17q-41 9 -78 19.5t-66 28.5t-46 47t-17 76q0 42 15 78t44.5 62.5t73 42t101.5 15.5q104 0 154 -51t43 -150h-20q5 89 -40 135t-139 46
q-52 0 -91.5 -13.5t-66.5 -37.5t-40.5 -56t-13.5 -69q0 -41 16 -67t43 -42.5t62.5 -26t73.5 -17.5q37 -8 72 -18.5t62.5 -29t44 -49t16.5 -77.5q0 -48 -18 -85.5t-50.5 -64t-78 -40t-100.5 -13.5q-61 0 -105.5 16.5t-73 45.5t-40.5 69t-7 87h20zM232 -189q25 0 43 12.5
t21 43.5l10 99h20l-10 -99q-5 -42 -28.5 -59t-57.5 -17z" />
    <glyph glyph-name="scommaaccent" unicode="&#x219;" horiz-adv-x="446" 
d="M87 142q-4 -36 6 -61t30 -40.5t48 -22.5t61 -7q73 0 110.5 28.5t37.5 73.5q0 25 -11 40.5t-30 24.5t-44 14t-53 9q-29 4 -55 9t-46 15.5t-32 28.5t-12 48q0 59 44.5 92.5t119.5 33.5q36 0 65.5 -8.5t49.5 -25.5t29.5 -43t5.5 -60h-20q3 30 -5 52t-25.5 36.5t-43 21.5
t-56.5 7q-64 0 -104 -28.5t-40 -76.5q0 -22 9 -36t26 -22.5t41.5 -14t54.5 -9.5q30 -5 57.5 -10t48.5 -16t33.5 -29.5t12.5 -49.5q0 -56 -42 -90.5t-127 -34.5q-37 0 -69 8t-54.5 26t-34 46.5t-6.5 70.5h20zM147 -179q25 0 43 12.5t21 43.5l10 99h20l-10 -99
q-5 -42 -28.5 -59t-57.5 -17z" />
    <glyph glyph-name="uni021A" unicode="&#x21a;" horiz-adv-x="465" 
d="M293 680h-204l2 20h429l-2 -20h-205l-71 -680h-20zM145 -176q25 0 43 12.5t21 43.5l10 99h20l-10 -99q-5 -42 -28.5 -59t-57.5 -17z" />
    <glyph glyph-name="uni021B" unicode="&#x21b;" horiz-adv-x="306" 
d="M64 419h100l20 188h20l-20 -188h150l-2 -20h-150l-27 -261q-4 -40 1.5 -64.5t17.5 -37.5t28.5 -17.5t35.5 -4.5q16 0 35.5 2t34.5 4l-2 -20q-13 -2 -33 -4t-38 -2q-26 0 -46.5 5.5t-34 21t-19 44t-0.5 73.5l27 261h-100zM120 -179q25 0 43 12.5t21 43.5l10 99h20l-10 -99
q-5 -42 -28.5 -59t-57.5 -17z" />
    <glyph glyph-name="hsuperior" unicode="&#x2b0;" horiz-adv-x="366" 
d="M152 700h20l-22 -214q12 28 39 48.5t67 20.5q21 0 38 -6.5t28 -19.5q10 -11 15 -30t2 -47l-14 -137h-20l14 132q2 18 -1 34t-11 28.5t-22.5 20t-35.5 7.5q-24 0 -42.5 -9.5t-31.5 -24.5t-20.5 -33t-9.5 -35l-13 -120h-20z" />
    <glyph glyph-name="jsuperior" unicode="&#x2b2;" horiz-adv-x="185" 
d="M155 676h20l-6 -57h-20zM129 232q-8 -70 -65 -70q-19 0 -33 7l2 19q5 -2 11.5 -4.5t16.5 -2.5q21 0 33.5 13.5t14.5 37.5l33 318h20z" />
    <glyph glyph-name="wsuperior" unicode="&#x2b7;" horiz-adv-x="439" 
d="M275 527l-98 -212h-16l-66 235h21l55 -207l96 207h21l51 -207l100 207h21l-116 -235h-16z" />
    <glyph glyph-name="ysuperior" unicode="&#x2b8;" horiz-adv-x="368" 
d="M200 160q-58 0 -79.5 29t-16.5 86h20q-4 -47 12.5 -71.5t66.5 -24.5q45 0 68.5 23.5t29.5 82.5l10 94q-11 -24 -36.5 -46.5t-71.5 -22.5t-67 26q-11 14 -14 32.5t0 49.5l14 132h19l-13 -127q-5 -44 9.5 -69.5t57.5 -25.5q26 0 45.5 9.5t32.5 24.5t20 33t9 36l13 119h20
l-28 -265q-8 -72 -39 -98.5t-82 -26.5z" />
    <glyph glyph-name="circumflex" unicode="&#x2c6;" horiz-adv-x="399" 
d="M288 842l165 -145l-14 -16l-153 135l-182 -135l-11 16z" />
    <glyph glyph-name="caron" unicode="&#x2c7;" horiz-adv-x="350" 
d="M94 749l15 15l132 -133l162 133l11 -15l-176 -145z" />
    <glyph glyph-name="breve" unicode="&#x2d8;" horiz-adv-x="484" 
d="M148 835q3 -28 17 -49.5t36.5 -36t52 -22t63.5 -7.5q33 0 65 7.5t58.5 22t45 36t25.5 49.5h20q-7 -33 -27.5 -58t-50 -42.5t-65.5 -26t-73 -8.5q-38 0 -71 9t-58.5 26t-41 42t-17.5 58h21z" />
    <glyph glyph-name="dotaccent" unicode="&#x2d9;" horiz-adv-x="167" 
d="M115 659q0 18 12.5 30.5t30.5 12.5q15 0 25 -10t10 -25q0 -18 -13 -30t-30 -12q-16 0 -25.5 9.5t-9.5 24.5z" />
    <glyph glyph-name="ring" unicode="&#x2da;" horiz-adv-x="333" 
d="M254 835q24 0 44.5 -9t35 -24t23 -35.5t8.5 -43.5q0 -27 -11 -51.5t-30 -42.5t-43 -29t-51 -11q-24 0 -44.5 9t-35.5 24.5t-23.5 36t-8.5 43.5q0 27 11.5 51t30 42.5t43 29t51.5 10.5zM251 815q-22 0 -42.5 -9t-36 -24t-25 -35.5t-9.5 -43.5q0 -19 7 -36t19.5 -30
t29.5 -20.5t37 -7.5q22 0 43 9t36.5 24.5t25 35.5t9.5 43q0 19 -7 36t-19.5 30t-29.5 20.5t-38 7.5z" />
    <glyph glyph-name="ogonek" unicode="&#x2db;" horiz-adv-x="247" 
d="M220 -197q-17 -5 -39 -10t-46 -5q-55 0 -81 26t-26 63t24.5 65.5t69.5 57.5h12q-42 -29 -64 -61t-22 -61t21.5 -49.5t65.5 -20.5q21 0 47 5t42 11z" />
    <glyph glyph-name="tilde" unicode="&#x2dc;" horiz-adv-x="409" 
d="M124 662q24 14 41 22t29.5 11.5t21 4t15.5 0.5q11 0 30 -4t39.5 -9.5t40.5 -9.5t34 -4q5 0 11 1t14.5 4t21 8t30.5 14l7 -18q-20 -9 -33 -15t-23 -9t-17 -4t-15 -1q-21 0 -39 4t-35 9.5t-33.5 9.5t-34.5 4q-6 0 -13.5 -0.5t-18.5 -4t-26.5 -10.5t-37.5 -20z" />
    <glyph glyph-name="hungarumlaut" unicode="&#x2dd;" horiz-adv-x="391" 
d="M424 734l18 -9l-143 -167l-17 10zM229 734l18 -9l-143 -166l-17 9z" />
    <glyph glyph-name="xsuperior" unicode="&#x2e3;" horiz-adv-x="294" 
d="M279 315h-23l-65 102l-86 -102h-24l99 118l-74 117h24l64 -102l87 102h23l-100 -117z" />
    <glyph glyph-name="Delta" unicode="&#x394;" horiz-adv-x="521" 
d="M40 20h445l-154 656zM511 0h-501l314 700h21z" />
    <glyph glyph-name="Omega" unicode="&#x3a9;" horiz-adv-x="724" 
d="M432 693q-74 0 -133.5 -25.5t-102 -69t-65.5 -100.5t-23 -120q0 -54 17 -102t47.5 -85.5t73.5 -62.5t95 -33l-10 -95h-255l2 20h235l6 58q-52 12 -94.5 39t-73 66t-47 88t-16.5 105q0 67 24.5 128.5t70 107.5t109.5 73.5t142 27.5q69 0 122.5 -21.5t89.5 -58.5t55 -88
t19 -109q0 -66 -22.5 -125t-62.5 -106t-95 -80.5t-119 -46.5l-6 -58h235l-2 -20h-255l10 95q63 10 117.5 40.5t94.5 76t62.5 102.5t22.5 120q0 55 -17.5 102t-52 82t-84.5 55t-114 20z" />
    <glyph glyph-name="mu" unicode="&#x3bc;" 
d="M135 419h19l-25 -240q-4 -36 3 -67t24 -53.5t44.5 -35t65.5 -12.5q48 0 84.5 19t62 48.5t40 64t17.5 64.5l22 212h21l-44 -419h-20l13 128q-11 -26 -29 -51t-43.5 -44t-57.5 -30.5t-70 -11.5q-52 0 -89 22t-54 65l-38 -359h-20z" />
    <glyph glyph-name="pi" unicode="&#x3c0;" 
d="M505 399h-40l-42 -399h-20l42 399h-247l-42 -399h-20l42 399h-40l2 20h367z" />
    <glyph glyph-name="Wgrave" unicode="&#x1e80;" horiz-adv-x="907" 
d="M524 671l-264 -671h-21l-158 700h21l150 -673l265 673h21l123 -673l292 673h21l-306 -700h-21zM418 887l12 18l234 -137l-12 -18z" />
    <glyph glyph-name="wgrave" unicode="&#x1e81;" horiz-adv-x="675" 
d="M378 393l-181 -393h-20l-117 419h21l107 -395l183 395h21l98 -395l192 395h21l-205 -419h-20zM278 662l11 18l235 -137l-12 -18z" />
    <glyph glyph-name="Wacute" unicode="&#x1e82;" horiz-adv-x="907" 
d="M524 671l-264 -671h-21l-158 700h21l150 -673l265 673h21l123 -673l292 673h21l-306 -700h-21zM413 750l-8 18l264 137l8 -18z" />
    <glyph glyph-name="wacute" unicode="&#x1e83;" horiz-adv-x="675" 
d="M378 393l-181 -393h-20l-117 419h21l107 -395l183 395h21l98 -395l192 395h21l-205 -419h-20zM273 525l-8 18l263 137l9 -18z" />
    <glyph glyph-name="Wdieresis" unicode="&#x1e84;" horiz-adv-x="907" 
d="M649 858h20l-11 -103h-20zM418 858h20l-11 -103h-20zM524 671l-264 -671h-21l-158 700h21l150 -673l265 673h21l123 -673l292 673h21l-306 -700h-21z" />
    <glyph glyph-name="wdieresis" unicode="&#x1e85;" horiz-adv-x="675" 
d="M511 648h20l-11 -103h-20zM280 648h20l-11 -103h-20zM378 393l-181 -393h-20l-117 419h21l107 -395l183 395h21l98 -395l192 395h21l-205 -419h-20z" />
    <glyph glyph-name="Ygrave" unicode="&#x1ef2;" horiz-adv-x="527" 
d="M157 0h-23l173 273l-227 427h24l216 -406l256 406h22zM228 887l12 18l234 -137l-12 -18z" />
    <glyph glyph-name="ygrave" unicode="&#x1ef3;" horiz-adv-x="557" 
d="M247 -290q-54 0 -88.5 13.5t-54 40.5t-25 66.5t-1.5 91.5h20q-4 -47 1.5 -82.5t23 -60t48.5 -37t79 -12.5q43 0 76 11t56.5 35.5t38 64.5t20.5 97l20 190q-11 -27 -28.5 -51.5t-42 -43.5t-57.5 -30.5t-76 -11.5q-38 0 -67.5 10.5t-50.5 33.5q-22 24 -28.5 58.5t-0.5 93.5
l24 232h20l-24 -230q-9 -84 20 -131t109 -47q52 0 90.5 19t64 48t39.5 63.5t17 65.5l22 212h20l-51 -481q-7 -63 -23 -106.5t-42 -70.5t-63 -39t-86 -12zM218 662l12 18l235 -137l-12 -18z" />
    <glyph glyph-name="thinspace" unicode="&#x2009;" horiz-adv-x="206" 
 />
    <glyph glyph-name="endash" unicode="&#x2013;" horiz-adv-x="503" 
d="M79 275l2 20h403l-2 -20h-403z" />
    <glyph glyph-name="emdash" unicode="&#x2014;" horiz-adv-x="1006" 
d="M79 275l2 20h906l-2 -20h-906z" />
    <glyph glyph-name="quoteleft" unicode="&#x2018;" horiz-adv-x="228" 
d="M135 521h-20l13 124q5 52 35.5 73.5t72.5 21.5l-2 -20q-34 0 -57.5 -17t-28.5 -58z" />
    <glyph glyph-name="quoteright" unicode="&#x2019;" horiz-adv-x="228" 
d="M229 770h20l-13 -124q-5 -52 -35.5 -73.5t-72.5 -21.5l2 20q34 0 57.5 17t28.5 58z" />
    <glyph glyph-name="quotesinglbase" unicode="&#x201a;" horiz-adv-x="228" 
d="M159 101h20l-13 -124q-5 -52 -35.5 -73.5t-72.5 -21.5l2 20q34 0 57.5 17t28.5 58z" />
    <glyph glyph-name="quotedblleft" unicode="&#x201c;" horiz-adv-x="365" 
d="M135 521h-20l13 124q5 52 35.5 73.5t72.5 21.5l-2 -20q-34 0 -57.5 -17t-28.5 -58zM272 521h-20l13 124q5 52 35.5 73.5t72.5 21.5l-2 -20q-34 0 -57.5 -17t-28.5 -58z" />
    <glyph glyph-name="quotedblright" unicode="&#x201d;" horiz-adv-x="365" 
d="M366 770h20l-13 -124q-5 -52 -35.5 -73.5t-72.5 -21.5l2 20q34 0 57.5 17t28.5 58zM229 770h20l-13 -124q-5 -52 -35.5 -73.5t-72.5 -21.5l2 20q34 0 57.5 17t28.5 58z" />
    <glyph glyph-name="quotedblbase" unicode="&#x201e;" horiz-adv-x="365" 
d="M296 101h20l-13 -124q-5 -52 -35.5 -73.5t-72.5 -21.5l2 20q34 0 57.5 17t28.5 58zM159 101h20l-13 -124q-5 -52 -35.5 -73.5t-72.5 -21.5l2 20q34 0 57.5 17t28.5 58z" />
    <glyph glyph-name="dagger" unicode="&#x2020;" horiz-adv-x="318" 
d="M129 -182l62 589h-148l2 20h148l31 290h20l-31 -290h150l-2 -20h-150l-62 -589h-20z" />
    <glyph glyph-name="daggerdbl" unicode="&#x2021;" horiz-adv-x="318" 
d="M243 717l-30 -290h150l-2 -20h-150l-37 -350h150l-2 -20h-150l-23 -219h-20l23 219h-148l2 20h148l37 350h-148l2 20h148l30 290h20z" />
    <glyph glyph-name="bullet" unicode="&#x2022;" horiz-adv-x="333" 
d="M102 304q0 -37 25 -62.5t63 -25.5q21 0 40 8t34 22.5t23.5 33.5t8.5 41q0 37 -25 62.5t-63 25.5q-21 0 -40 -8.5t-34 -22.5t-23.5 -33t-8.5 -41zM82 302q0 26 10.5 49t28.5 40.5t41 27.5t49 10q46 0 75.5 -31t29.5 -76q0 -26 -10.5 -49t-28 -40t-41 -27t-48.5 -10
q-47 0 -76.5 30.5t-29.5 75.5z" />
    <glyph glyph-name="ellipsis" unicode="&#x2026;" horiz-adv-x="861" 
d="M89 103h20l-11 -103h-20zM431 103h20l-11 -103h-20zM773 103h20l-11 -103h-20z" />
    <glyph glyph-name="perthousand" unicode="&#x2030;" horiz-adv-x="1170" 
d="M906 116q-2 -21 3 -40t17 -33t30 -22.5t41 -8.5q48 0 78.5 31t35.5 73l16 153q2 21 -3 40t-17 33t-30 22.5t-42 8.5q-47 0 -77.5 -31t-35.5 -73zM1131 108q-3 -24 -14.5 -44.5t-29.5 -36.5t-41.5 -25t-50.5 -9q-28 0 -50 10t-36 26.5t-20.5 39t-3.5 47.5l17 161
q3 24 14 44.5t29 36.5t41.5 25t50.5 9q28 0 50 -10t36.5 -26.5t21 -39t3.5 -47.5zM680 392q28 0 50 -10t36.5 -26.5t21 -39t3.5 -47.5l-17 -161q-3 -24 -14.5 -44.5t-29.5 -36.5t-41.5 -25t-50.5 -9q-28 0 -50 10t-36 26.5t-20.5 39t-3.5 47.5l17 161q3 24 14 44.5t29 36.5
t41.5 25t50.5 9zM678 373q-47 0 -77.5 -31t-35.5 -73l-16 -153q-2 -21 3 -40t17 -33t30 -22.5t41 -8.5q48 0 78.5 31t35.5 73l16 153q2 21 -3 40t-17 33t-30 22.5t-42 8.5zM112 590q3 24 14 44.5t29 36.5t41.5 25t50.5 9q28 0 50 -10t36.5 -26.5t21 -39t3.5 -47.5l-17 -161
q-3 -24 -14.5 -44.5t-29.5 -36.5t-41.5 -25t-50.5 -9q-28 0 -50 10t-36 26.5t-20.5 39t-3.5 47.5zM337 582q2 21 -3 40t-17 33t-30 22.5t-42 8.5q-47 0 -77.5 -31t-35.5 -73l-16 -153q-2 -21 3 -40t17 -33t30 -22.5t41 -8.5q48 0 78.5 31t35.5 73zM708 751l16 -10l-516 -753
l-16 10z" />
    <glyph glyph-name="guilsinglleft" unicode="&#x2039;" horiz-adv-x="276" 
d="M248 105l-178 176l2 20l215 176l-3 -27l-193 -159l159 -159z" />
    <glyph glyph-name="guilsinglright" unicode="&#x203a;" horiz-adv-x="276" 
d="M54 132l193 159l-160 159l3 27l178 -176l-3 -20l-214 -176z" />
    <glyph glyph-name="fraction" unicode="&#x2044;" horiz-adv-x="194" 
d="M386 751l16 -10l-516 -753l-16 10z" />
    <glyph glyph-name="zerosuperior" unicode="&#x2070;" horiz-adv-x="377" 
d="M110 431q1 26 4 53q2 23 6.5 51.5t12.5 56.5q17 66 45.5 90.5t75.5 24.5q34 0 58 -10t38 -27t19.5 -39.5t3.5 -46.5q-2 -27 -5 -54q-2 -23 -6.5 -51.5t-10.5 -54.5q-17 -66 -44.5 -91t-77.5 -25q-35 0 -58.5 10t-37.5 27t-19.5 39t-3.5 47zM352 584q2 21 -3 40t-17 33
t-30 22.5t-42 8.5q-47 0 -77.5 -31t-35.5 -73l-16 -153q-2 -21 3 -40t17 -33t30 -22.5t41 -8.5q48 0 78.5 31t35.5 73z" />
    <glyph glyph-name="foursuperior" unicode="&#x2074;" horiz-adv-x="355" 
d="M268 457h-150l26 243h21l-24 -223h129l13 126h21l-13 -126h69l-2 -20h-69l-15 -142h-21z" />
    <glyph glyph-name="fivesuperior" unicode="&#x2075;" horiz-adv-x="379" 
d="M153 700h211l-2 -19h-191l-19 -179q15 24 42.5 37.5t59.5 13.5q51 0 80 -31t29 -78q0 -27 -10.5 -51.5t-28.5 -42.5t-43.5 -29t-55.5 -11q-28 0 -50 10t-36 26.5t-20.5 38.5t-3.5 47h21q-2 -20 3 -38.5t16.5 -33t30 -23t42.5 -8.5q25 0 46 9t36 25t23.5 36t8.5 43
q0 39 -24.5 65.5t-69.5 26.5q-64 0 -95 -55h-23z" />
    <glyph glyph-name="sixsuperior" unicode="&#x2076;" horiz-adv-x="349" 
d="M206 310q-53 0 -82 32.5t-29 78.5q0 22 7 42.5t20 37.5l144 199h25l-120 -165q10 11 27.5 15.5t34.5 4.5q51 0 80.5 -32.5t29.5 -78.5q0 -27 -10.5 -51.5t-28.5 -42.5t-43 -29t-55 -11zM209 329q25 0 46 9t36 25t23 36t8 43q0 39 -24 66.5t-68 27.5q-25 0 -46 -9t-36 -25
t-23.5 -36.5t-8.5 -43.5q0 -38 24 -65.5t69 -27.5z" />
    <glyph glyph-name="sevensuperior" unicode="&#x2077;" horiz-adv-x="301" 
d="M347 700l-227 -385h-23l217 366h-192l2 19h223z" />
    <glyph glyph-name="eightsuperior" unicode="&#x2078;" horiz-adv-x="367" 
d="M216 310q-54 0 -83.5 27.5t-29.5 69.5q0 38 24 68.5t69 38.5q-33 6 -50 27.5t-17 53.5q0 23 9 43t26 35t40 23.5t52 8.5q51 0 80 -25.5t29 -66.5q0 -36 -22 -63.5t-64 -35.5q36 -6 54 -31t18 -57q0 -50 -37.5 -83t-97.5 -33zM239 522q48 0 76.5 25.5t28.5 62.5
q0 33 -23.5 54.5t-65.5 21.5q-47 0 -75.5 -26t-28.5 -64q0 -33 22.5 -53.5t65.5 -20.5zM218 329q51 0 81.5 27t30.5 68q0 35 -24 57.5t-70 22.5q-52 0 -82 -27t-30 -67q0 -36 24.5 -58.5t69.5 -22.5z" />
    <glyph glyph-name="ninesuperior" unicode="&#x2079;" horiz-adv-x="349" 
d="M250 705q54 0 82.5 -32.5t28.5 -78.5q0 -23 -7.5 -43t-20.5 -37l-144 -199h-24l121 165q-11 -11 -28 -15.5t-35 -4.5q-51 0 -80.5 32.5t-29.5 78.5q0 27 10 51.5t28.5 42.5t43.5 29t55 11zM248 686q-25 0 -46 -9.5t-36 -25t-23.5 -36.5t-8.5 -43q0 -38 24 -65.5t69 -27.5
q25 0 46 9t36 25t23 36t8 43q0 38 -23.5 66t-68.5 28z" />
    <glyph glyph-name="plussuperior" unicode="&#x207a;" horiz-adv-x="369" 
d="M214 365l10 97h-97l2 19h97l10 97h20l-10 -97h96l-2 -19h-96l-10 -97h-20z" />
    <glyph glyph-name="minussuperior" unicode="&#x207b;" horiz-adv-x="370" 
d="M123 464l2 18h222l-2 -18h-222z" />
    <glyph glyph-name="equalsuperior" unicode="&#x207c;" horiz-adv-x="370" 
d="M127 510l2 18h222l-2 -18h-222zM117 413l2 19h222l-2 -19h-222z" />
    <glyph glyph-name="parenleftsuperior" unicode="&#x207d;" horiz-adv-x="235" 
d="M282 733q-47 0 -77.5 -31t-35.5 -73l-34 -321q-2 -21 3 -39.5t17 -33t30 -22.5t41 -8l-2 -20q-28 0 -50 10t-36 27t-20.5 39t-3.5 47l34 321q3 25 14 47.5t28.5 39t41.5 26.5t52 10z" />
    <glyph glyph-name="parenrightsuperior" unicode="&#x207e;" horiz-adv-x="235" 
d="M109 752q28 0 49.5 -10t36 -26.5t21 -39t3.5 -47.5l-34 -321q-3 -25 -14 -47t-29 -39t-41.5 -27t-51.5 -10l2 20q47 0 77.5 30.5t35.5 72.5l34 321q2 21 -3 40t-17 33t-30 22.5t-41 8.5z" />
    <glyph glyph-name="nsuperior" unicode="&#x207f;" horiz-adv-x="366" 
d="M137 550h20l-7 -64q12 28 39 48.5t67 20.5q21 0 38 -6.5t28 -19.5q10 -11 15 -30t2 -47l-14 -137h-20l14 132q2 18 -1 34t-11 28.5t-22.5 20t-35.5 7.5q-24 0 -42.5 -9.5t-31.5 -24.5t-20.5 -33t-9.5 -35l-13 -120h-20z" />
    <glyph glyph-name="zeroinferior" unicode="&#x2080;" horiz-adv-x="377" 
d="M56 -84q1 26 4 53q2 23 6.5 51.5t12.5 56.5q17 66 45.5 90.5t75.5 24.5q34 0 58 -10t38 -27t19.5 -39.5t3.5 -46.5q-2 -27 -5 -54q-2 -23 -6.5 -51.5t-10.5 -54.5q-17 -66 -44.5 -91t-77.5 -25q-35 0 -58.5 10t-37.5 27t-19.5 39t-3.5 47zM298 69q2 21 -3 40t-17 33
t-30 22.5t-42 8.5q-47 0 -77.5 -31t-35.5 -73l-16 -153q-2 -21 3 -40t17 -33t30 -22.5t41 -8.5q48 0 78.5 31t35.5 73z" />
    <glyph glyph-name="oneinferior" unicode="&#x2081;" horiz-adv-x="224" 
d="M137 114q-11 -13 -30 -17t-48 -4l2 20q27 0 43 4t24 12.5t11.5 22t5.5 33.5h20l-41 -385h-20z" />
    <glyph glyph-name="twoinferior" unicode="&#x2082;" horiz-adv-x="349" 
d="M35 -200q6 49 16.5 79.5t27.5 50t41 32t56 24.5q18 6 37 14t34 20t25 29t10 42q0 38 -22.5 59t-63.5 21q-48 0 -77.5 -28.5t-34.5 -72.5h-21q3 25 13.5 46.5t27.5 38t41 26t54 9.5q51 0 77.5 -26t26.5 -71q0 -30 -11 -50.5t-28.5 -34.5t-38.5 -23t-41 -16
q-31 -11 -52.5 -22.5t-36 -28t-23 -40t-12.5 -59.5h218l-2 -19h-241v0z" />
    <glyph glyph-name="threeinferior" unicode="&#x2083;" horiz-adv-x="355" 
d="M59 -95q-5 -41 20 -66t73 -25q50 0 80.5 27t30.5 69q0 35 -23.5 57t-66.5 22h-31l2 19h31q47 0 74.5 25t27.5 63q0 35 -23 55t-65 20q-45 0 -73 -23.5t-32 -61.5h-21q5 47 39.5 75.5t87.5 28.5q49 0 78 -25.5t29 -67.5q0 -34 -21 -62t-65 -36q38 -7 55.5 -31.5
t17.5 -56.5q0 -51 -38 -83.5t-97 -32.5q-55 0 -85.5 30t-25.5 80h21z" />
    <glyph glyph-name="fourinferior" unicode="&#x2084;" horiz-adv-x="355" 
d="M214 -58h-150l26 243h21l-24 -223h129l13 126h21l-13 -126h69l-2 -20h-69l-15 -142h-21z" />
    <glyph glyph-name="fiveinferior" unicode="&#x2085;" horiz-adv-x="379" 
d="M99 185h211l-2 -19h-191l-19 -179q15 24 42.5 37.5t59.5 13.5q51 0 80 -31t29 -78q0 -27 -10.5 -51.5t-28.5 -42.5t-43.5 -29t-55.5 -11q-28 0 -50 10t-36 26.5t-20.5 38.5t-3.5 47h21q-2 -20 3 -38.5t16.5 -33t30 -23t42.5 -8.5q25 0 46 9t36 25t23.5 36t8.5 43
q0 39 -24.5 65.5t-69.5 26.5q-64 0 -95 -55h-23z" />
    <glyph glyph-name="sixinferior" unicode="&#x2086;" horiz-adv-x="349" 
d="M152 -205q-53 0 -82 32.5t-29 78.5q0 22 7 42.5t20 37.5l144 199h25l-120 -165q10 11 27.5 15.5t34.5 4.5q51 0 80.5 -32.5t29.5 -78.5q0 -27 -10.5 -51.5t-28.5 -42.5t-43 -29t-55 -11zM155 -186q25 0 45.5 9t35.5 25t23.5 36.5t8.5 43.5q0 38 -24 65.5t-68 27.5
q-25 0 -46 -9t-36 -25t-23.5 -36.5t-8.5 -43.5q0 -38 24 -65.5t69 -27.5z" />
    <glyph glyph-name="seveninferior" unicode="&#x2087;" horiz-adv-x="301" 
d="M293 185l-227 -385h-23l217 366h-192l2 19h223z" />
    <glyph glyph-name="eightinferior" unicode="&#x2088;" horiz-adv-x="367" 
d="M162 -205q-54 0 -83.5 27.5t-29.5 69.5q0 38 24 68.5t69 38.5q-33 6 -50 27.5t-17 53.5q0 23 9 43t26 35t40 23.5t52 8.5q51 0 80 -25.5t29 -66.5q0 -36 -22 -63.5t-64 -35.5q36 -6 54 -31t18 -57q0 -50 -37.5 -83t-97.5 -33zM185 7q48 0 76.5 25.5t28.5 62.5
q0 33 -23.5 54.5t-65.5 21.5q-47 0 -75.5 -26t-28.5 -64q0 -33 22.5 -53.5t65.5 -20.5zM164 -186q51 0 81.5 27t30.5 69q0 35 -24.5 57t-69.5 22q-51 0 -81.5 -26.5t-30.5 -68.5q0 -35 24 -57.5t70 -22.5z" />
    <glyph glyph-name="nineinferior" unicode="&#x2089;" horiz-adv-x="349" 
d="M194 190q54 0 83 -32.5t29 -78.5q0 -23 -7.5 -43t-20.5 -37l-144 -199h-24l121 165q-11 -11 -27.5 -15.5t-34.5 -4.5q-52 0 -81.5 32t-29.5 79q0 27 10 51.5t28 42.5t43 29t55 11zM193 171q-25 0 -46 -9t-36 -25t-23.5 -36.5t-8.5 -42.5q0 -39 24.5 -66.5t69.5 -27.5
q25 0 45.5 9.5t35.5 25t23 36t8 43.5q0 38 -23.5 65.5t-68.5 27.5z" />
    <glyph glyph-name="parenleftinferior" unicode="&#x208d;" horiz-adv-x="235" 
d="M228 218q-47 0 -77.5 -31t-35.5 -73l-34 -321q-2 -21 3 -39.5t17 -33t30 -22.5t41 -8l-2 -20q-28 0 -50 10t-36 27t-20.5 39t-3.5 47l34 321q3 25 14 47.5t28.5 39t41.5 26.5t52 10z" />
    <glyph glyph-name="parenrightinferior" unicode="&#x208e;" horiz-adv-x="235" 
d="M55 237q28 0 49.5 -10t36 -26.5t21 -39t3.5 -47.5l-34 -321q-3 -25 -14 -47t-29 -39t-41.5 -27t-51.5 -10l2 20q47 0 77.5 30.5t35.5 72.5l34 321q2 21 -3 40t-17 33t-30 22.5t-41 8.5z" />
    <glyph glyph-name="Euro" unicode="&#x20ac;" horiz-adv-x="631" 
d="M575 209q-5 -44 -25 -83.5t-51.5 -69.5t-74 -47.5t-92.5 -17.5q-49 0 -87.5 17t-64 46.5t-37 69.5t-7.5 85l4 42h-66l7 20h61l16 151h-61l7 20h56l5 45q5 45 24.5 84.5t51.5 69.5t74 47.5t92 17.5q49 0 87.5 -17t64.5 -46.5t37.5 -69.5t7.5 -86h-20q4 42 -6.5 78t-34 63
t-58.5 42.5t-80 15.5t-83.5 -16t-67.5 -43t-47 -63.5t-22 -76.5l-5 -45h289l-7 -20h-284l-16 -151h284l-7 -20h-279l-4 -42q-4 -41 6.5 -77t34 -63t58 -42.5t79.5 -15.5t83.5 16t67.5 43t47 63t23 76h20z" />
    <glyph glyph-name="afii61289" unicode="&#x2113;" horiz-adv-x="349" 
d="M221 -9q-15 0 -39 4t-45 21.5t-33 53.5t-4 100l2 16q-17 -14 -34 -28.5t-37 -29.5l-11 15l84 70l31 294q5 50 14.5 89t26 66t41.5 41t63 14q112 0 112 -130q0 -46 -14.5 -87.5t-47 -86t-83.5 -95t-123 -113.5l-4 -35q-6 -56 2.5 -88t24.5 -48t35 -19.5t33 -3.5
q38 0 62.5 12.5t44.5 35.5l16 -10q-14 -16 -26 -27t-25.5 -18t-29.5 -10t-36 -3zM281 697q-61 0 -88.5 -48t-37.5 -142l-29 -275q69 60 116 108t76 89t41.5 78.5t12.5 77.5q0 112 -91 112z" />
    <glyph glyph-name="afii61352" unicode="&#x2116;" horiz-adv-x="1026" 
d="M549 31l71 669h20l-74 -700h-24l-359 669l-70 -669h-20l74 700h24zM855 350q-39 0 -69.5 13t-51 34.5t-31.5 51t-11 62.5q0 39 14.5 74t41 62t62.5 43t79 16q39 0 69 -13t51 -35t32 -51.5t11 -62.5q0 -39 -14.5 -74t-41 -62t-62.5 -42.5t-79 -15.5zM857 370q38 0 70 14
t55.5 37.5t36.5 54.5t13 66q0 30 -9.5 56t-28 45.5t-45.5 31t-61 11.5q-39 0 -71 -14t-55.5 -38t-36.5 -55.5t-13 -66.5q0 -29 9.5 -55t28.5 -45.5t45.5 -30.5t61.5 -11zM667 280l3 20h358l-3 -20h-358z" />
    <glyph glyph-name="trademark" unicode="&#x2122;" horiz-adv-x="793" 
d="M465 700h20l120 -380l201 380h20l-43 -407h-20l38 356l-189 -356h-20l-112 356l-38 -356h-20zM363 700l-2 -20h-115l-41 -387h-20l41 387h-115l2 20h250z" />
    <glyph glyph-name="uni2126" unicode="&#x2126;" horiz-adv-x="724" 
d="M432 693q-74 0 -133.5 -25.5t-102 -69t-65.5 -100.5t-23 -120q0 -54 17 -102t47.5 -85.5t73.5 -62.5t95 -33l-10 -95h-255l2 20h235l6 58q-52 12 -94.5 39t-73 66t-47 88t-16.5 105q0 67 24.5 128.5t70 107.5t109.5 73.5t142 27.5q69 0 122.5 -21.5t89.5 -58.5t55 -88
t19 -109q0 -66 -22.5 -125t-62.5 -106t-95 -80.5t-119 -46.5l-6 -58h235l-2 -20h-255l10 95q63 10 117.5 40.5t94.5 76t62.5 102.5t22.5 120q0 55 -17.5 102t-52 82t-84.5 55t-114 20z" />
    <glyph glyph-name="estimated" unicode="&#x212e;" horiz-adv-x="507" 
d="M457 241q3 27 -2.5 52t-17.5 46l-11 -104h30zM299 408q-42 0 -77 -14.5t-61 -40.5l-13 -118h258l13 124q-22 23 -52 36t-68 13zM146 215l-15 -147q20 -26 53 -41.5t78 -15.5q33 0 60.5 8.5t50 22.5t38 32.5t24.5 39.5h21q-9 -25 -26.5 -47t-43 -39t-57.5 -27t-69 -10
q-48 0 -83 16t-58 43t-34 63t-11 76q0 49 16 93t45.5 76t71 51t91.5 19q42 0 75.5 -13.5t57 -36.5t35.5 -55t12 -68q0 -15 -1.5 -23.5t-3.5 -16.5h-327zM138 330q-44 -64 -44 -143q0 -25 4.5 -50.5t14.5 -46.5z" />
    <glyph glyph-name="arrowleft" unicode="&#x2190;" 
d="M-33 350l267 216l12 -15l-235 -191h657l-2 -20h-657l195 -191l-16 -15z" />
    <glyph glyph-name="arrowup" unicode="&#x2191;" 
d="M354 700l190 -244l-16 -14l-169 215l-69 -657h-20l69 657l-213 -215l-14 14z" />
    <glyph glyph-name="arrowright" unicode="&#x2192;" 
d="M667 349l-267 -216l-12 15l235 191h-657l2 20h657l-195 191l16 15z" />
    <glyph glyph-name="arrowdown" unicode="&#x2193;" 
d="M280 0l-190 244l16 14l169 -215l69 657h20l-69 -657l213 215l14 -14z" />
    <glyph glyph-name="uni2196" unicode="&#x2196;" 
d="M92 597l323 -19l-3 -21l-285 17l416 -464l-17 -15l-415 465l-13 -287l-21 -1z" />
    <glyph glyph-name="uni2197" unicode="&#x2197;" 
d="M594 597l-53 -325l-21 1l47 287l-513 -465l-13 15l514 464l-289 -17l1 21z" />
    <glyph glyph-name="uni2198" unicode="&#x2198;" 
d="M542 103l-323 19l3 21l285 -17l-416 464l17 15l415 -465l13 287l21 1z" />
    <glyph glyph-name="uni2199" unicode="&#x2199;" 
d="M40 103l53 325l21 -1l-47 -287l513 465l13 -15l-514 -464l289 17l-1 -21z" />
    <glyph glyph-name="partialdiff" unicode="&#x2202;" 
d="M319 431q28 0 57.5 -7t57 -23.5t51 -45t38.5 -71.5q5 29 8 48.5t4.5 33.5t2 26t0.5 27q0 80 -11 132.5t-32.5 84t-53 44.5t-73.5 13q-53 0 -94.5 -17.5t-71 -48t-47.5 -71.5t-23 -88h-20q6 50 25 94.5t51 78t78 53t106 19.5q52 0 87.5 -16.5t57 -52t30.5 -90.5t9 -131
q0 -121 -19.5 -204t-55.5 -134.5t-86 -74t-111 -22.5q-53 0 -91 15t-63.5 41t-37.5 61.5t-12 76.5q0 51 17.5 96.5t49.5 79t75.5 53.5t96.5 20zM317 411q-47 0 -87 -18t-69 -49t-45 -72.5t-16 -88.5q0 -37 11 -69t33.5 -55.5t57 -37t81.5 -13.5q91 0 148.5 54.5t83.5 172.5
q-10 52 -31.5 86t-49 54t-58.5 28t-59 8z" />
    <glyph glyph-name="uni2206" unicode="&#x2206;" horiz-adv-x="521" 
d="M40 20h445l-154 656zM511 0h-501l314 700h21z" />
    <glyph glyph-name="product" unicode="&#x220f;" horiz-adv-x="584" 
d="M625 774h-40l-111 -1055h-20l111 1055h-384l-111 -1055h-20l111 1055h-40l2 20h504z" />
    <glyph glyph-name="summation" unicode="&#x2211;" 
d="M-30 -281l2 20l411 517l-302 518l2 20h519l-2 -20h-494l301 -518l-411 -517h495l-2 -20h-519z" />
    <glyph glyph-name="minus" unicode="&#x2212;" 
d="M107 278l2 19h404l-2 -19h-404z" />
    <glyph glyph-name="radical" unicode="&#x221a;" horiz-adv-x="690" 
d="M29 232h138l113 -440l467 1002h21l-480 -1028h-21l-115 446h-125z" />
    <glyph glyph-name="infinity" unicode="&#x221e;" horiz-adv-x="820" 
d="M667 490q40 0 71 -14.5t52 -39t31.5 -57t10.5 -69.5q0 -43 -14.5 -83t-41.5 -71t-65.5 -49.5t-85.5 -18.5q-66 0 -117 39.5t-72 122.5q-21 -44 -47 -74.5t-55 -50t-59.5 -28.5t-60.5 -9q-40 0 -71 14.5t-52 39t-31.5 57t-10.5 69.5q0 43 14.5 83t41.5 71t65 49.5t85 18.5
q63 0 114.5 -38t74.5 -125q40 85 100 124t123 39zM664 470q-30 0 -61 -10.5t-59.5 -32t-52.5 -56t-40 -82.5q6 -48 22.5 -82.5t40 -56t53 -32t60.5 -10.5q42 0 76 17t58.5 44.5t37.5 63.5t13 75q0 33 -10 62.5t-28.5 51.5t-46 35t-63.5 13zM253 470q-42 0 -76 -17t-58 -44.5
t-37 -64t-13 -75.5q0 -33 9.5 -62t28.5 -51t46.5 -35t63.5 -13q31 0 62.5 10.5t59.5 33t51.5 56.5t38.5 81q-6 49 -23 83t-41 56t-53 32t-59 10z" />
    <glyph glyph-name="integral" unicode="&#x222b;" horiz-adv-x="260" 
d="M102 -165q-6 -58 -35.5 -91.5t-82.5 -33.5q-14 0 -27 2.5t-28 10.5l2 23q26 -16 55 -16q44 0 67.5 28t28.5 77l87 834q6 58 36 91.5t83 33.5q14 0 26.5 -2.5t27.5 -10.5l-2 -23q-26 16 -55 16q-44 0 -67.5 -28t-28.5 -77z" />
    <glyph glyph-name="approxequal" unicode="&#x2248;" 
d="M99 342q25 23 51 32t49 9q26 0 55.5 -9.5t58.5 -22.5q30 -13 56 -24.5t51 -11.5q31 0 61.5 18t50.5 35l-2 -25q-26 -20 -55 -34t-58 -14q-20 0 -44 9t-70 29q-24 11 -52 20.5t-53 9.5q-24 0 -51.5 -11.5t-50.5 -36.5zM83 163q25 23 51 32t49 9q26 0 55.5 -9.5t58.5 -22.5
q30 -13 56 -24.5t51 -11.5q31 0 60.5 17t52.5 36l-3 -25q-26 -20 -55 -34t-58 -14q-20 0 -44 9t-70 29q-24 11 -52 20.5t-53 9.5q-24 0 -51.5 -11.5t-50.5 -36.5z" />
    <glyph glyph-name="notequal" unicode="&#x2260;" 
d="M251 184l-82 -132h-20l82 132h-134l2 20h144l99 159h-226l2 20h237l82 132h20l-82 -132h147l-2 -20h-158l-99 -159h240l-2 -20h-250z" />
    <glyph glyph-name="lessequal" unicode="&#x2264;" 
d="M499 261l-367 159l2 20l401 158l-3 -22l-381 -147l350 -147zM98 97l2 19h384l-2 -19h-384z" />
    <glyph glyph-name="greaterequal" unicode="&#x2265;" 
d="M117 282l382 147l-351 147l3 22l367 -158l-2 -20l-401 -159zM98 97l2 19h384l-2 -19h-384z" />
    <glyph glyph-name="lozenge" unicode="&#x25ca;" horiz-adv-x="445" 
d="M47 396l250 398h20l165 -398l-249 -396h-20zM226 24l233 372q-40 94 -78 187t-77 187l-234 -374z" />
    <glyph glyph-name="commaaccent" unicode="&#xf6c3;" horiz-adv-x="186" 
d="M50 -77q25 0 43 12.5t21 43.5l10 99h20l-10 -99q-5 -42 -28.5 -59t-57.5 -17z" />
    <glyph glyph-name="asuperior" unicode="&#xf6e9;" horiz-adv-x="381" 
d="M360 550l-25 -235h-20l7 62q-15 -29 -44.5 -48t-67.5 -19q-52 0 -81 32.5t-29 78.5q0 27 10 51.5t28 42.5t43 29t54 11q41 0 65.5 -19.5t33.5 -48.5l6 63h20zM214 329q25 0 46 9t36 24.5t23.5 36t8.5 43.5q0 39 -24.5 67t-69.5 28q-25 0 -46 -9.5t-36 -25t-23.5 -36.5
t-8.5 -44q0 -38 24.5 -65.5t69.5 -27.5z" />
    <glyph glyph-name="bsuperior" unicode="&#xf6ea;" horiz-adv-x="382" 
d="M132 315h-20l40 385h20l-22 -213q15 30 44.5 49t67.5 19q51 0 80.5 -32.5t29.5 -78.5q0 -27 -10.5 -51.5t-28.5 -43t-42.5 -29t-53.5 -10.5q-39 0 -64.5 19t-33.5 48zM237 329q25 0 46 9t36.5 24.5t24 36t8.5 43.5q0 39 -24.5 67t-69.5 28q-25 0 -46 -9.5t-36 -25
t-23.5 -36.5t-8.5 -44q0 -38 24 -65.5t69 -27.5z" />
    <glyph glyph-name="dsuperior" unicode="&#xf6eb;" horiz-adv-x="381" 
d="M322 377q-15 -29 -44.5 -48t-67.5 -19q-52 0 -81 32.5t-29 78.5q0 27 10 51.5t28 42.5t43 29t54 11q41 0 65.5 -19.5t33.5 -48.5l22 213h20l-41 -385h-20zM214 329q25 0 46 9t36 24.5t23.5 36t8.5 43.5q0 39 -24.5 67t-69.5 28q-25 0 -46 -9.5t-36 -25t-23.5 -36.5
t-8.5 -44q0 -38 24.5 -65.5t69.5 -27.5z" />
    <glyph glyph-name="esuperior" unicode="&#xf6ec;" horiz-adv-x="342" 
d="M124 432q-2 -20 1.5 -38.5t14 -33t27.5 -23.5t42 -9q34 0 56.5 15.5t32.5 36.5h20q-10 -28 -39 -49t-72 -21q-53 0 -78.5 33.5t-25.5 78.5q0 28 9 52t25.5 42t40 28.5t51.5 10.5q48 0 74.5 -27.5t26.5 -71.5q0 -12 -3 -24h-203zM229 537q-39 0 -67 -24t-35 -64h183
q4 40 -19.5 64t-61.5 24z" />
    <glyph glyph-name="isuperior" unicode="&#xf6ed;" horiz-adv-x="183" 
d="M152 676h20l-6 -57h-20zM159 550l-25 -235h-20l25 235h20z" />
    <glyph glyph-name="lsuperior" unicode="&#xf6ee;" horiz-adv-x="178" 
d="M152 700h20l-40 -385h-20z" />
    <glyph glyph-name="msuperior" unicode="&#xf6ef;" horiz-adv-x="498" 
d="M436 315l15 143q5 43 -12.5 61t-43.5 18q-21 0 -36.5 -9t-26.5 -24t-17 -33.5t-8 -36.5l-13 -119h-20l14 132q3 27 -1 44.5t-12 27.5t-19 14t-23 4q-19 0 -34.5 -8.5t-26.5 -22.5t-18 -32.5t-9 -39.5l-13 -119h-20l25 235h20l-7 -64q9 28 31.5 48.5t58.5 20.5
q30 0 48.5 -17.5t19.5 -52.5q8 26 32 48t62 22q15 0 28.5 -4.5t23.5 -15t15.5 -28.5t2.5 -44l-16 -148h-20z" />
    <glyph glyph-name="osuperior" unicode="&#xf6f0;" horiz-adv-x="357" 
d="M212 310q-54 0 -83 32.5t-29 78.5q0 27 10 51t28 42.5t43 29.5t55 11q54 0 83 -32.5t29 -78.5q0 -27 -10 -51.5t-28 -42.5t-43 -29t-55 -11zM214 329q25 0 46 9t36 24.5t23.5 36t8.5 43.5q0 39 -24.5 67t-69.5 28q-25 0 -46 -9.5t-36 -25t-23.5 -36.5t-8.5 -44
q0 -38 24.5 -65.5t69.5 -27.5z" />
    <glyph glyph-name="rsuperior" unicode="&#xf6f1;" horiz-adv-x="245" 
d="M270 531q-13 4 -23 4q-24 0 -43 -10.5t-31.5 -26.5t-20 -36.5t-9.5 -39.5l-11 -107h-20l25 235h20l-7 -68q16 38 43 55t56 17q15 0 23 -4z" />
    <glyph glyph-name="ssuperior" unicode="&#xf6f2;" horiz-adv-x="306" 
d="M206 441q17 -3 31.5 -7t25.5 -10t17 -16t6 -26q0 -33 -25 -52.5t-71 -19.5q-20 0 -38 4.5t-30.5 14.5t-19 26t-4.5 40h20q-4 -38 18 -53t55 -15q35 0 55 14.5t20 37.5t-19.5 32t-55.5 16q-13 3 -26.5 5.5t-24.5 8.5t-18 16t-7 27q0 34 26 52.5t66 18.5q38 0 63.5 -18.5
t21.5 -58.5h-20q3 30 -15 45t-50 15t-52 -14t-20 -39q0 -23 18 -30t53 -14z" />
    <glyph glyph-name="tsuperior" unicode="&#xf6f3;" horiz-adv-x="233" 
d="M234 315q-8 -2 -18.5 -2.5t-20.5 -0.5q-13 0 -25 2.5t-21 10.5t-13 24.5t-1 43.5l15 139h-53l2 18h53l10 99h20l-10 -99h78l-2 -18h-78l-14 -137q-2 -21 0.5 -34t9 -19.5t15.5 -8.5t19 -2q8 0 18 0.5t18 2.5z" />
    <glyph glyph-name="apple" unicode="&#xf8ff;" horiz-adv-x="800" 
d="M473 717q80 0 141 -27.5t102.5 -73t63 -105.5t21.5 -125q0 -77 -29 -150t-81.5 -129t-126 -90t-162.5 -34q-80 0 -141.5 27.5t-103 73t-63 105.5t-21.5 125q0 77 29 149.5t82 129t126.5 90.5t162.5 34zM473 695q-42 0 -79 -8t-67 -21t-59 -32t-55 -44
q-25 -24 -44.5 -52.5t-33.5 -57.5q-17 -35 -25.5 -66.5t-12.5 -63.5q-7 -66 11 -129q8 -32 22 -59.5t33 -50.5q20 -24 43.5 -43t54.5 -33q64 -29 140 -29t145 29q34 14 61 32.5t53 43.5q49 48 79 110q15 31 27 67.5t12 92.5q0 26 -3 51t-9 48q-8 29 -22 57t-34 53
q-40 48 -98 76q-63 29 -139 29zM192 228q12 -8 31 -20t42.5 -23.5t51 -19.5t56.5 -8q42 4 82 8q34 4 70 8t62 7q-18 -23 -41.5 -44.5t-61.5 -39.5q-30 -14 -60 -22t-53 -8q-47 0 -91.5 37.5t-87.5 124.5zM247 259l207 268l-136 -243h178l-2 -25h-247zM248 169q12 -21 29 -36
t36 -24t36.5 -13t31.5 -4q22 0 49 9t51 20t41.5 21t21.5 13q-35 -7 -78.5 -15t-87.5 -8q-15 0 -33.5 1.5t-36 5.5t-33.5 11.5t-27 18.5zM254 496q0 20 14 33.5t32 13.5q17 0 28 -11t11 -28q0 -19 -14 -33t-33 -14q-17 0 -27.5 11.5t-10.5 27.5zM551 496q0 20 14 33.5
t32 13.5q17 0 28 -11t11 -28q0 -19 -14 -33t-33 -14q-17 0 -27.5 11.5t-10.5 27.5zM617 161q4 9 4 18q0 7 -2 13q-2 5 -3 5q-2 2 -1.5 1.5t-1.5 0.5q-3 1 -2.5 1t-1.5 1l-13 5q-7 4 -15 8t-16 11q-11 9 -16 20l-2 11q-2 7 -2.5 8t0.5 6q-1 8 -1.5 15.5t0.5 15.5q2 5 2.5 10
t2.5 9l14 -5q0 -2 -1 -4.5t-1 -5.5l-1 -13q0 -7 -0.5 -14t1.5 -13q1 -2 1.5 -6t2.5 -6q2 -6 7.5 -12t9.5 -8q8 -5 15.5 -8t9.5 -5l14 -6q2 -1 3 -2l3 -3q6 -5 5.5 -5.5t1.5 -3.5q3 -9 3 -19q0 -13 -4 -24zM248 331q-1 -5 -0.5 -10t0.5 -10v-12q0 -8 -2.5 -16t-6.5 -13
q-2 -5 -15 -11q-4 -2 -5 -2q-5 -2 -11 -4.5t-11 -5.5q-4 -1 -10 -5q-2 -1 -3 -2t-4 -3q-4 -7 -6 -13l-4 -17h-16q1 5 1.5 10t2.5 10q4 13 11 20q4 4 6 5t5 3l11 7q4 2 11.5 5t13.5 5l1 1q5 2 10 8q5 5 5 16v12l-1 20zM600 196q1 1 -0.5 -7t-2.5 -8q-3 -1 -10 -1q7 7 13 16z
" />
    <glyph glyph-name="commaturn" horiz-adv-x="186" 
d="M209 772q-25 0 -43 -12.5t-21 -43.5l-10 -99h-20l10 99q5 42 28.5 59t57.5 17z" />
    <glyph glyph-name="zero.slash" 
d="M277 -13q-50 0 -88.5 17.5t-64 47.5t-37 69.5t-6.5 83.5l31 289q5 45 24.5 84.5t51 69.5t74 47.5t92.5 17.5q51 0 89.5 -18t64 -48t37 -69.5t6.5 -83.5l-31 -289q-5 -44 -24.5 -83.5t-51.5 -69.5t-74.5 -47.5t-92.5 -17.5zM161 46q22 -18 51.5 -28.5t66.5 -10.5
q46 0 85 16t67.5 43t46.5 63t22 76l31 289q5 44 -8 83t-42 68zM101 205q-5 -43 7 -80.5t38 -64.5l319 598q-23 17 -51 26t-63 9q-45 0 -83.5 -16t-67 -43t-46.5 -63.5t-22 -76.5z" />
    <glyph glyph-name="csuperior" horiz-adv-x="345" 
d="M313 464q0 29 -18 51t-61 22q-27 0 -47.5 -10t-35 -26t-21.5 -36.5t-7 -42.5q0 -38 22 -65.5t69 -27.5q38 0 61.5 19t31.5 48h21q-8 -34 -37 -60t-80 -26q-28 0 -48.5 9t-33.5 24t-19.5 35t-6.5 42q0 26 9 50.5t26 43.5t41.5 30.5t56.5 11.5q27 0 45.5 -8t30 -21
t16.5 -29.5t5 -33.5h-20z" />
    <glyph glyph-name="fsuperior" horiz-adv-x="235" 
d="M273 679q-12 6 -30 6q-19 0 -36 -11t-22 -53l-7 -71h82l-2 -18h-82l-23 -217h-20l23 217h-57l2 18h57l7 69q3 28 11 44.5t19 25.5t23.5 11.5t24.5 2.5q20 0 32 -6z" />
    <glyph glyph-name="gsuperior" horiz-adv-x="381" 
d="M234 537q-25 0 -46 -9.5t-36 -25t-23.5 -36.5t-8.5 -43q0 -39 24.5 -66.5t69.5 -27.5q25 0 46 9t36.5 24.5t24 36t8.5 43.5q0 39 -25 67t-70 28zM333 292q-8 -73 -44.5 -102.5t-91.5 -29.5q-35 0 -57 10t-34.5 26t-16.5 37t-3 43h20q-2 -43 18.5 -70t73.5 -27
q22 0 41.5 5.5t34.5 18.5t25.5 35t13.5 54l9 86q-15 -30 -44.5 -49t-67.5 -19q-52 0 -81 32.5t-29 78.5q0 27 10 51.5t28 42.5t43 29t54 11q41 0 65.5 -19t33.5 -48l6 62h20z" />
    <glyph glyph-name="ksuperior" horiz-adv-x="294" 
d="M170 432l118 -117h-28l-116 115l-12 -115h-20l40 385h20l-27 -265l140 115h28z" />
    <glyph glyph-name="psuperior" horiz-adv-x="382" 
d="M150 488q15 29 44.5 48t67.5 19q51 0 80.5 -32.5t29.5 -78.5q0 -27 -10.5 -51.5t-28.5 -42.5t-42.5 -29t-53.5 -11q-39 0 -64.5 19t-34.5 49l-22 -213h-20l40 385h20zM258 537q-26 0 -47 -9.5t-36 -25t-23 -36.5t-8 -43q0 -39 24 -66.5t69 -27.5q25 0 46 9t36.5 24.5
t24 36.5t8.5 44q0 38 -24.5 66t-69.5 28z" />
    <glyph glyph-name="qsuperior" horiz-adv-x="382" 
d="M341 550h20l-40 -385h-20l22 213q-15 -30 -44.5 -49t-67.5 -19q-52 0 -81 32.5t-29 78.5q0 27 10 51.5t28 42.5t43 29t54 11q41 0 65.5 -19t33.5 -48zM235 537q-25 0 -46 -9.5t-36 -25t-23.5 -36.5t-8.5 -44q0 -38 24 -65.5t69 -27.5q25 0 46 9t36.5 25t24 36.5t8.5 43.5
q0 38 -24.5 66t-69.5 28z" />
    <glyph glyph-name="usuperior" horiz-adv-x="364" 
d="M318 315h-20l7 64q-12 -27 -38.5 -48t-67.5 -21q-21 0 -38.5 6.5t-28.5 19.5q-10 12 -14.5 31.5t-1.5 46.5l14 136h20l-14 -132q-2 -18 1 -34t11 -28.5t22.5 -20t35.5 -7.5q24 0 42.5 9.5t31.5 24.5t20.5 33t9.5 36l13 119h20z" />
    <glyph glyph-name="vsuperior" horiz-adv-x="309" 
d="M116 550l74 -208l119 208h22l-136 -235h-16l-85 235h22z" />
    <glyph glyph-name="zsuperior" horiz-adv-x="294" 
d="M303 550l-185 -216h163l-2 -19h-200l185 216h-155l2 19h192z" />
    <glyph glyph-name="plusinferior" horiz-adv-x="369" 
d="M159 -150l10 97h-97l2 19h97l10 97h20l-10 -97h96l-2 -19h-96l-10 -97h-20z" />
    <glyph glyph-name="minusinferior" horiz-adv-x="370" 
d="M69 -51l2 18h222l-2 -18h-222z" />
    <glyph glyph-name="equalinferior" horiz-adv-x="370" 
d="M73 -5l2 18h222l-2 -18h-222zM63 -102l2 19h222l-2 -19h-222z" />
    <glyph glyph-name="zero.numerator" horiz-adv-x="377" 
d="M110 431q1 26 4 53q2 23 6.5 51.5t12.5 56.5q17 66 45.5 90.5t75.5 24.5q34 0 58 -10t38 -27t19.5 -39.5t3.5 -46.5q-2 -27 -5 -54q-2 -23 -6.5 -51.5t-10.5 -54.5q-17 -66 -44.5 -91t-77.5 -25q-35 0 -58.5 10t-37.5 27t-19.5 39t-3.5 47zM352 584q2 21 -3 40t-17 33
t-30 22.5t-42 8.5q-47 0 -77.5 -31t-35.5 -73l-16 -153q-2 -21 3 -40t17 -33t30 -22.5t41 -8.5q48 0 78.5 31t35.5 73z" />
    <glyph glyph-name="one.numerator" horiz-adv-x="224" 
d="M191 629q-11 -13 -30 -17t-48 -4l2 20q27 0 43 4t24 12.5t11.5 22t5.5 33.5h20l-41 -385h-20z" />
    <glyph glyph-name="two.numerator" horiz-adv-x="349" 
d="M89 315q6 49 16.5 79.5t27.5 50t41 32t56 24.5q18 6 37 14t34 20t25 29t10 42q0 38 -22.5 59t-63.5 21q-48 0 -77.5 -28.5t-34.5 -72.5h-21q3 25 13.5 46.5t27.5 38t41 26t54 9.5q51 0 77.5 -26t26.5 -71q0 -30 -11 -50.5t-28.5 -34.5t-38.5 -23t-41 -16
q-31 -11 -52.5 -22.5t-36 -28t-23 -40t-12.5 -59.5h218l-2 -19h-241v0z" />
    <glyph glyph-name="three.numerator" horiz-adv-x="355" 
d="M113 420q-5 -41 20.5 -66t72.5 -25q49 0 80 27t31 69q0 35 -23.5 57t-66.5 22h-31l2 19h31q47 0 74.5 25t27.5 63q0 35 -23 55t-65 20q-45 0 -73 -23.5t-32 -61.5h-21q5 47 39.5 75.5t87.5 28.5q49 0 78 -25.5t29 -67.5q0 -34 -21 -62t-65 -36q38 -7 55.5 -31.5
t17.5 -56.5q0 -51 -38 -83.5t-97 -32.5q-55 0 -85.5 30t-25.5 80h21z" />
    <glyph glyph-name="four.numerator" horiz-adv-x="355" 
d="M268 457h-150l26 243h21l-24 -223h129l13 126h21l-13 -126h69l-2 -20h-69l-15 -142h-21z" />
    <glyph glyph-name="five.numerator" horiz-adv-x="379" 
d="M153 700h211l-2 -19h-191l-19 -179q15 24 42.5 37.5t59.5 13.5q51 0 80 -31t29 -78q0 -27 -10.5 -51.5t-28.5 -42.5t-43.5 -29t-55.5 -11q-28 0 -50 10t-36 26.5t-20.5 38.5t-3.5 47h21q-2 -20 3 -38.5t16.5 -33t30 -23t42.5 -8.5q25 0 46 9t36 25t23.5 36t8.5 43
q0 39 -24.5 65.5t-69.5 26.5q-64 0 -95 -55h-23z" />
    <glyph glyph-name="six.numerator" horiz-adv-x="349" 
d="M206 310q-53 0 -82 32.5t-29 78.5q0 22 7 42.5t20 37.5l144 199h25l-120 -165q10 11 27.5 15.5t34.5 4.5q51 0 80.5 -32.5t29.5 -78.5q0 -27 -10.5 -51.5t-28.5 -42.5t-43 -29t-55 -11zM209 329q25 0 46 9t36 25t23 36t8 43q0 39 -24 66.5t-68 27.5q-25 0 -46 -9t-36 -25
t-23.5 -36.5t-8.5 -43.5q0 -38 24 -65.5t69 -27.5z" />
    <glyph glyph-name="seven.numerator" horiz-adv-x="301" 
d="M347 700l-227 -385h-23l217 366h-192l2 19h223z" />
    <glyph glyph-name="eight.numerator" horiz-adv-x="367" 
d="M216 310q-54 0 -83.5 27.5t-29.5 69.5q0 38 24 68.5t69 38.5q-33 6 -50 27.5t-17 53.5q0 23 9 43t26 35t40 23.5t52 8.5q51 0 80 -25.5t29 -66.5q0 -36 -22 -63.5t-64 -35.5q36 -6 54 -31t18 -57q0 -50 -37.5 -83t-97.5 -33zM239 522q48 0 76.5 25.5t28.5 62.5
q0 33 -23.5 54.5t-65.5 21.5q-47 0 -75.5 -26t-28.5 -64q0 -33 22.5 -53.5t65.5 -20.5zM218 329q51 0 81.5 27t30.5 68q0 35 -24 57.5t-70 22.5q-52 0 -82 -27t-30 -67q0 -36 24.5 -58.5t69.5 -22.5z" />
    <glyph glyph-name="nine.numerator" horiz-adv-x="349" 
d="M250 705q54 0 82.5 -32.5t28.5 -78.5q0 -23 -7.5 -43t-20.5 -37l-144 -199h-24l121 165q-11 -11 -28 -15.5t-35 -4.5q-51 0 -80.5 32.5t-29.5 78.5q0 27 10 51.5t28.5 42.5t43.5 29t55 11zM248 686q-25 0 -46 -9.5t-36 -25t-23.5 -36.5t-8.5 -43q0 -38 24 -65.5t69 -27.5
q25 0 46 9t36 25t23 36t8 43q0 38 -23.5 66t-68.5 28z" />
    <glyph glyph-name="plus.numerator" horiz-adv-x="369" 
d="M214 365l10 97h-97l2 19h97l10 97h20l-10 -97h96l-2 -19h-96l-10 -97h-20z" />
    <glyph glyph-name="minus.numerator" horiz-adv-x="370" 
d="M123 464l2 18h222l-2 -18h-222z" />
    <glyph glyph-name="equal.numerator" horiz-adv-x="370" 
d="M127 510l2 18h222l-2 -18h-222zM117 413l2 19h222l-2 -19h-222z" />
    <glyph glyph-name="parenleft.numerator" horiz-adv-x="235" 
d="M282 733q-47 0 -77.5 -31t-35.5 -73l-34 -321q-2 -21 3 -39.5t17 -33t30 -22.5t41 -8l-2 -20q-28 0 -50 10t-36 27t-20.5 39t-3.5 47l34 321q3 25 14 47.5t28.5 39t41.5 26.5t52 10z" />
    <glyph glyph-name="parenright.numerator" horiz-adv-x="235" 
d="M109 752q28 0 49.5 -10t36 -26.5t21 -39t3.5 -47.5l-34 -321q-3 -25 -14 -47t-29 -39t-41.5 -27t-51.5 -10l2 20q47 0 77.5 30.5t35.5 72.5l34 321q2 21 -3 40t-17 33t-30 22.5t-41 8.5z" />
    <glyph glyph-name="zero.denominator" horiz-adv-x="377" 
d="M77 116q1 26 4 53q2 23 6.5 51.5t12.5 56.5q17 66 45.5 90.5t75.5 24.5q34 0 58 -10t38 -27t19.5 -39.5t3.5 -46.5q-2 -27 -5 -54q-2 -23 -6.5 -51.5t-10.5 -54.5q-17 -66 -44.5 -91t-77.5 -25q-35 0 -58.5 10t-37.5 27t-19.5 39t-3.5 47zM319 269q2 21 -3 40t-17 33
t-30 22.5t-42 8.5q-47 0 -77.5 -31t-35.5 -73l-16 -153q-2 -21 3 -40t17 -33t30 -22.5t41 -8.5q48 0 78.5 31t35.5 73z" />
    <glyph glyph-name="one.denominator" horiz-adv-x="224" 
d="M158 314q-11 -13 -30 -17t-48 -4l2 20q27 0 43 4t24 12.5t11.5 22t5.5 33.5h20l-41 -385h-20z" />
    <glyph glyph-name="two.denominator" horiz-adv-x="349" 
d="M56 0q6 49 16.5 79.5t27.5 50t41 32t56 24.5q18 6 37 14t34 20t25 29t10 42q0 38 -22.5 59t-63.5 21q-48 0 -77.5 -28.5t-34.5 -72.5h-21q3 25 13.5 46.5t27.5 38t41 26t54 9.5q51 0 77.5 -26t26.5 -71q0 -30 -11 -50.5t-28.5 -34.5t-38.5 -23t-41 -16
q-31 -11 -52.5 -22.5t-36 -28t-23 -40t-12.5 -59.5h218l-2 -19h-241v0z" />
    <glyph glyph-name="three.denominator" horiz-adv-x="355" 
d="M80 105q-5 -41 20 -66t73 -25q50 0 80.5 27t30.5 69q0 35 -23.5 57t-66.5 22h-31l2 19h31q47 0 74.5 25t27.5 63q0 35 -23 55t-65 20q-45 0 -73 -23.5t-32 -61.5h-21q5 47 39.5 75.5t87.5 28.5q49 0 78 -25.5t29 -67.5q0 -34 -21 -62t-65 -36q38 -7 55.5 -31.5
t17.5 -56.5q0 -51 -38 -83.5t-97 -32.5q-55 0 -85.5 30t-25.5 80h21z" />
    <glyph glyph-name="four.denominator" horiz-adv-x="355" 
d="M235 142h-150l26 243h21l-24 -223h129l13 126h21l-13 -126h69l-2 -20h-69l-15 -142h-21z" />
    <glyph glyph-name="five.denominator" horiz-adv-x="379" 
d="M120 385h211l-2 -19h-191l-19 -179q15 24 42.5 37.5t59.5 13.5q51 0 80 -31t29 -78q0 -27 -10.5 -51.5t-28.5 -42.5t-43.5 -29t-55.5 -11q-28 0 -50 10t-36 26.5t-20.5 38.5t-3.5 47h21q-2 -20 3 -38.5t16.5 -33t30 -23t42.5 -8.5q25 0 46 9t36 25t23.5 36t8.5 43
q0 39 -24.5 65.5t-69.5 26.5q-64 0 -95 -55h-23z" />
    <glyph glyph-name="six.denominator" horiz-adv-x="349" 
d="M174 -5q-54 0 -83 32.5t-29 78.5q0 22 7 42.5t20 37.5l144 199h25l-120 -165q10 11 27.5 15.5t34.5 4.5q52 0 81 -33t29 -78q0 -27 -10 -51.5t-28 -42.5t-43 -29t-55 -11zM176 14q25 0 45.5 9t35.5 25t23.5 36.5t8.5 43.5q0 38 -24 65.5t-68 27.5q-25 0 -46 -9t-36 -25
t-23.5 -36.5t-8.5 -43.5q0 -38 24 -65.5t69 -27.5z" />
    <glyph glyph-name="seven.denominator" horiz-adv-x="301" 
d="M314 385l-227 -385h-23l217 366h-192l2 19h223z" />
    <glyph glyph-name="eight.denominator" horiz-adv-x="367" 
d="M183 -5q-54 0 -83.5 27.5t-29.5 69.5q0 38 24 68.5t69 38.5q-33 6 -50 27.5t-17 53.5q0 23 9 43t26 35t40 23.5t52 8.5q51 0 80 -25.5t29 -66.5q0 -36 -22 -63.5t-64 -35.5q36 -6 54 -31t18 -57q0 -50 -37.5 -83t-97.5 -33zM206 207q48 0 76.5 25.5t28.5 62.5
q0 33 -23.5 54.5t-65.5 21.5q-47 0 -75.5 -26t-28.5 -64q0 -33 22.5 -53.5t65.5 -20.5zM185 14q51 0 81.5 27t30.5 68q0 35 -24 57.5t-70 22.5q-52 0 -82 -27t-30 -67q0 -36 24.5 -58.5t69.5 -22.5z" />
    <glyph glyph-name="nine.denominator" horiz-adv-x="349" 
d="M216 390q54 0 82.5 -32.5t28.5 -78.5q0 -23 -7.5 -43t-20.5 -37l-144 -199h-24l121 165q-11 -11 -27.5 -15.5t-34.5 -4.5q-52 0 -81.5 32t-29.5 79q0 27 10 51.5t28.5 42.5t43.5 29t55 11zM214 371q-25 0 -46 -9t-36 -25t-23.5 -36.5t-8.5 -43.5q0 -38 24 -65.5t69 -27.5
q25 0 46 9t36 25t23 36.5t8 43.5q0 38 -23.5 65.5t-68.5 27.5z" />
    <glyph glyph-name="plus.denominator" horiz-adv-x="369" 
d="M180 50l10 97h-97l2 19h97l10 97h20l-10 -97h96l-2 -19h-96l-10 -97h-20z" />
    <glyph glyph-name="minus.denominator" horiz-adv-x="370" 
d="M90 149l2 18h222l-2 -18h-222z" />
    <glyph glyph-name="equal.denominator" horiz-adv-x="370" 
d="M94 195l2 18h222l-2 -18h-222zM84 98l2 19h222l-2 -19h-222z" />
    <glyph glyph-name="parenleft.denominator" horiz-adv-x="235" 
d="M249 418q-47 0 -77.5 -31t-35.5 -73l-34 -321q-2 -21 3 -39.5t17 -33t30 -22.5t41 -8l-2 -20q-28 0 -50 10t-36 27t-20.5 39t-3.5 47l34 321q3 25 14 47.5t28.5 39t41.5 26.5t52 10z" />
    <glyph glyph-name="parenright.denominator" horiz-adv-x="235" 
d="M76 437q28 0 49.5 -10t36 -26.5t21 -39t3.5 -47.5l-34 -321q-3 -25 -14 -47t-29 -39t-41.5 -27t-51.5 -10l2 20q47 0 77.5 30.5t35.5 72.5l34 321q2 21 -3 40t-17 33t-30 22.5t-41 8.5z" />
    <glyph glyph-name="at.case" horiz-adv-x="927" 
d="M645 187q-26 -55 -78.5 -90.5t-122.5 -35.5q-44 0 -78.5 15t-58.5 40.5t-36.5 59t-12.5 71.5q0 45 17 85.5t47 71.5t72 49.5t92 18.5q72 0 116.5 -35.5t59.5 -91.5l12 119h19l-36 -347q-5 -53 17.5 -78.5t55.5 -25.5q30 0 56 20.5t45.5 58.5t31 92t11.5 122
q0 182 -84.5 265t-245.5 83q-116 0 -201 -36.5t-141 -96t-83.5 -135t-27.5 -152.5q0 -69 22 -132.5t69 -112t119 -78t173 -29.5q27 0 62 3t75 10.5t82.5 21.5t83.5 36l9 -17q-42 -22 -84.5 -36.5t-83.5 -22.5t-78.5 -11.5t-67.5 -3.5q-105 0 -180.5 31t-124.5 82.5
t-72.5 118.5t-23.5 139q0 81 29 160t88 141.5t148 101t210 38.5q171 0 260 -88t89 -280q0 -73 -12.5 -131t-35 -98.5t-53 -62t-67.5 -21.5q-46 0 -70.5 32t-18.5 92zM447 79q45 0 83 17t66 45t43.5 65t15.5 78q0 34 -11.5 65t-33.5 54t-54 36.5t-72 13.5q-45 0 -83 -16.5
t-65.5 -45t-43 -65.5t-15.5 -77q0 -35 11.5 -65.5t33.5 -54t53.5 -37t71.5 -13.5z" />
    <glyph glyph-name="plus.case" 
d="M286 153l19 181h-182l2 20h182l19 183h20l-19 -183h182l-2 -20h-182l-19 -181h-20z" />
    <glyph glyph-name="minus.case" 
d="M114 338l2 19h404l-2 -19h-404z" />
    <glyph glyph-name="multiply.case" 
d="M461 435l13 -14l-151 -136l122 -136l-15 -14l-122 136l-149 -136l-13 14l149 136l-120 136l15 14l121 -136z" />
    <glyph glyph-name="divide.case" 
d="M108 285l2 19h404l-2 -19h-404zM320 473h20l-11 -103h-20zM294 228h20l-11 -103h-20z" />
    <glyph glyph-name="equal.case" 
d="M123 423l2 20h404l-2 -20h-404zM104 244l2 20h404l-2 -20h-404z" />
    <glyph glyph-name="notequal.case" 
d="M258 244l-82 -132h-20l82 132h-134l2 20h144l99 159h-226l2 20h237l82 132h20l-82 -132h147l-2 -20h-158l-99 -159h240l-2 -20h-250z" />
    <glyph glyph-name="approxequal.case" 
d="M106 402q25 23 51 32t49 9q26 0 55.5 -9.5t58.5 -22.5q30 -13 56 -24.5t51 -11.5q31 0 61.5 18t50.5 35l-2 -25q-26 -20 -55 -34t-58 -14q-20 0 -44 9t-70 29q-24 11 -52 20.5t-53 9.5q-24 0 -51.5 -11.5t-50.5 -36.5zM90 223q25 23 51 32t49 9q26 0 55.5 -9.5
t58.5 -22.5q30 -13 56 -24.5t51 -11.5q31 0 60.5 17t52.5 36l-3 -25q-26 -20 -55 -34t-58 -14q-20 0 -44 9t-70 29q-24 11 -52 20.5t-53 9.5q-24 0 -51.5 -11.5t-50.5 -36.5z" />
    <glyph glyph-name="logicalnot.case" 
d="M498 338h-384l2 19h404l-17 -157h-20z" />
    <glyph glyph-name="parenleft.case" horiz-adv-x="301" 
d="M399 835q-45 0 -83.5 -16t-67 -43t-46.5 -63.5t-22 -76.5l-63 -592q-4 -40 6.5 -76t33.5 -63t58 -43t80 -16l-3 -20q-50 0 -88 17.5t-63.5 47.5t-37 69.5t-6.5 83.5l63 592q5 46 25 86t51.5 69.5t73.5 46.5t91 17z" />
    <glyph glyph-name="parenright.case" horiz-adv-x="301" 
d="M80 855q49 0 87.5 -17.5t64 -47.5t37 -69.5t6.5 -84.5l-62 -592q-5 -44 -24.5 -83.5t-51 -69.5t-74 -47.5t-91.5 -17.5l2 20q45 0 83.5 16t67 43t46.5 63t22 76l62 592q4 40 -6 76.5t-33 63.5t-58 43t-80 16z" />
    <glyph glyph-name="hyphen.case" horiz-adv-x="294" 
d="M299 335h-234l2 20h234z" />
    <glyph glyph-name="bracketleft.case" horiz-adv-x="275" 
d="M75 -174l108 1029h182l-2 -21h-162l-104 -988h162l-2 -20h-182z" />
    <glyph glyph-name="bracketright.case" horiz-adv-x="275" 
d="M-18 -174l2 20h162l104 988h-162l2 21h182l-108 -1029h-182z" />
    <glyph glyph-name="braceleft.case" horiz-adv-x="300" 
d="M400 854l-2 -20h-51q-21 0 -42.5 -7.5t-40 -22t-31 -37t-15.5 -52.5l-30 -282q-2 -22 -11 -39t-21.5 -29.5t-27 -21.5t-29.5 -14q13 -5 26 -14.5t22.5 -23.5t14.5 -32t3 -41l-26 -253q-3 -30 5 -52.5t23 -37t35 -22t41 -7.5h51l-2 -20h-51q-24 0 -47.5 8.5t-41.5 25.5
t-27.5 43.5t-5.5 61.5l26 253q3 26 -5 45t-21 31.5t-28 18.5t-27 6l2 20q12 0 28.5 6t32 17.5t27 29t14.5 41.5l30 282q4 35 19 61t36 43.5t46.5 26t49.5 8.5h51z" />
    <glyph glyph-name="braceright.case" horiz-adv-x="300" 
d="M131 854q24 0 47.5 -8.5t41.5 -26t27.5 -43.5t5.5 -61l-29 -282q-3 -24 5 -41.5t21 -29t28.5 -17.5t27.5 -6l-2 -20q-12 0 -28.5 -6t-32.5 -18.5t-27.5 -31.5t-14.5 -45l-26 -253q-4 -35 -19 -61.5t-36.5 -43.5t-47 -25.5t-49.5 -8.5h-51l2 20h51q21 0 43 7.5t40 22
t31 37t16 52.5l26 253q3 24 12 42.5t22 32t27.5 22.5t28.5 14q-14 5 -27 14t-22.5 21.5t-14.5 29.5t-3 39l29 282q3 30 -5 52.5t-23 37t-35 22t-41 7.5h-51l2 20h51z" />
    <glyph glyph-name="guillemotleft.case" horiz-adv-x="472" 
d="M450 165l-178 176l2 20l215 176l-3 -27l-193 -159l159 -159zM254 165l-178 176l2 20l215 176l-3 -27l-193 -159l159 -159z" />
    <glyph glyph-name="guillemotright.case" horiz-adv-x="472" 
d="M60 192l193 159l-160 159l3 27l178 -176l-3 -20l-214 -176zM256 192l193 159l-160 159l3 27l178 -176l-3 -20l-214 -176z" />
    <glyph glyph-name="endash.case" horiz-adv-x="503" 
d="M85 335l2 20h403l-2 -20h-403z" />
    <glyph glyph-name="emdash.case" horiz-adv-x="1006" 
d="M85 335l2 20h906l-2 -20h-906z" />
    <glyph glyph-name="guilsinglleft.case" horiz-adv-x="276" 
d="M254 165l-178 176l2 20l215 176l-3 -27l-193 -159l159 -159z" />
    <glyph glyph-name="guilsinglright.case" horiz-adv-x="276" 
d="M60 192l193 159l-160 159l3 27l178 -176l-3 -20l-214 -176z" />
    <glyph glyph-name="less.case" 
d="M60 334l2 20l527 194l-2 -22l-497 -182l459 -183l-2 -22z" />
    <glyph glyph-name="greater.case" 
d="M43 139l2 22l498 183l-459 182l2 22l487 -194l-3 -20z" />
    <glyph glyph-name="A.smcp" horiz-adv-x="500" 
d="M452 0h-22l-30 126h-275l-56 -126h-21l251 560h20zM134 146h261l-90 387z" />
    <glyph glyph-name="B.smcp" horiz-adv-x="536" 
d="M173 560h191q29 0 53 -10.5t41 -28.5t26 -42t9 -51q0 -26 -8.5 -50.5t-24.5 -44.5t-37.5 -34t-47.5 -19q42 -8 67 -43.5t25 -79.5q0 -31 -12.5 -59.5t-34.5 -50t-51.5 -34.5t-63.5 -13h-191zM162 270l-26 -250h171q28 0 53.5 11t45 29.5t30.5 43.5t11 52q0 23 -8 44
t-22.5 36.5t-34.5 24.5t-44 9h-176zM340 290q27 0 51 11.5t42.5 30t29 43.5t10.5 52q0 23 -8 43.5t-22.5 36t-35 24.5t-45.5 9h-171l-27 -250h176z" />
    <glyph glyph-name="C.smcp" horiz-adv-x="699" 
d="M639 151q-16 -33 -42.5 -62.5t-61 -51.5t-77 -35t-90.5 -13q-63 0 -111.5 21t-82 57t-51 84t-17.5 102q0 61 22 118t63.5 101.5t100 71.5t132.5 27q51 0 92.5 -13.5t72.5 -38.5t50 -59t25 -75h-21q-12 75 -69.5 120.5t-151.5 45.5q-69 0 -123.5 -25t-93 -66.5t-59 -94.5
t-20.5 -110q0 -50 16.5 -95t47.5 -78.5t76.5 -53t103.5 -19.5q85 0 149.5 39.5t97.5 102.5h22z" />
    <glyph glyph-name="D.smcp" horiz-adv-x="630" 
d="M321 560q64 0 113 -21.5t82 -57t50 -81.5t17 -95q0 -57 -22.5 -112t-64 -97.5t-101 -69t-133.5 -26.5h-148l59 560h148zM191 540l-55 -520h128q69 0 124.5 24.5t94 64.5t59.5 91t21 104q0 45 -15.5 87.5t-46.5 75.5t-76.5 53t-105.5 20h-128z" />
    <glyph glyph-name="E.smcp" horiz-adv-x="513" 
d="M191 540l-27 -252h269l-2 -19h-269l-26 -249h269l-2 -20h-289l59 560h289l-2 -20h-269z" />
    <glyph glyph-name="F.smcp" horiz-adv-x="511" 
d="M191 540l-28 -261h269l-2 -20h-269l-27 -259h-20l59 560h289l-2 -20h-269z" />
    <glyph glyph-name="G.smcp" horiz-adv-x="742" 
d="M422 239h279l-2 -19h-56q-21 -107 -93 -169t-184 -62q-66 0 -115 21.5t-81 57.5t-48 83t-16 98q0 62 22.5 120t64 103t99 72t128.5 27q43 0 79.5 -10.5t63.5 -28.5t45 -43t25 -53h-21q-16 52 -67.5 83.5t-126.5 31.5q-66 0 -119.5 -25t-92 -67t-59.5 -96t-21 -112
q0 -48 15 -91.5t45 -77t75.5 -53.5t106.5 -20q104 0 169 57.5t85 153.5h-202z" />
    <glyph glyph-name="H.smcp" horiz-adv-x="609" 
d="M503 269h-341l-28 -269h-20l59 560h20l-29 -272h341l29 272h20l-59 -560h-20z" />
    <glyph glyph-name="I.smcp" horiz-adv-x="248" 
d="M173 560h20l-59 -560h-20z" />
    <glyph glyph-name="J.smcp" horiz-adv-x="508" 
d="M424 165q-5 -41 -21 -74t-41 -55.5t-57 -34.5t-69 -12q-36 0 -67.5 12t-54 34.5t-34 55.5t-6.5 74h20q-4 -37 6 -66t30 -49t48 -30.5t60 -10.5q65 0 111.5 41t54.5 115l42 395h20z" />
    <glyph glyph-name="K.smcp" horiz-adv-x="515" 
d="M163 278l-29 -278h-20l59 560h20l-29 -278l338 278h30l-341 -280l282 -280h-30z" />
    <glyph glyph-name="L.smcp" horiz-adv-x="413" 
d="M347 20l-2 -20h-231l59 560h20l-57 -540h211z" />
    <glyph glyph-name="M.smcp" horiz-adv-x="727" 
d="M613 0h-20l54 513l-274 -513h-19l-166 513l-54 -513h-20l59 560h21l172 -534l285 534h21z" />
    <glyph glyph-name="N.smcp" horiz-adv-x="608" 
d="M477 32l56 528h20l-59 -560h-23l-282 528l-55 -528h-20l59 560h24z" />
    <glyph glyph-name="O.smcp" horiz-adv-x="729" 
d="M366 -11q-63 0 -111.5 22t-81.5 58.5t-50 84t-17 98.5q0 61 23 118.5t64.5 102t99.5 71.5t129 27q63 0 111.5 -22t81.5 -58.5t50 -84t17 -98.5q0 -61 -23 -118.5t-64.5 -102t-100 -71.5t-128.5 -27zM368 9q66 0 120 25t92.5 66t60 95t21.5 111q0 48 -15.5 92.5t-46 78.5
t-75.5 54t-104 20q-66 0 -120 -25t-92.5 -66t-60 -95t-21.5 -111q0 -48 15.5 -92.5t46 -78.5t75.5 -54t104 -20z" />
    <glyph glyph-name="P.smcp" horiz-adv-x="557" 
d="M173 560h185q38 0 67.5 -12.5t50 -34.5t31.5 -51t11 -62q0 -38 -14.5 -73t-40.5 -61.5t-62 -42t-80 -15.5h-165l-22 -208h-20zM323 228q39 0 71 14t55 37t36 54t13 65q0 29 -9.5 55t-28 45.5t-45 30.5t-59.5 11h-165l-33 -312h165z" />
    <glyph glyph-name="Q.smcp" horiz-adv-x="729" 
d="M682 304q0 -65 -23.5 -120.5t-64 -97t-94.5 -66.5t-115 -29l45 -75l-19 -10l-48 83q-62 0 -110 22t-80.5 58.5t-49.5 84t-17 98.5q0 61 23 118.5t64.5 102t100 71.5t129.5 27q63 0 111 -21.5t81 -58t50 -85t17 -102.5zM368 9q66 0 120 25t92.5 66.5t60 95t21.5 110.5
q0 48 -15.5 92.5t-46 78t-75.5 54t-104 20.5q-66 0 -120 -25t-92.5 -66.5t-60 -95t-21.5 -110.5q0 -48 15.5 -92.5t46.5 -78.5t75.5 -54t103.5 -20z" />
    <glyph glyph-name="R.smcp" horiz-adv-x="557" 
d="M173 560h185q38 0 67.5 -12.5t50 -34.5t31.5 -51t11 -62q0 -35 -11.5 -66t-33 -56.5t-51 -43t-65.5 -23.5l116 -211h-25l-113 208h-179l-22 -208h-20zM323 228q39 0 71 14t55 37t36 54t13 65q0 29 -9.5 55t-28 45.5t-45 30.5t-59.5 11h-165l-33 -312h165z" />
    <glyph glyph-name="S.smcp" horiz-adv-x="539" 
d="M119 165q-3 -32 4.5 -60.5t27.5 -49.5t52.5 -33.5t77.5 -12.5q78 0 127 37t49 104q0 32 -12 53t-31.5 34.5t-45.5 21.5t-54 14q-32 7 -61.5 15.5t-53 23t-37.5 38t-14 61.5q0 34 12 63t36 50.5t59 34t81 12.5q86 0 124.5 -43t33.5 -119h-21q5 67 -29 104.5t-110 37.5
q-40 0 -71 -10.5t-52 -29t-31.5 -43.5t-10.5 -54q0 -32 12.5 -52.5t33.5 -33t48 -20.5t57 -14q31 -7 59.5 -16t50 -24.5t34.5 -39.5t13 -61q0 -39 -14.5 -69.5t-40.5 -51.5t-62.5 -32t-80.5 -11q-50 0 -86 14t-58 38t-31 56t-5 68h20z" />
    <glyph glyph-name="T.smcp" horiz-adv-x="453" 
d="M273 540h-162l2 20h345l-2 -20h-163l-57 -540h-20z" />
    <glyph glyph-name="U.smcp" horiz-adv-x="558" 
d="M161 560h20l-42 -395q-3 -30 4.5 -58.5t25.5 -50t46 -34.5t64 -13t66.5 12.5t53 34t37 49.5t17.5 60l42 395h20l-42 -395q-4 -36 -20 -68t-41.5 -56t-60 -38t-74.5 -14t-71 13.5t-51.5 37.5t-30 56t-5.5 69z" />
    <glyph glyph-name="V.smcp" horiz-adv-x="516" 
d="M268 0h-19l-144 560h21l135 -532l247 532h21z" />
    <glyph glyph-name="W.smcp" horiz-adv-x="810" 
d="M461 529l-209 -529h-20l-127 560h21l118 -531l210 531h20l98 -531l230 531h21l-245 -560h-20z" />
    <glyph glyph-name="X.smcp" horiz-adv-x="487" 
d="M472 560h23l-211 -280l152 -280h-23l-141 262l-198 -262h-23l210 280l-151 280h23l142 -263z" />
    <glyph glyph-name="Y.smcp" horiz-adv-x="505" 
d="M170 0h-23l138 219l-181 341h24l170 -320l202 320h22z" />
    <glyph glyph-name="Z.smcp" horiz-adv-x="503" 
d="M130 560h388l-425 -540h383l-2 -20h-420l425 540h-351z" />
    <glyph glyph-name="Agrave.smcp" horiz-adv-x="500" 
d="M452 0h-22l-30 126h-275l-56 -126h-21l251 560h20zM134 146h261l-90 387zM221 710l11 17l188 -110l-11 -17z" />
    <glyph glyph-name="Aacute.smcp" horiz-adv-x="500" 
d="M452 0h-22l-30 126h-275l-56 -126h-21l251 560h20zM134 146h261l-90 387zM218 598l-8 18l211 109l7 -17z" />
    <glyph glyph-name="Acircumflex.smcp" horiz-adv-x="500" 
d="M452 0h-22l-30 126h-275l-56 -126h-21l251 560h20zM134 146h261l-90 387zM326 733l132 -116l-14 -15l-121 106l-142 -106l-11 15z" />
    <glyph glyph-name="Atilde.smcp" horiz-adv-x="500" 
d="M452 0h-22l-30 126h-275l-56 -126h-21l251 560h20zM134 146h261l-90 387zM184 645q38 23 56 27t29 4q9 0 24 -3.5t31.5 -7.5t32.5 -7.5t27 -3.5t24 5t38 17l7 -17q-16 -8 -26.5 -12.5t-18.5 -7t-14 -3.5t-12 -1q-17 0 -31 3.5t-28 7.5t-28 7.5t-30 3.5q-7 0 -23 -4
t-49 -24z" />
    <glyph glyph-name="Adieresis.smcp" horiz-adv-x="500" 
d="M404 694h20l-10 -91h-20zM220 694h20l-10 -91h-20zM452 0h-22l-30 126h-275l-56 -126h-21l251 560h20zM134 146h261l-90 387z" />
    <glyph glyph-name="Amacron.smcp" horiz-adv-x="500" 
d="M452 0h-22l-30 126h-275l-56 -126h-21l251 560h20zM134 146h261l-90 387zM460 638h-287l2 19h287z" />
    <glyph glyph-name="Abreve.smcp" horiz-adv-x="500" 
d="M452 0h-22l-30 126h-275l-56 -126h-21l251 560h20zM134 146h261l-90 387zM181 694q5 -44 41.5 -67t89.5 -23t97 23t55 67h20q-6 -27 -22.5 -47t-40.5 -34t-52.5 -21t-58.5 -7t-56.5 7t-46.5 21t-32 34.5t-14 46.5h20z" />
    <glyph glyph-name="Aring.smcp" horiz-adv-x="500" 
d="M452 0h-22l-30 126h-275l-56 -126h-21l251 560h20zM134 146h261l-90 387zM330 781q39 0 64.5 -26.5t25.5 -63.5q0 -22 -9 -41.5t-24 -34t-35 -23t-41 -8.5q-39 0 -64 26.5t-25 63.5q0 22 9 41.5t24 34t34.5 23t40.5 8.5zM329 762q-18 0 -34 -7t-28 -19t-19 -27.5
t-7 -33.5q0 -29 20 -50.5t52 -21.5q18 0 34 7t28 19t19 27.5t7 32.5q0 30 -20 51.5t-52 21.5z" />
    <glyph glyph-name="Aringacute.smcp" horiz-adv-x="500" 
d="M430 0l-30 126h-275l-56 -126h-21l242 542q-17 5 -26 19t-9 32q0 26 18.5 44.5t44.5 18.5q23 0 37.5 -15.5t14.5 -37.5q0 -21 -13 -38t-34 -23l129 -542h-22zM305 533l-171 -387h261zM220 632l-7 16l211 110l7 -16zM315 636q-17 0 -28.5 -12.5t-11.5 -29.5q0 -14 8.5 -24
t25.5 -10q19 0 30 13t11 28t-10 25t-25 10z" />
    <glyph glyph-name="Aogonek.smcp" horiz-adv-x="500" 
d="M509 -158q-13 -4 -30.5 -8t-38.5 -4q-44 0 -64 21t-20 51q0 27 17.5 50t56.5 48l-30 126h-275l-56 -126h-21l251 560h20l133 -560h-9q-68 -48 -68 -96q0 -23 16.5 -39t51.5 -16q19 0 38 4t31 9zM134 146h261l-90 387z" />
    <glyph glyph-name="AE.smcp" horiz-adv-x="731" 
d="M409 540l-27 -252h269l-2 -19h-269l-26 -249h269l-2 -20h-289l13 126h-203l-78 -126h-22l346 560h292l-2 -20h-269zM347 146l40 377l-233 -377h193z" />
    <glyph glyph-name="AEacute.smcp" horiz-adv-x="731" 
d="M409 540l-27 -252h269l-2 -19h-269l-26 -249h269l-2 -20h-289l13 126h-203l-78 -126h-22l346 560h292l-2 -20h-269zM347 146l40 377l-233 -377h193zM439 600l-8 17l210 110l9 -17z" />
    <glyph glyph-name="Cacute.smcp" horiz-adv-x="699" 
d="M639 151q-16 -33 -42.5 -62.5t-61 -51.5t-77 -35t-90.5 -13q-63 0 -111.5 21t-82 57t-51 84t-17.5 102q0 61 22 118t63.5 101.5t100 71.5t132.5 27q51 0 92.5 -13.5t72.5 -38.5t50 -59t25 -75h-21q-12 75 -69.5 120.5t-151.5 45.5q-69 0 -123.5 -25t-93 -66.5t-59 -94.5
t-20.5 -110q0 -50 16.5 -95t47.5 -78.5t76.5 -53t103.5 -19.5q85 0 149.5 39.5t97.5 102.5h22zM333 600l-8 17l211 110l8 -17z" />
    <glyph glyph-name="Ccircumflex.smcp" horiz-adv-x="699" 
d="M639 151q-16 -33 -42.5 -62.5t-61 -51.5t-77 -35t-90.5 -13q-63 0 -111.5 21t-82 57t-51 84t-17.5 102q0 61 22 118t63.5 101.5t100 71.5t132.5 27q51 0 92.5 -13.5t72.5 -38.5t50 -59t25 -75h-21q-12 75 -69.5 120.5t-151.5 45.5q-69 0 -123.5 -25t-93 -66.5t-59 -94.5
t-20.5 -110q0 -50 16.5 -95t47.5 -78.5t76.5 -53t103.5 -19.5q85 0 149.5 39.5t97.5 102.5h22zM435 733l132 -116l-13 -15l-121 106l-142 -106l-12 15z" />
    <glyph glyph-name="Ccaron.smcp" horiz-adv-x="699" 
d="M639 151q-16 -33 -42.5 -62.5t-61 -51.5t-77 -35t-90.5 -13q-63 0 -111.5 21t-82 57t-51 84t-17.5 102q0 61 22 118t63.5 101.5t100 71.5t132.5 27q51 0 92.5 -13.5t72.5 -38.5t50 -59t25 -75h-21q-12 75 -69.5 120.5t-151.5 45.5q-69 0 -123.5 -25t-93 -66.5t-59 -94.5
t-20.5 -110q0 -50 16.5 -95t47.5 -78.5t76.5 -53t103.5 -19.5q85 0 149.5 39.5t97.5 102.5h22zM307 718l13 15l104 -105l127 105l12 -15l-141 -116z" />
    <glyph glyph-name="Cdotaccent.smcp" horiz-adv-x="699" 
d="M421 694h20l-9 -91h-20zM639 151q-16 -33 -42.5 -62.5t-61 -51.5t-77 -35t-90.5 -13q-63 0 -111.5 21t-82 57t-51 84t-17.5 102q0 61 22 118t63.5 101.5t100 71.5t132.5 27q51 0 92.5 -13.5t72.5 -38.5t50 -59t25 -75h-21q-12 75 -69.5 120.5t-151.5 45.5
q-69 0 -123.5 -25t-93 -66.5t-59 -94.5t-20.5 -110q0 -50 16.5 -95t47.5 -78.5t76.5 -53t103.5 -19.5q85 0 149.5 39.5t97.5 102.5h22z" />
    <glyph glyph-name="Ccedilla.smcp" horiz-adv-x="699" 
d="M639 151q-17 -35 -44 -64t-62 -51t-76.5 -34t-87.5 -12h-23l-5 -50q8 12 21 19.5t31 7.5q29 0 46 -19t17 -45q0 -32 -22 -55t-57 -23q-29 0 -46.5 17.5t-18.5 44.5h19q1 -19 13 -32t35 -13q26 0 42.5 18t16.5 41q0 20 -13 34t-37 14q-12 0 -25.5 -5.5t-24.5 -25.5h-17
l7 74q-54 6 -95 29.5t-69.5 58.5t-43 79.5t-14.5 93.5q0 61 22 118t63.5 101.5t100 71.5t132.5 27q51 0 92.5 -13.5t72.5 -38.5t50 -59t25 -75h-21q-12 75 -69.5 120.5t-151.5 45.5q-69 0 -123.5 -25t-93 -66.5t-59 -94.5t-20.5 -110q0 -50 16.5 -95t47.5 -78.5t76.5 -53
t103.5 -19.5q85 0 149.5 39.5t97.5 102.5h22v0z" />
    <glyph glyph-name="Dcaron.smcp" horiz-adv-x="630" 
d="M321 560q64 0 113 -21.5t82 -57t50 -81.5t17 -95q0 -57 -22.5 -112t-64 -97.5t-101 -69t-133.5 -26.5h-148l59 560h148zM191 540l-55 -520h128q69 0 124.5 24.5t94 64.5t59.5 91t21 104q0 45 -15.5 87.5t-46.5 75.5t-76.5 53t-105.5 20h-128zM261 718l15 15l104 -105
l127 105l10 -15l-140 -116z" />
    <glyph glyph-name="Dcroat.smcp" horiz-adv-x="630" 
d="M321 560q64 0 113 -21.5t82 -57t50 -81.5t17 -95q0 -57 -22.5 -112t-64 -97.5t-101 -69t-133.5 -26.5h-148l29 274h-133l2 20h133l28 266h148zM296 274h-133l-27 -254h128q69 0 124.5 24.5t94 64.5t59.5 91t21 104q0 45 -15.5 87.5t-46.5 75.5t-76.5 53t-105.5 20h-128
l-26 -246h133z" />
    <glyph glyph-name="Egrave.smcp" horiz-adv-x="513" 
d="M191 540l-27 -252h269l-2 -19h-269l-26 -249h269l-2 -20h-289l59 560h289l-2 -20h-269zM234 708l12 17l188 -109l-12 -18z" />
    <glyph glyph-name="Eacute.smcp" horiz-adv-x="513" 
d="M191 540l-27 -252h269l-2 -19h-269l-26 -249h269l-2 -20h-289l59 560h289l-2 -20h-269zM240 600l-8 17l210 110l9 -17z" />
    <glyph glyph-name="Ecircumflex.smcp" horiz-adv-x="512" 
d="M190 540l-27 -252h269l-2 -19h-269l-26 -249h269l-2 -20h-289l59 560h289l-2 -20h-269zM333 733l132 -116l-14 -15l-121 106l-142 -106l-11 15z" />
    <glyph glyph-name="Ecaron.smcp" horiz-adv-x="513" 
d="M191 540l-27 -252h269l-2 -19h-269l-26 -249h269l-2 -20h-289l59 560h289l-2 -20h-269zM204 718l14 15l104 -105l127 105l11 -15l-141 -116z" />
    <glyph glyph-name="Edieresis.smcp" horiz-adv-x="513" 
d="M232 694h20l-10 -91h-20zM416 694h20l-10 -91h-20zM191 540l-27 -252h269l-2 -19h-269l-26 -249h269l-2 -20h-289l59 560h289l-2 -20h-269z" />
    <glyph glyph-name="Emacron.smcp" horiz-adv-x="513" 
d="M191 540l-27 -252h269l-2 -19h-269l-26 -249h269l-2 -20h-289l59 560h289l-2 -20h-269zM466 638h-286l2 19h286z" />
    <glyph glyph-name="Ebreve.smcp" horiz-adv-x="512" 
d="M191 540l-27 -252h269l-2 -19h-269l-26 -249h269l-2 -20h-289l59 560h289l-2 -20h-269zM188 694q5 -44 41.5 -67t89.5 -23t97 23t55 67h20q-6 -27 -22.5 -47t-40 -34t-52 -21t-58.5 -7q-61 0 -103.5 28t-46.5 81h20z" />
    <glyph glyph-name="Edotaccent.smcp" horiz-adv-x="513" 
d="M320 694h20l-10 -91h-20zM191 540l-27 -252h269l-2 -19h-269l-26 -249h269l-2 -20h-289l59 560h289l-2 -20h-269z" />
    <glyph glyph-name="Eogonek.smcp" horiz-adv-x="513" 
d="M469 -158q-13 -4 -30.5 -8t-37.5 -4q-44 0 -64.5 21t-20.5 50q0 28 18.5 51t56.5 48h-277l59 560h289l-2 -20h-269l-27 -252h269l-2 -19h-269l-26 -249h269l-2 -20q-32 -23 -49.5 -48t-17.5 -48t16.5 -39t51.5 -16q18 0 37.5 4t31.5 9z" />
    <glyph glyph-name="Gcircumflex.smcp" horiz-adv-x="742" 
d="M422 239h279l-2 -19h-56q-21 -107 -93 -169t-184 -62q-66 0 -115 21.5t-81 57.5t-48 83t-16 98q0 62 22.5 120t64 103t99 72t128.5 27q43 0 79.5 -10.5t63.5 -28.5t45 -43t25 -53h-21q-16 52 -67.5 83.5t-126.5 31.5q-66 0 -119.5 -25t-92 -67t-59.5 -96t-21 -112
q0 -48 15 -91.5t45 -77t75.5 -53.5t106.5 -20q104 0 169 57.5t85 153.5h-202zM440 733l132 -116l-13 -15l-121 106l-142 -106l-12 15z" />
    <glyph glyph-name="Gbreve.smcp" horiz-adv-x="742" 
d="M422 239h279l-2 -19h-56q-21 -107 -93 -169t-184 -62q-66 0 -115 21.5t-81 57.5t-48 83t-16 98q0 62 22.5 120t64 103t99 72t128.5 27q43 0 79.5 -10.5t63.5 -28.5t45 -43t25 -53h-21q-16 52 -67.5 83.5t-126.5 31.5q-66 0 -119.5 -25t-92 -67t-59.5 -96t-21 -112
q0 -48 15 -91.5t45 -77t75.5 -53.5t106.5 -20q104 0 169 57.5t85 153.5h-202zM295 694q5 -44 42 -67t90 -23q26 0 51 6t45.5 17.5t35 28t19.5 38.5h20q-6 -27 -22.5 -47t-40 -34t-52 -21t-58.5 -7q-61 0 -104 28t-47 81h21z" />
    <glyph glyph-name="Gdotaccent.smcp" horiz-adv-x="742" 
d="M425 694h20l-9 -91h-20zM422 239h279l-2 -19h-56q-21 -107 -93 -169t-184 -62q-66 0 -115 21.5t-81 57.5t-48 83t-16 98q0 62 22.5 120t64 103t99 72t128.5 27q43 0 79.5 -10.5t63.5 -28.5t45 -43t25 -53h-21q-16 52 -67.5 83.5t-126.5 31.5q-66 0 -119.5 -25t-92 -67
t-59.5 -96t-21 -112q0 -48 15 -91.5t45 -77t75.5 -53.5t106.5 -20q104 0 169 57.5t85 153.5h-202z" />
    <glyph glyph-name="Gcommaaccent.smcp" horiz-adv-x="742" 
d="M422 239h279l-2 -19h-56q-21 -107 -93 -169t-184 -62q-66 0 -115 21.5t-81 57.5t-48 83t-16 98q0 62 22.5 120t64 103t99 72t128.5 27q43 0 79.5 -10.5t63.5 -28.5t45 -43t25 -53h-21q-16 52 -67.5 83.5t-126.5 31.5q-66 0 -119.5 -25t-92 -67t-59.5 -96t-21 -112
q0 -48 15 -91.5t45 -77t75.5 -53.5t106.5 -20q104 0 169 57.5t85 153.5h-202zM364 -110q-4 -35 -24 -49t-48 -14l2 20q20 0 34 10t16 33l9 83h20z" />
    <glyph glyph-name="Hcircumflex.smcp" horiz-adv-x="609" 
d="M503 269h-341l-28 -269h-20l59 560h20l-29 -272h341l29 272h20l-59 -560h-20zM382 733l132 -116l-15 -15l-120 106l-142 -106l-11 15z" />
    <glyph glyph-name="Hbar.smcp" horiz-adv-x="609" 
d="M518 412h-341l-13 -124h341zM193 560l-14 -129h341l14 129h20l-59 -560h-20l28 269h-341l-28 -269h-20l59 560h20z" />
    <glyph glyph-name="Igrave.smcp" horiz-adv-x="248" 
d="M171 560h20l-58 -560h-20zM93 708l12 17l187 -109l-12 -18z" />
    <glyph glyph-name="Iacute.smcp" horiz-adv-x="248" 
d="M172 560h20l-59 -560h-20zM92 599l-8 18l210 109l9 -17z" />
    <glyph glyph-name="Icircumflex.smcp" horiz-adv-x="248" 
d="M173 560h20l-59 -560h-20zM201 733l132 -116l-14 -15l-120 106l-143 -106l-11 15z" />
    <glyph glyph-name="Itilde.smcp" horiz-adv-x="248" 
d="M172 560h21l-59 -560h-21zM57 640q38 23 56 27t29 4q9 0 24 -3.5t31.5 -7.5t32.5 -7.5t27 -3.5t24 5t38 17l7 -17q-16 -8 -26.5 -12.5t-18.5 -7t-14 -3.5t-12 -1q-32 0 -59 10.5t-55 10.5q-10 0 -26 -3.5t-50 -23.5z" />
    <glyph glyph-name="Idieresis.smcp" horiz-adv-x="248" 
d="M279 694h20l-10 -91h-20zM95 694h20l-10 -91h-20zM171 560h21l-58 -560h-21z" />
    <glyph glyph-name="Imacron.smcp" horiz-adv-x="248" 
d="M173 560h20l-59 -560h-20zM334 638h-286l2 19h286z" />
    <glyph glyph-name="Ibreve.smcp" horiz-adv-x="248" 
d="M173 560h21l-59 -560h-21zM56 694q5 -44 42 -67t90 -23t96.5 23t54.5 67h20q-6 -27 -22 -47t-39.5 -34t-52 -21t-58.5 -7q-61 0 -104 28t-47 81h20z" />
    <glyph glyph-name="Idotaccent.smcp" horiz-adv-x="248" 
d="M187 694h20l-10 -91h-20zM173 560h20l-59 -560h-20z" />
    <glyph glyph-name="Iogonek.smcp" horiz-adv-x="248" 
d="M120 0q-32 -23 -49.5 -48t-17.5 -48t17 -39t51 -16q18 0 37.5 4t32.5 9l-4 -20q-14 -4 -31.5 -8t-37.5 -4q-43 0 -64 21t-21 50q0 28 18.5 51t56.5 48l59 560h20l-59 -560h-8z" />
    <glyph glyph-name="IJ.smcp" horiz-adv-x="676" 
d="M591 165q-5 -41 -21 -74t-41 -55.5t-57 -34.5t-69 -12q-38 0 -69.5 12.5t-53.5 35.5t-32.5 55.5t-6.5 72.5h20q-4 -37 6 -66t30.5 -49t48.5 -30.5t60 -10.5q33 0 61.5 11t50 31t35.5 49t18 65l42 395h20zM173 560h20l-59 -560h-20z" />
    <glyph glyph-name="Jcircumflex.smcp" horiz-adv-x="508" 
d="M424 165q-5 -41 -21 -74t-41 -55.5t-57 -34.5t-69 -12q-36 0 -67.5 12t-54 34.5t-34 55.5t-6.5 74h20q-4 -37 6 -66t30 -49t48 -30.5t60 -10.5q65 0 111.5 41t54.5 115l42 395h20zM474 733l132 -116l-14 -15l-120 106l-143 -106l-11 15z" />
    <glyph glyph-name="Kcommaaccent.smcp" horiz-adv-x="515" 
d="M443 0l-280 278l-29 -278h-20l59 560h20l-29 -278l338 278h30l-341 -280l282 -280h-30zM265 -110q-4 -35 -23.5 -49t-47.5 -14l2 20q20 0 33.5 10t15.5 33l9 83h20z" />
    <glyph glyph-name="Lacute.smcp" horiz-adv-x="412" 
d="M346 20l-2 -20h-231l59 560h20l-57 -540h211zM170 600l-8 17l210 110l9 -17z" />
    <glyph glyph-name="Lcaron.smcp" horiz-adv-x="413" 
d="M347 20l-2 -20h-231l58 560h20l-56 -540h211zM71 718l14 15l104 -105l128 105l10 -15l-141 -116z" />
    <glyph glyph-name="Lcommaaccent.smcp" horiz-adv-x="413" 
d="M173 560h20l-57 -540h211l-2 -20h-231zM235 -110q-4 -35 -23.5 -49t-47.5 -14l2 20q20 0 33.5 10t15.5 33l9 83h20z" />
    <glyph glyph-name="Lslash.smcp" horiz-adv-x="413" 
d="M346 20l-2 -20h-231l26 247l-54 -28l2 23l54 27l31 291h20l-30 -281l131 68l-2 -22l-131 -68l-25 -237h211z" />
    <glyph glyph-name="Ldot.smcp" horiz-adv-x="413" 
d="M284 248h20l-9 -91h-20zM347 20l-2 -20h-231l59 560h20l-57 -540h211z" />
    <glyph glyph-name="Nacute.smcp" horiz-adv-x="608" 
d="M477 32l56 528h20l-59 -560h-23l-282 528l-55 -528h-20l59 560h24zM280 600l-8 17l210 110l9 -17z" />
    <glyph glyph-name="Ncaron.smcp" horiz-adv-x="608" 
d="M477 32l56 528h20l-59 -560h-23l-282 528l-55 -528h-20l59 560h24zM262 718l15 15l103 -105l128 105l10 -15l-141 -116z" />
    <glyph glyph-name="Ntilde.smcp" horiz-adv-x="608" 
d="M477 32l56 528h20l-59 -560h-23l-282 528l-55 -528h-20l59 560h24zM238 645q38 23 56 27t29 4q9 0 24.5 -3.5t32 -7.5t32.5 -7.5t28 -3.5q8 0 19 4t41 18l7 -17q-16 -8 -26.5 -12.5t-18.5 -7t-14 -3.5t-12 -1q-17 0 -31.5 3.5t-28 7.5t-27.5 7.5t-30 3.5q-7 0 -23 -4
t-50 -24z" />
    <glyph glyph-name="Ncommaaccent.smcp" horiz-adv-x="608" 
d="M471 0l-282 528l-55 -528h-20l59 560h24l280 -528l56 528h20l-59 -560h-23zM310 -110q-4 -35 -23.5 -49t-47.5 -14l2 20q20 0 33.5 10t15.5 33l9 83h20z" />
    <glyph glyph-name="Ograve.smcp" horiz-adv-x="729" 
d="M366 -11q-63 0 -111.5 22t-81.5 58.5t-50 84t-17 98.5q0 61 23 118.5t64.5 102t99.5 71.5t129 27q63 0 111.5 -22t81.5 -58.5t50 -84t17 -98.5q0 -61 -23 -118.5t-64.5 -102t-100 -71.5t-128.5 -27zM368 9q66 0 120 25t92.5 66t60 95t21.5 111q0 48 -15.5 92.5t-46 78.5
t-75.5 54t-104 20q-66 0 -120 -25t-92.5 -66t-60 -95t-21.5 -111q0 -48 15.5 -92.5t46 -78.5t75.5 -54t104 -20zM335 710l12 17l188 -110l-12 -17z" />
    <glyph glyph-name="Oacute.smcp" horiz-adv-x="729" 
d="M366 -11q-63 0 -111.5 22t-81.5 58.5t-50 84t-17 98.5q0 61 23 118.5t64.5 102t99.5 71.5t129 27q63 0 111.5 -22t81.5 -58.5t50 -84t17 -98.5q0 -61 -23 -118.5t-64.5 -102t-100 -71.5t-128.5 -27zM368 9q66 0 120 25t92.5 66t60 95t21.5 111q0 48 -15.5 92.5t-46 78.5
t-75.5 54t-104 20q-66 0 -120 -25t-92.5 -66t-60 -95t-21.5 -111q0 -48 15.5 -92.5t46 -78.5t75.5 -54t104 -20zM332 600l-8 17l211 110l8 -17z" />
    <glyph glyph-name="Ocircumflex.smcp" horiz-adv-x="729" 
d="M366 -11q-63 0 -111.5 22t-81.5 58.5t-50 84t-17 98.5q0 61 23 118.5t64.5 102t99.5 71.5t129 27q63 0 111.5 -22t81.5 -58.5t50 -84t17 -98.5q0 -61 -23 -118.5t-64.5 -102t-100 -71.5t-128.5 -27zM368 9q66 0 120 25t92.5 66t60 95t21.5 111q0 48 -15.5 92.5t-46 78.5
t-75.5 54t-104 20q-66 0 -120 -25t-92.5 -66t-60 -95t-21.5 -111q0 -48 15.5 -92.5t46 -78.5t75.5 -54t104 -20zM442 733l132 -116l-13 -15l-121 106l-142 -106l-12 15z" />
    <glyph glyph-name="Otilde.smcp" horiz-adv-x="729" 
d="M366 -11q-63 0 -111.5 22t-81.5 58.5t-50 84t-17 98.5q0 61 23 118.5t64.5 102t99.5 71.5t129 27q63 0 111.5 -22t81.5 -58.5t50 -84t17 -98.5q0 -61 -23 -118.5t-64.5 -102t-100 -71.5t-128.5 -27zM368 9q66 0 120 25t92.5 66t60 95t21.5 111q0 48 -15.5 92.5t-46 78.5
t-75.5 54t-104 20q-66 0 -120 -25t-92.5 -66t-60 -95t-21.5 -111q0 -48 15.5 -92.5t46 -78.5t75.5 -54t104 -20zM298 645q38 23 56.5 27t29.5 4q9 0 24 -3.5t31.5 -7.5t32.5 -7.5t27 -3.5q8 0 20 4t41 18l8 -17q-32 -16 -46 -20t-26 -4q-17 0 -31 3.5t-28 7.5t-28 7.5
t-30 3.5q-7 0 -23 -4t-49 -24z" />
    <glyph glyph-name="Odieresis.smcp" horiz-adv-x="729" 
d="M335 694h20l-9 -91h-20zM519 694h20l-9 -91h-20zM366 -11q-63 0 -111.5 22t-81.5 58.5t-50 84t-17 98.5q0 61 23 118.5t64.5 102t99.5 71.5t129 27q63 0 111.5 -22t81.5 -58.5t50 -84t17 -98.5q0 -61 -23 -118.5t-64.5 -102t-100 -71.5t-128.5 -27zM368 9q66 0 120 25
t92.5 66t60 95t21.5 111q0 48 -15.5 92.5t-46 78.5t-75.5 54t-104 20q-66 0 -120 -25t-92.5 -66t-60 -95t-21.5 -111q0 -48 15.5 -92.5t46 -78.5t75.5 -54t104 -20z" />
    <glyph glyph-name="Omacron.smcp" horiz-adv-x="729" 
d="M366 -11q-63 0 -111.5 22t-81.5 58.5t-50 84t-17 98.5q0 61 23 118.5t64.5 102t99.5 71.5t129 27q63 0 111.5 -22t81.5 -58.5t50 -84t17 -98.5q0 -61 -23 -118.5t-64.5 -102t-100 -71.5t-128.5 -27zM368 9q66 0 120 25t92.5 66t60 95t21.5 111q0 48 -15.5 92.5t-46 78.5
t-75.5 54t-104 20q-66 0 -120 -25t-92.5 -66t-60 -95t-21.5 -111q0 -48 15.5 -92.5t46 -78.5t75.5 -54t104 -20zM575 638h-287l2 19h287z" />
    <glyph glyph-name="Obreve.smcp" horiz-adv-x="729" 
d="M366 -11q-63 0 -111.5 22t-81.5 58.5t-50 84t-17 98.5q0 61 23 118.5t64.5 102t99.5 71.5t129 27q63 0 111.5 -22t81.5 -58.5t50 -84t17 -98.5q0 -61 -23 -118.5t-64.5 -102t-100 -71.5t-128.5 -27zM368 9q66 0 120 25t92.5 66t60 95t21.5 111q0 48 -15.5 92.5t-46 78.5
t-75.5 54t-104 20q-66 0 -120 -25t-92.5 -66t-60 -95t-21.5 -111q0 -48 15.5 -92.5t46 -78.5t75.5 -54t104 -20zM296 694q5 -44 42 -67t90 -23t96.5 23t54.5 67h20q-6 -27 -22 -47t-39.5 -34t-52 -21t-58.5 -7q-61 0 -104 28t-47 81h20z" />
    <glyph glyph-name="Ohungarumlaut.smcp" horiz-adv-x="729" 
d="M366 -11q-63 0 -111.5 22t-81.5 58.5t-50 84t-17 98.5q0 61 23 118.5t64.5 102t99.5 71.5t129 27q63 0 111.5 -22t81.5 -58.5t50 -84t17 -98.5q0 -61 -23 -118.5t-64.5 -102t-100 -71.5t-128.5 -27zM368 9q66 0 120 25t92.5 66t60 95t21.5 111q0 48 -15.5 92.5t-46 78.5
t-75.5 54t-104 20q-66 0 -120 -25t-92.5 -66t-60 -95t-21.5 -111q0 -48 15.5 -92.5t46 -78.5t75.5 -54t104 -20zM608 810l16 -9l-114 -133l-16 9zM452 810l16 -9l-114 -132l-16 8z" />
    <glyph glyph-name="Oslash.smcp" horiz-adv-x="729" 
d="M236 19q-31 15 -55 39.5t-40.5 55t-25.5 65.5t-9 73q0 61 23 118.5t64.5 102t100 71.5t130.5 27q28 0 51.5 -4.5t45.5 -12.5l29 54l18 -8l-29 -53q70 -32 106.5 -97.5t36.5 -142.5q0 -60 -23 -117.5t-64.5 -102t-100 -71.5t-129.5 -27q-32 0 -60 5.5t-52 15.5l-31 -57
l-17 7zM662 305q0 72 -34 133t-99 90l-267 -499q46 -20 104 -20q67 0 121.5 25t93.5 66.5t60 94.5t21 110zM127 255q0 -68 30.5 -127.5t88.5 -90.5l265 499q-20 7 -41.5 11t-48.5 4q-66 0 -120 -25t-92.5 -66.5t-60 -94.5t-21.5 -110z" />
    <glyph glyph-name="Oslashacute.smcp" horiz-adv-x="729" 
d="M365 -11q-32 0 -60 5.5t-52 15.5l-31 -57l-17 7l31 59q-31 15 -55 39.5t-40.5 55t-25.5 65.5t-9 73q0 61 23 118.5t64.5 102t100 71.5t130.5 27q53 0 98 -17l28 54l18 -8l-28 -53q69 -32 105.5 -97.5t36.5 -142.5q0 -60 -23 -117.5t-64.5 -102t-100 -71.5t-129.5 -27z
M662 305q0 72 -34 133t-98 90l-268 -499q46 -20 104 -20q67 0 121.5 25t93.5 66.5t60 94.5t21 110zM325 617l211 109l8 -17l-211 -110zM512 536q-20 7 -42 11t-49 4q-66 0 -120 -25t-92.5 -66.5t-60 -94.5t-21.5 -110q0 -68 30.5 -127.5t88.5 -90.5z" />
    <glyph glyph-name="OE.smcp" horiz-adv-x="1030" 
d="M708 540l-26 -252h269l-2 -19h-269l-27 -249h269l-2 -20h-289l19 175q-18 -39 -46 -73t-64.5 -59t-80.5 -39.5t-94 -14.5q-63 0 -111 21.5t-81 58t-50 84t-17 99.5q0 61 23 118t64.5 101.5t100 71.5t130.5 27q52 0 93.5 -14.5t72.5 -39t51.5 -58.5t30.5 -73l18 175h289
l-2 -20h-269zM368 9q66 0 120 25t92.5 66.5t60 95t21.5 110.5q0 48 -15.5 92.5t-46 78t-75.5 54t-104 20.5q-66 0 -120 -25.5t-93 -67t-60 -95t-21 -110.5q0 -48 15.5 -92t46.5 -78t75.5 -54t103.5 -20z" />
    <glyph glyph-name="Racute.smcp" horiz-adv-x="557" 
d="M173 560h185q38 0 67.5 -12.5t50 -34.5t31.5 -51t11 -62q0 -35 -11.5 -66t-33 -56.5t-51 -43t-65.5 -23.5l116 -211h-25l-113 208h-179l-22 -208h-20zM191 540l-33 -312h165q39 0 71 14t55 37t36 54t13 65q0 29 -9.5 55t-28 45.5t-45 30.5t-59.5 11h-165zM247 600l-8 17
l210 110l9 -17z" />
    <glyph glyph-name="Rcaron.smcp" horiz-adv-x="557" 
d="M173 560h185q38 0 67.5 -12.5t50 -34.5t31.5 -51t11 -62q0 -35 -11.5 -66t-33 -56.5t-51 -43t-65.5 -23.5l116 -211h-25l-113 208h-179l-22 -208h-20zM191 540l-33 -312h165q39 0 71 14t55 37t36 54t13 65q0 29 -9.5 55t-28 45.5t-45 30.5t-59.5 11h-165zM225 718l14 15
l104 -105l127 105l11 -15l-141 -116z" />
    <glyph glyph-name="Rcommaaccent.smcp" horiz-adv-x="557" 
d="M173 560h185q38 0 67.5 -12.5t50 -34.5t31.5 -51t11 -62q0 -35 -11.5 -66t-33 -56.5t-51 -43t-65.5 -23.5l116 -211h-25l-113 208h-179l-22 -208h-20zM191 540l-33 -312h165q39 0 71 14t55 37t36 54t13 65q0 29 -9.5 55t-28 45.5t-45 30.5t-59.5 11h-165zM278 -110
q-4 -35 -23.5 -49t-47.5 -14l2 20q20 0 33.5 10t15.5 33l9 83h20z" />
    <glyph glyph-name="Sacute.smcp" horiz-adv-x="539" 
d="M119 165q-3 -32 4.5 -60.5t27.5 -49.5t52.5 -33.5t77.5 -12.5q78 0 127 37t49 104q0 32 -12 53t-31.5 34.5t-45.5 21.5t-54 14q-32 7 -61.5 15.5t-53 23t-37.5 38t-14 61.5q0 34 12 63t36 50.5t59 34t81 12.5q86 0 124.5 -43t33.5 -119h-21q5 67 -29 104.5t-110 37.5
q-40 0 -71 -10.5t-52 -29t-31.5 -43.5t-10.5 -54q0 -32 12.5 -52.5t33.5 -33t48 -20.5t57 -14q31 -7 59.5 -16t50 -24.5t34.5 -39.5t13 -61q0 -39 -14.5 -69.5t-40.5 -51.5t-62.5 -32t-80.5 -11q-50 0 -86 14t-58 38t-31 56t-5 68h20zM246 600l-8 17l211 110l8 -17z" />
    <glyph glyph-name="Scircumflex.smcp" horiz-adv-x="539" 
d="M119 165q-3 -32 4.5 -60.5t27.5 -49.5t52.5 -33.5t77.5 -12.5q78 0 127 37t49 104q0 32 -12 53t-31.5 34.5t-45.5 21.5t-54 14q-32 7 -61.5 15.5t-53 23t-37.5 38t-14 61.5q0 34 12 63t36 50.5t59 34t81 12.5q86 0 124.5 -43t33.5 -119h-21q5 67 -29 104.5t-110 37.5
q-40 0 -71 -10.5t-52 -29t-31.5 -43.5t-10.5 -54q0 -32 12.5 -52.5t33.5 -33t48 -20.5t57 -14q31 -7 59.5 -16t50 -24.5t34.5 -39.5t13 -61q0 -39 -14.5 -69.5t-40.5 -51.5t-62.5 -32t-80.5 -11q-50 0 -86 14t-58 38t-31 56t-5 68h20zM358 733l132 -116l-13 -15l-121 106
l-142 -106l-12 15z" />
    <glyph glyph-name="Scaron.smcp" horiz-adv-x="539" 
d="M119 165q-3 -32 4.5 -60.5t27.5 -49.5t52.5 -33.5t77.5 -12.5q78 0 127 37t49 104q0 32 -12 53t-31.5 34.5t-45.5 21.5t-54 14q-32 7 -61.5 15.5t-53 23t-37.5 38t-14 61.5q0 34 12 63t36 50.5t59 34t81 12.5q86 0 124.5 -43t33.5 -119h-21q5 67 -29 104.5t-110 37.5
q-40 0 -71 -10.5t-52 -29t-31.5 -43.5t-10.5 -54q0 -32 12.5 -52.5t33.5 -33t48 -20.5t57 -14q31 -7 59.5 -16t50 -24.5t34.5 -39.5t13 -61q0 -39 -14.5 -69.5t-40.5 -51.5t-62.5 -32t-80.5 -11q-50 0 -86 14t-58 38t-31 56t-5 68h20zM231 727l13 15l104 -105l127 105
l12 -15l-142 -116z" />
    <glyph glyph-name="Scedilla.smcp" horiz-adv-x="539" 
d="M118 165q-3 -32 5 -60t27.5 -49.5t52 -34t78.5 -12.5q78 0 126.5 37t48.5 105q0 36 -13.5 57.5t-35.5 34.5t-49.5 20.5t-55.5 13.5q-30 7 -58 15.5t-49.5 23.5t-34 38t-12.5 58q0 33 12 62t36 50.5t59 34t81 12.5q86 0 124.5 -43t33.5 -119h-21q4 67 -30 104.5t-110 37.5
q-40 0 -71 -10.5t-52 -29t-31.5 -43t-10.5 -52.5q0 -35 14.5 -56t37.5 -34.5t50 -20.5t53 -13q28 -7 55.5 -15t49.5 -23t35 -39t13 -63q0 -79 -55.5 -120.5t-152.5 -41.5l-6 -61q11 17 25.5 23.5t29.5 6.5q29 0 46.5 -18.5t17.5 -46.5q0 -32 -23 -56.5t-58 -24.5
q-33 0 -51.5 21t-14.5 52h18q-3 -23 10 -39.5t39 -16.5q27 0 44.5 18.5t17.5 43.5q0 21 -13.5 35.5t-40.5 14.5q-10 0 -23 -5.5t-27 -30.5h-17l8 84q-81 8 -120.5 56t-31.5 119h20z" />
    <glyph glyph-name="Scommaaccent.smcp" horiz-adv-x="539" 
d="M119 165q-3 -32 4.5 -60.5t27.5 -49.5t52.5 -33.5t77.5 -12.5q78 0 127 37t49 104q0 32 -12 53t-31.5 34.5t-45.5 21.5t-54 14q-32 7 -61.5 15.5t-53 23t-37.5 38t-14 61.5q0 34 12 63t36 50.5t59 34t81 12.5q86 0 124.5 -43t33.5 -119h-21q5 67 -29 104.5t-110 37.5
q-40 0 -71 -10.5t-52 -29t-31.5 -43.5t-10.5 -54q0 -32 12.5 -52.5t33.5 -33t48 -20.5t57 -14q31 -7 59.5 -16t50 -24.5t34.5 -39.5t13 -61q0 -39 -14.5 -69.5t-40.5 -51.5t-62.5 -32t-80.5 -11q-50 0 -86 14t-58 38t-31 56t-5 68h20zM279 -110q-4 -35 -24 -49t-48 -14l2 20
q20 0 34 10t16 33l9 83h20z" />
    <glyph glyph-name="Tcaron.smcp" horiz-adv-x="453" 
d="M273 540h-162l2 20h345l-2 -20h-163l-57 -540h-20zM174 718l13 15l104 -105l127 105l12 -15l-141 -116z" />
    <glyph glyph-name="Tcommaaccent.smcp" horiz-adv-x="453" 
d="M273 540h-162l2 20h345l-2 -20h-163l-57 -540h-20zM225 -110q-4 -35 -24 -49t-48 -14l2 20q20 0 34 10t16 33l9 83h20z" />
    <glyph glyph-name="Tbar.smcp" horiz-adv-x="453" 
d="M413 381h-137l-40 -381h-20l40 381h-129l2 20h129l15 139h-162l2 20h345l-2 -20h-163l-15 -139h137z" />
    <glyph glyph-name="uni021A.smcp" horiz-adv-x="453" 
d="M273 540h-162l2 20h345l-2 -20h-163l-57 -540h-20zM224 -110q-4 -35 -24 -49t-48 -14l2 20q20 0 34 10t16 33l9 83h20z" />
    <glyph glyph-name="Ugrave.smcp" horiz-adv-x="558" 
d="M161 560h20l-42 -395q-3 -30 4.5 -58.5t25.5 -50t46 -34.5t64 -13t66.5 12.5t53 34t37 49.5t17.5 60l42 395h20l-42 -395q-4 -36 -20 -68t-41.5 -56t-60 -38t-74.5 -14t-71 13.5t-51.5 37.5t-30 56t-5.5 69zM249 710l12 17l187 -110l-11 -17z" />
    <glyph glyph-name="Uacute.smcp" horiz-adv-x="558" 
d="M161 560h20l-42 -395q-3 -30 4.5 -58.5t25.5 -50t46 -34.5t64 -13t66.5 12.5t53 34t37 49.5t17.5 60l42 395h20l-42 -395q-4 -36 -20 -68t-41.5 -56t-60 -38t-74.5 -14t-71 13.5t-51.5 37.5t-30 56t-5.5 69zM246 600l-9 17l212 110l8 -17z" />
    <glyph glyph-name="Ucircumflex.smcp" horiz-adv-x="558" 
d="M161 560h20l-42 -395q-3 -30 4.5 -58.5t25.5 -50t46 -34.5t64 -13t66.5 12.5t53 34t37 49.5t17.5 60l42 395h20l-42 -395q-4 -36 -20 -68t-41.5 -56t-60 -38t-74.5 -14t-71 13.5t-51.5 37.5t-30 56t-5.5 69zM355 734l132 -116l-14 -16l-121 106l-142 -106l-11 16z" />
    <glyph glyph-name="Utilde.smcp" horiz-adv-x="558" 
d="M161 560h20l-42 -395q-3 -30 4.5 -58.5t25.5 -50t46 -34.5t64 -13t66.5 12.5t53 34t37 49.5t17.5 60l42 395h20l-42 -395q-4 -36 -20 -68t-41.5 -56t-60 -38t-74.5 -14t-71 13.5t-51.5 37.5t-30 56t-5.5 69zM212 640q38 23 56 27t29 4q9 0 24 -3.5t31.5 -7.5t32.5 -7.5
t27 -3.5t24 5t38 17l7 -17q-16 -8 -26.5 -12.5t-18.5 -7t-14 -3.5t-12 -1q-32 0 -59 10.5t-55 10.5q-10 0 -26 -3.5t-50 -23.5z" />
    <glyph glyph-name="Udieresis.smcp" horiz-adv-x="558" 
d="M434 694h20l-10 -91h-20zM250 694h20l-10 -91h-20zM161 560h20l-42 -395q-3 -30 4.5 -58.5t25.5 -50t46 -34.5t64 -13t66.5 12.5t53 34t37 49.5t17.5 60l42 395h20l-42 -395q-4 -36 -20 -68t-41.5 -56t-60 -38t-74.5 -14t-71 13.5t-51.5 37.5t-30 56t-5.5 69z" />
    <glyph glyph-name="Umacron.smcp" horiz-adv-x="558" 
d="M161 560h20l-42 -395q-3 -30 4.5 -58.5t25.5 -50t46 -34.5t64 -13t66.5 12.5t53 34t37 49.5t17.5 60l42 395h20l-42 -395q-4 -36 -20 -68t-41.5 -56t-60 -38t-74.5 -14t-71 13.5t-51.5 37.5t-30 56t-5.5 69zM489 638h-287l2 19h287z" />
    <glyph glyph-name="Ubreve.smcp" horiz-adv-x="558" 
d="M161 560h20l-42 -395q-3 -30 4.5 -58.5t25.5 -50t46 -34.5t64 -13t66.5 12.5t53 34t37 49.5t17.5 60l42 395h20l-42 -395q-4 -36 -20 -68t-41.5 -56t-60 -38t-74.5 -14t-71 13.5t-51.5 37.5t-30 56t-5.5 69zM211 694q4 -44 40.5 -67t89.5 -23q26 0 51 6t45.5 17.5
t35.5 28t21 38.5h19q-6 -27 -22.5 -47t-40 -34t-52 -21t-58.5 -7t-57 7t-47 21t-32.5 34.5t-13.5 46.5h21z" />
    <glyph glyph-name="Uring.smcp" horiz-adv-x="558" 
d="M161 560h20l-42 -395q-3 -30 4.5 -58.5t25.5 -50t46 -34.5t64 -13t66.5 12.5t53 34t37 49.5t17.5 60l42 395h20l-42 -395q-4 -36 -20 -68t-41.5 -56t-60 -38t-74.5 -14t-71 13.5t-51.5 37.5t-30 56t-5.5 69zM359 781q39 0 64.5 -26.5t25.5 -63.5q0 -22 -9 -41.5t-24 -34
t-35 -23t-41 -8.5q-19 0 -35.5 7t-28.5 19.5t-18.5 29t-6.5 34.5q0 22 9 41.5t24 34t34.5 23t40.5 8.5zM358 762q-17 0 -33 -7t-28 -18.5t-19.5 -27.5t-7.5 -34q0 -30 20.5 -51t52.5 -21q17 0 33 7t28 19t19 27.5t7 32.5q0 30 -20 51.5t-52 21.5z" />
    <glyph glyph-name="Uhungarumlaut.smcp" horiz-adv-x="558" 
d="M161 560h20l-42 -395q-3 -30 4.5 -58.5t25.5 -50t46 -34.5t64 -13t66.5 12.5t53 34t37 49.5t17.5 60l42 395h20l-42 -395q-4 -36 -20 -68t-41.5 -56t-60 -38t-74.5 -14t-71 13.5t-51.5 37.5t-30 56t-5.5 69zM498 727l17 -9l-116 -133l-15 9zM342 727l17 -9l-116 -132
l-15 8z" />
    <glyph glyph-name="Uogonek.smcp" horiz-adv-x="558" 
d="M365 -158q-14 -4 -31 -8t-37 -4q-44 0 -65 21t-21 50q0 25 14.5 45.5t44.5 43.5q-38 1 -68 15.5t-49.5 38.5t-28 55t-4.5 66l42 395h20l-42 -395q-3 -30 4.5 -58.5t25.5 -50t45.5 -34.5t63.5 -13t66.5 12.5t53.5 34t37.5 49.5t17.5 60l42 395h20l-42 -395q-4 -35 -19 -66
t-40 -55t-58 -38.5t-73 -15.5q-52 -43 -52 -86q0 -23 16.5 -39t51.5 -16q18 0 37 4t32 9z" />
    <glyph glyph-name="Wgrave.smcp" horiz-adv-x="810" 
d="M461 529l-209 -529h-20l-127 560h21l118 -531l210 531h20l98 -531l230 531h21l-245 -560h-20zM375 710l12 17l188 -110l-12 -17z" />
    <glyph glyph-name="Wacute.smcp" horiz-adv-x="810" 
d="M461 529l-209 -529h-20l-127 560h21l118 -531l210 531h20l98 -531l230 531h21l-245 -560h-20zM373 600l-8 17l212 110l8 -17z" />
    <glyph glyph-name="Wcircumflex.smcp" horiz-adv-x="810" 
d="M461 529l-209 -529h-20l-127 560h21l118 -531l210 531h20l98 -531l230 531h21l-245 -560h-20zM482 733l132 -116l-15 -15l-119 106l-143 -106l-11 15z" />
    <glyph glyph-name="Wdieresis.smcp" horiz-adv-x="810" 
d="M375 694h20l-9 -91h-20zM559 694h20l-9 -91h-20zM461 529l-209 -529h-20l-127 560h21l118 -531l210 531h20l98 -531l230 531h21l-245 -560h-20z" />
    <glyph glyph-name="Ygrave.smcp" horiz-adv-x="505" 
d="M170 0h-23l138 219l-181 341h24l170 -320l202 320h22zM223 710l12 17l187 -110l-12 -17z" />
    <glyph glyph-name="Yacute.smcp" horiz-adv-x="505" 
d="M170 0h-23l138 219l-181 341h24l170 -320l202 320h22zM241 585l-9 17l211 110l8 -18z" />
    <glyph glyph-name="Ycircumflex.smcp" horiz-adv-x="505" 
d="M170 0h-23l138 219l-181 341h24l170 -320l202 320h22zM329 733l132 -116l-14 -15l-120 106l-143 -106l-11 15z" />
    <glyph glyph-name="Ydieresis.smcp" horiz-adv-x="505" 
d="M231 694h20l-9 -91h-20zM415 694h20l-9 -91h-20zM170 0h-23l138 219l-181 341h24l170 -320l202 320h22z" />
    <glyph glyph-name="Zacute.smcp" horiz-adv-x="503" 
d="M130 560h388l-425 -540h383l-2 -20h-420l425 540h-351zM240 606l-9 17l211 110l8 -17z" />
    <glyph glyph-name="Zcaron.smcp" horiz-adv-x="503" 
d="M229 717l15 15l104 -105l127 105l10 -15l-140 -116zM130 560h388l-425 -540h383l-2 -20h-420l425 540h-351z" />
    <glyph glyph-name="Zdotaccent.smcp" horiz-adv-x="503" 
d="M319 694h20l-10 -91h-20zM130 560h388l-425 -540h383l-2 -20h-420l425 540h-351z" />
    <glyph glyph-name="Eng.smcp" horiz-adv-x="608" 
d="M172 -139q20 -33 54.5 -51t76.5 -18q33 0 61.5 10.5t50 30.5t35.5 48.5t18 63.5l6 55l-285 528l-55 -528h-20l59 560h23l282 -521l55 521h20l-64 -612q-5 -41 -21 -74t-41 -55.5t-57 -34.5t-69 -12q-47 0 -84.5 19.5t-58.5 55.5z" />
    <glyph glyph-name="Eth.smcp" horiz-adv-x="630" 
d="M319 560q65 0 114.5 -21.5t82.5 -57t50 -81.5t17 -95q0 -57 -22.5 -112t-64 -97.5t-101 -69t-134.5 -26.5h-147l28 270h-84l2 20h84l28 270h147zM251 270h-89l-26 -250h127q69 0 124.5 24.5t94.5 64t59.5 90.5t20.5 104q0 46 -15.5 88.5t-46.5 75.5t-77 53t-106 20h-127
l-26 -250h89z" />
    <glyph glyph-name="Thorn.smcp" horiz-adv-x="478" 
d="M181 451h101q38 0 67.5 -12.5t50 -34t31.5 -50.5t11 -61q0 -38 -14.5 -73t-40.5 -61.5t-62 -42t-79 -15.5h-101l-11 -101h-20l59 560h20zM147 121h101q39 0 71 14t55 37t35.5 54t12.5 65q0 29 -9.5 55t-28 45t-45 30t-59.5 11h-101z" />
    </font>
</defs>
</svg>
