<svg xmlns="http://www.w3.org/2000/svg" viewBox="967.465 4098.5 26.035 24.244"><defs><style>.a{fill:#075a61;stroke:#075a61;}</style></defs><path class="a" d="M24.3,952.382a.575.575,0,0,0-.377.174c-3.131,3.276-9.915,10.582-13.249,14.09l-4.523-3.972a.574.574,0,0,0-.812.812c.029.029.058.058.087.058l4.929,4.349a.618.618,0,0,0,.812-.029c3.218-3.392,10.408-11.133,13.626-14.5a.56.56,0,0,0,0-.812A.582.582,0,0,0,24.3,952.382Zm-12.611,0a11.257,11.257,0,0,0-4.233.754,11.6,11.6,0,1,0,14.96,6.726.587.587,0,1,0-1.1.406h0a10.471,10.471,0,1,1-3.624-4.726.571.571,0,0,0,.783-.232.581.581,0,0,0-.116-.725A11.55,11.55,0,0,0,11.689,952.382Z" transform="translate(968.033 3146.625)"/></svg>