<svg xmlns="http://www.w3.org/2000/svg" viewBox="13669.001 824 30 27.852"><defs><style>.a{fill:#fff;}</style></defs><path class="a" d="M29.167,952.384a.69.69,0,0,0-.452.209c-3.757,3.931-11.9,12.7-15.9,16.908l-5.427-4.766a.689.689,0,1,0-.974.974c.035.035.07.07.1.07L12.433,971a.742.742,0,0,0,.974-.035c3.862-4.07,12.489-13.359,16.351-17.395a.672.672,0,0,0,0-.974A.7.7,0,0,0,29.167,952.384Zm-15.133,0a13.508,13.508,0,0,0-5.079.9,13.918,13.918,0,1,0,17.951,8.071.7.7,0,1,0-1.322.487h0a12.565,12.565,0,1,1-4.349-5.671.685.685,0,0,0,.939-.278.7.7,0,0,0-.139-.87A13.86,13.86,0,0,0,14.034,952.384Z" transform="translate(13669.033 -128.375)"/></svg>