<?xml version="1.0" encoding="utf-8"?>
<!-- Generator: Adobe Illustrator 21.0.0, SVG Export Plug-In . SVG Version: 6.00 Build 0)  -->
<svg version="1.1" id="Capa_1" xmlns="http://www.w3.org/2000/svg" xmlns:xlink="http://www.w3.org/1999/xlink" x="0px" y="0px"
	 width="20px" height="20px" viewBox="0 0 20 20" style="enable-background:new 0 0 20 20;" xml:space="preserve">
<style type="text/css">
	.st0{fill:#9FA3A8;}
</style>
<g>
	<g>
		<g>
			<path class="st0" d="M9.4,20L9.4,20v-2.6c-0.3,0.2-0.7,0.2-1.1,0.2c-0.4,0-0.7-0.1-1-0.2c-0.3-0.1-0.6-0.3-0.8-0.6
				c-0.5-0.5-0.8-1.2-0.8-1.9c0-0.7,0.3-1.3,0.8-1.8c0.5-0.5,1.1-0.8,1.8-0.8c0,0,0,0,0,0c0.4,0,0.8,0.1,1.1,0.2l0-2.6H6.2
				c0.1-0.1,0.2-0.3,0.3-0.5C6.8,9.2,7,8.7,7,8.3c0-1.1-0.9-1.9-2-2c0,0,0,0,0,0c-1.1,0-2,0.9-2,2c0,0.5,0.2,0.9,0.4,1.2
				C3.6,9.7,3.7,9.9,3.8,10H0.8C0.4,10,0,10.4,0,10.8v8.3C0,19.6,0.4,20,0.8,20L9.4,20L9.4,20z"/>
			<path class="st0" d="M17.4,10.6c0.2,0.3,0.2,0.7,0.2,1.1c0,0.7-0.3,1.4-0.8,1.8c-0.5,0.5-1.2,0.8-1.8,0.8c0,0,0,0,0,0
				c-0.7,0-1.3-0.3-1.8-0.8c-0.5-0.5-0.8-1.1-0.8-1.8c0-0.4,0.1-0.8,0.2-1.1h-2h-0.3H10l0,3.1c-0.1-0.1-0.3-0.2-0.5-0.3
				C9.1,13.2,8.7,13,8.3,13c0,0,0,0,0,0c-1.1,0-1.9,0.9-2,2c0,0.4,0.1,0.7,0.3,1c0.3,0.6,1,1,1.7,1c0.5,0,0.9-0.2,1.2-0.4
				c0.2-0.1,0.4-0.3,0.5-0.3v0V20h0h0.3h0.3h8.5c0.5,0,0.8-0.4,0.8-0.8v-8.5H17.4z"/>
			<path class="st0" d="M19.2,0H10v3.8c0,0,0.3-0.3,0.4-0.4C10.8,3.2,11.2,3,11.7,3c1.1,0,2,0.9,2,2c0,1.1-0.9,1.9-2,2c0,0,0,0,0,0
				c-0.5,0-0.9-0.2-1.3-0.5C10.3,6.4,10,6.2,10,6.2V10h0.6h3.1c0,0.1-0.2,0.3-0.3,0.5c-0.2,0.4-0.4,0.8-0.4,1.2c0,1.1,0.9,1.9,2,2
				c0,0,0,0,0,0c0.5,0,1-0.2,1.3-0.5c0.4-0.4,0.7-0.9,0.7-1.5c0-0.5-0.2-0.9-0.4-1.2c-0.2-0.2-0.3-0.4-0.3-0.5c0,0,0,0,0,0h3.7H20
				V9.6V0.8C20,0.4,19.6,0,19.2,0z"/>
		</g>
	</g>
</g>
</svg>
