<svg class="search-bg" xmlns="http://www.w3.org/2000/svg" viewBox="308 130 379.518 340"><defs><style>.search-bg{fill:#3a9b89;opacity:0.1;}</style></defs><path d="M1617.615,358l-58.007-58.007c-69.179,61.492-175.254,58.93-241.359-7.174-68.666-68.154-68.666-179.866,0-248.533A175.975,175.975,0,0,1,1351.8,18h52.5a154.175,154.175,0,0,0-71.7,40.635c-60.468,60.468-60.468,159.368,0,219.836s159.368,60.468,219.836,0,60.468-159.368,0-219.836A154.18,154.18,0,0,0,1480.738,18h52.692a174.076,174.076,0,0,1,33.353,26.286c66.617,66.1,68.666,172.179,7.174,241.359l71.741,71.742q.3.3.57.613ZM1520.663,99.118c-18.96-38.945-66.1-54.831-105.049-35.871a10.313,10.313,0,1,1-9.224-18.448,99.518,99.518,0,0,1,132.722,45.095,10.27,10.27,0,0,1-4.612,13.836,7.617,7.617,0,0,1-4.611,1.025A10.8,10.8,0,0,1,1520.663,99.118Z" transform="translate(-958.75 112)"/></svg>