<svg xmlns="http://www.w3.org/2000/svg" viewBox="3923 9450 40 40"><path d="M20,0A20,20,0,1,0,40,20,19.992,19.992,0,0,0,20,0ZM14.724,29.84H9.947V15.472h4.777ZM12.335,13.512h0a2.5,2.5,0,1,1,.036-4.991,2.485,2.485,0,0,1,2.674,2.5A2.516,2.516,0,0,1,12.335,13.512ZM31.943,29.84H27.166V22.175c0-1.925-.677-3.244-2.424-3.244a2.643,2.643,0,0,0-2.46,1.747,3.051,3.051,0,0,0-.143,1.176v8.021H17.362s.071-13.012,0-14.367h4.777V17.54a4.812,4.812,0,0,1,4.314-2.389c3.137,0,5.49,2.068,5.49,6.453Z" transform="translate(3923 9450)"/></svg>