<svg xmlns="http://www.w3.org/2000/svg" viewBox="3863 9450 40 40"><path d="M20,0A20,20,0,1,0,40,20,20,20,0,0,0,20,0Zm9.951,15.51.016.641A14.007,14.007,0,0,1,8.4,27.952a11.144,11.144,0,0,0,1.176.074A9.909,9.909,0,0,0,15.7,25.921,4.926,4.926,0,0,1,11.1,22.5a4.945,4.945,0,0,0,.929.082,4.812,4.812,0,0,0,1.3-.173,4.924,4.924,0,0,1-3.947-4.827v-.066a4.884,4.884,0,0,0,2.229.617,4.929,4.929,0,0,1-1.521-6.571,13.993,13.993,0,0,0,10.148,5.148,5.072,5.072,0,0,1-.132-1.118,4.928,4.928,0,0,1,8.52-3.372,10.05,10.05,0,0,0,3.125-1.192,4.955,4.955,0,0,1-2.163,2.722,9.867,9.867,0,0,0,2.829-.773A10.17,10.17,0,0,1,29.951,15.51Z" transform="translate(3863 9450)"/></svg>