<svg xmlns="http://www.w3.org/2000/svg" viewBox="3803 9450 40 40"><path d="M20,0A20,20,0,1,0,40,20,19.995,19.995,0,0,0,20,0ZM31.876,14.558c-1.345,7.55-8.832,13.952-11.089,15.407s-4.31-.582-5.057-2.131c-.849-1.762-3.413-11.325-4.082-12.12s-2.682.794-2.682.794l-.975-1.274s4.082-4.868,7.188-5.482c3.3-.645,3.287,5.057,4.082,8.219.771,3.059,1.282,4.813,1.95,4.813s1.95-1.707,3.35-4.326-.063-4.931-2.8-3.287c.786-4.7,6.287-6.85,9.127-4.748C31.685,10.986,32.258,12.4,31.876,14.558Z" transform="translate(3803 9450)"/></svg>